{"glyphs":{"0":{"ha":918,"x_min":39,"x_max":910,"o":"m 375 -25 q 39 281 39 -25 q 58 442 39 351 q 152 699 92 597 q 315 855 213 801 q 574 908 418 908 q 826 830 742 908 q 910 601 910 751 q 890 442 910 532 q 798 183 857 285 q 637 28 739 82 q 375 -25 535 -25 m 415 167 q 574 234 517 167 q 661 442 631 301 q 681 583 681 531 q 647 685 681 653 q 532 717 613 717 q 374 649 431 717 q 286 442 317 582 q 268 303 268 354 q 302 199 268 232 q 415 167 336 167 z "},"1":{"ha":485,"x_min":106,"x_max":529,"o":"m 258 689 l 106 665 l 146 853 l 529 908 l 336 0 l 113 0 l 258 689 z "},"2":{"ha":718,"x_min":-35,"x_max":726,"o":"m -14 104 q 99 231 35 174 q 268 367 164 289 q 306 396 289 382 q 410 478 378 450 q 461 534 442 506 q 489 603 481 563 q 493 639 493 622 q 464 698 493 679 q 365 717 435 717 q 138 671 263 717 l 179 864 q 315 896 239 883 q 461 908 390 908 q 656 848 586 908 q 726 683 726 788 q 717 607 726 653 q 652 472 700 531 q 511 343 604 413 l 488 326 q 377 242 419 276 q 301 172 335 208 l 633 172 l 597 0 l -35 0 l -14 104 z "},"3":{"ha":735,"x_min":-29,"x_max":739,"o":"m 240 -14 q 95 -1 176 -14 q -29 32 14 13 l 11 218 q 122 181 61 193 q 244 169 183 169 q 383 194 335 169 q 443 279 431 218 q 446 301 446 296 q 319 372 446 372 l 174 372 l 222 529 l 343 529 q 451 552 414 529 q 499 626 489 575 q 501 653 501 646 q 469 708 501 690 q 358 725 436 725 q 235 712 299 725 q 122 678 172 699 l 161 861 q 292 895 215 882 q 440 908 368 908 q 660 851 582 908 q 739 699 739 793 q 735 654 739 678 q 682 534 722 589 q 582 451 642 479 q 672 314 672 417 q 667 258 672 285 q 240 -14 608 -14 z "},"4":{"ha":760,"x_min":-25,"x_max":771,"o":"m 396 178 l -25 178 l 6 326 l 575 894 l 771 894 l 657 358 l 740 358 l 703 178 l 619 178 l 582 0 l 358 0 l 396 178 m 469 350 l 533 649 l 226 350 l 469 350 z "},"5":{"ha":724,"x_min":-25,"x_max":733,"o":"m 236 -14 q 95 -2 169 -14 q -25 31 21 10 l 15 217 q 122 183 57 196 q 242 171 188 171 q 375 198 329 171 q 433 288 421 225 q 438 325 438 308 q 410 379 438 363 q 319 396 383 396 l 49 396 l 72 508 l 178 894 l 733 894 l 681 722 l 333 722 l 289 560 l 406 560 q 598 506 528 560 q 668 350 668 451 q 660 279 668 317 q 533 61 629 136 q 236 -14 436 -14 z "},"6":{"ha":810,"x_min":26,"x_max":786,"o":"m 325 -14 q 103 52 179 -14 q 26 240 26 118 q 38 343 26 294 l 76 525 q 242 807 115 706 q 567 908 368 908 q 689 900 638 908 q 786 872 740 892 l 747 690 q 546 728 668 728 q 376 685 442 728 q 296 571 311 642 l 289 536 q 392 578 333 563 q 501 593 451 593 q 694 538 626 593 q 761 376 761 482 q 751 294 761 346 q 619 67 719 147 q 325 -14 519 -14 m 361 147 q 487 184 439 147 q 549 286 535 221 q 556 340 556 321 q 528 406 556 385 q 435 428 500 428 q 254 378 347 428 l 239 303 q 233 251 233 279 q 265 173 233 199 q 361 147 296 147 z "},"7":{"ha":692,"x_min":28,"x_max":772,"o":"m 488 722 l 104 722 l 140 894 l 772 894 l 744 761 l 261 0 l 28 0 l 488 722 z "},"8":{"ha":838,"x_min":11,"x_max":835,"o":"m 336 -14 q 94 38 176 -14 q 11 192 11 90 q 18 254 11 217 q 81 379 33 322 q 193 463 128 436 q 137 519 156 483 q 118 596 118 554 q 122 640 118 618 q 251 838 149 767 q 533 908 354 908 q 758 853 682 908 q 835 701 835 799 q 828 640 835 675 q 778 531 815 581 q 678 454 740 482 q 776 308 776 408 q 769 254 776 286 q 634 53 742 119 q 336 -14 526 -14 m 485 518 q 575 561 544 535 q 615 636 606 588 q 619 668 619 653 q 591 723 619 706 q 497 740 563 740 q 386 715 426 740 q 335 636 346 690 q 332 608 332 626 q 403 535 332 550 l 485 518 m 372 153 q 501 178 456 153 q 557 258 546 203 q 560 288 560 269 q 538 337 560 319 q 467 365 517 354 l 371 386 q 279 347 313 374 q 233 265 246 319 q 229 232 229 247 q 263 172 229 190 q 372 153 297 153 z "},"9":{"ha":810,"x_min":56,"x_max":817,"o":"m 276 -14 q 153 -6 204 -14 q 56 19 101 1 l 94 201 q 297 165 176 165 q 471 208 410 165 q 547 322 532 250 l 554 357 q 451 315 508 331 q 335 300 393 300 q 150 358 218 300 q 82 521 82 417 q 92 599 82 550 q 229 826 124 744 q 518 908 335 908 q 741 840 665 908 q 817 651 817 772 q 806 551 817 607 l 767 369 q 606 82 725 178 q 276 -14 486 -14 m 419 465 q 503 479 458 465 q 589 517 547 493 l 604 590 q 610 642 610 614 q 578 720 610 694 q 482 746 547 746 q 354 710 403 746 q 293 607 306 674 q 288 551 288 579 q 317 484 288 503 q 419 465 346 465 z "},"\r":{"ha":556,"x_min":0,"x_max":0,"o":""}," ":{"ha":486,"x_min":0,"x_max":0,"o":""},"A":{"ha":1011,"x_min":-35,"x_max":890,"o":"m 496 894 l 738 894 l 890 0 l 674 0 l 636 203 l 329 203 l 207 0 l -35 0 l 496 894 m 629 368 l 578 679 l 394 368 l 629 368 z "},"Á":{"ha":1011,"x_min":-35,"x_max":896,"o":"m 713 1228 l 896 1228 l 710 956 l 538 956 l 713 1228 m 496 894 l 738 894 l 890 0 l 674 0 l 636 203 l 329 203 l 207 0 l -35 0 l 496 894 m 629 368 l 578 679 l 394 368 l 629 368 z "},"Ă":{"ha":1011,"x_min":-35,"x_max":921,"o":"m 628 956 q 484 1001 536 956 q 432 1131 432 1047 q 439 1194 432 1157 l 576 1194 q 571 1149 571 1172 q 646 1081 571 1081 q 725 1112 694 1081 q 765 1194 756 1143 l 921 1194 q 822 1017 897 1079 q 628 956 746 956 m 496 894 l 738 894 l 890 0 l 674 0 l 636 203 l 329 203 l 207 0 l -35 0 l 496 894 m 629 368 l 578 679 l 394 368 l 629 368 z "},"Ắ":{"ha":1011,"x_min":-35,"x_max":918,"o":"m 735 1369 l 892 1369 l 739 1163 l 599 1163 l 735 1369 m 631 956 q 484 996 538 956 q 431 1119 431 1036 q 438 1183 431 1144 l 561 1183 q 556 1139 556 1150 q 577 1085 556 1101 q 650 1068 599 1068 q 738 1099 703 1068 q 785 1183 774 1129 l 918 1183 q 821 1010 893 1065 q 631 956 749 956 m 496 894 l 738 894 l 890 0 l 674 0 l 636 203 l 329 203 l 207 0 l -35 0 l 496 894 m 629 368 l 578 679 l 394 368 l 629 368 z "},"Ặ":{"ha":1011,"x_min":-35,"x_max":919,"o":"m 626 956 q 483 1001 535 956 q 431 1131 431 1047 q 438 1194 431 1157 l 575 1194 q 569 1149 569 1172 q 644 1081 569 1081 q 724 1112 693 1081 q 764 1194 754 1143 l 919 1194 q 820 1017 896 1079 q 626 956 744 956 m 496 894 l 738 894 l 890 0 l 674 0 l 636 203 l 329 203 l 207 0 l -35 0 l 496 894 m 629 368 l 578 679 l 394 368 l 629 368 m 324 -97 l 488 -97 l 456 -249 l 292 -249 l 324 -97 z "},"Ằ":{"ha":1011,"x_min":-35,"x_max":918,"o":"m 544 1369 l 703 1369 l 750 1163 l 608 1163 l 544 1369 m 631 956 q 484 996 538 956 q 431 1119 431 1036 q 438 1183 431 1144 l 561 1183 q 556 1139 556 1150 q 577 1085 556 1101 q 650 1068 599 1068 q 738 1099 703 1068 q 785 1183 774 1129 l 918 1183 q 821 1010 893 1065 q 631 956 749 956 m 496 894 l 738 894 l 890 0 l 674 0 l 636 203 l 329 203 l 207 0 l -35 0 l 496 894 m 629 368 l 578 679 l 394 368 l 629 368 z "},"Ẳ":{"ha":1011,"x_min":-35,"x_max":918,"o":"m 618 1257 q 710 1275 683 1258 q 738 1322 738 1292 q 723 1346 738 1339 q 676 1353 708 1353 q 601 1338 640 1353 l 619 1424 q 756 1442 676 1442 q 853 1417 819 1442 q 888 1350 888 1392 q 885 1326 888 1343 q 845 1253 875 1279 q 756 1215 815 1228 l 747 1172 l 600 1172 l 618 1257 m 631 956 q 484 996 538 956 q 431 1119 431 1036 q 438 1183 431 1144 l 561 1183 q 556 1139 556 1150 q 577 1085 556 1101 q 650 1068 599 1068 q 738 1099 703 1068 q 785 1183 774 1129 l 918 1183 q 821 1010 893 1065 q 631 956 749 956 m 496 894 l 738 894 l 890 0 l 674 0 l 636 203 l 329 203 l 207 0 l -35 0 l 496 894 m 629 368 l 578 679 l 394 368 l 629 368 z "},"Ẵ":{"ha":1011,"x_min":-35,"x_max":958,"o":"m 808 1208 q 753 1216 779 1208 q 689 1238 726 1224 q 633 1257 657 1250 q 586 1264 610 1264 q 447 1213 507 1264 l 474 1339 q 534 1371 497 1358 q 607 1383 571 1383 q 660 1376 636 1383 q 722 1354 685 1369 q 781 1333 758 1340 q 829 1326 803 1326 q 903 1341 869 1326 q 958 1381 936 1356 l 933 1253 q 881 1221 915 1233 q 808 1208 847 1208 m 631 956 q 484 996 538 956 q 431 1119 431 1036 q 438 1183 431 1144 l 561 1183 q 556 1139 556 1150 q 577 1085 556 1101 q 650 1068 599 1068 q 738 1099 703 1068 q 785 1183 774 1129 l 918 1183 q 821 1010 893 1065 q 631 956 749 956 m 496 894 l 738 894 l 890 0 l 674 0 l 636 203 l 329 203 l 207 0 l -35 0 l 496 894 m 629 368 l 578 679 l 394 368 l 629 368 z "},"Ǎ":{"ha":1011,"x_min":-35,"x_max":954,"o":"m 414 1215 l 575 1215 l 644 1071 l 779 1215 l 954 1215 l 697 956 l 558 956 l 414 1215 m 496 894 l 738 894 l 890 0 l 674 0 l 636 203 l 329 203 l 207 0 l -35 0 l 496 894 m 629 368 l 578 679 l 394 368 l 629 368 z "},"Â":{"ha":1011,"x_min":-35,"x_max":899,"o":"m 614 1214 l 753 1214 l 899 954 l 740 954 l 667 1099 l 536 954 l 358 954 l 614 1214 m 496 894 l 738 894 l 890 0 l 674 0 l 636 203 l 329 203 l 207 0 l -35 0 l 496 894 m 629 368 l 578 679 l 394 368 l 629 368 z "},"Ấ":{"ha":1011,"x_min":-35,"x_max":1121,"o":"m 954 1331 l 1121 1331 l 974 1124 l 817 1124 l 954 1331 m 583 1156 l 751 1156 l 896 956 l 724 956 l 657 1067 l 543 956 l 356 956 l 583 1156 m 496 894 l 738 894 l 890 0 l 674 0 l 636 203 l 329 203 l 207 0 l -35 0 l 496 894 m 629 368 l 578 679 l 394 368 l 629 368 z "},"Ậ":{"ha":1011,"x_min":-35,"x_max":899,"o":"m 614 1215 l 753 1215 l 899 956 l 740 956 l 667 1100 l 536 956 l 358 956 l 614 1215 m 496 894 l 738 894 l 890 0 l 674 0 l 636 203 l 329 203 l 207 0 l -35 0 l 496 894 m 629 368 l 578 679 l 394 368 l 629 368 m 324 -97 l 488 -97 l 456 -249 l 292 -249 l 324 -97 z "},"Ầ":{"ha":1011,"x_min":-35,"x_max":900,"o":"m 293 1331 l 460 1331 l 513 1124 l 354 1124 l 293 1331 m 588 1156 l 756 1156 l 900 956 l 728 956 l 661 1067 l 547 956 l 360 956 l 588 1156 m 496 894 l 738 894 l 890 0 l 674 0 l 636 203 l 329 203 l 207 0 l -35 0 l 496 894 m 629 368 l 578 679 l 394 368 l 629 368 z "},"Ẩ":{"ha":1011,"x_min":-35,"x_max":1115,"o":"m 847 1192 q 929 1205 906 1193 q 957 1238 953 1217 q 904 1272 965 1272 q 829 1258 867 1272 l 849 1351 q 978 1368 908 1368 q 1081 1344 1046 1368 q 1115 1278 1115 1321 q 1113 1253 1115 1269 q 986 1139 1093 1156 l 976 1093 l 826 1093 l 847 1192 m 586 1156 l 754 1156 l 899 956 l 726 956 l 660 1067 l 546 956 l 358 956 l 586 1156 m 496 894 l 738 894 l 890 0 l 674 0 l 636 203 l 329 203 l 207 0 l -35 0 l 496 894 m 629 368 l 578 679 l 394 368 l 629 368 z "},"Ẫ":{"ha":1011,"x_min":-35,"x_max":961,"o":"m 811 1176 q 756 1183 782 1176 q 690 1206 731 1190 q 635 1225 658 1218 q 588 1232 611 1232 q 449 1181 508 1232 l 476 1307 q 535 1339 499 1326 q 608 1351 572 1351 q 661 1344 638 1351 q 725 1322 685 1338 q 783 1301 761 1308 q 832 1294 806 1294 q 961 1349 911 1294 l 933 1221 q 883 1189 917 1201 q 811 1176 850 1176 m 586 1156 l 754 1156 l 899 956 l 726 956 l 660 1067 l 546 956 l 358 956 l 586 1156 m 496 894 l 738 894 l 890 0 l 674 0 l 636 203 l 329 203 l 207 0 l -35 0 l 496 894 m 629 368 l 578 679 l 394 368 l 629 368 z "},"Ä":{"ha":1011,"x_min":-35,"x_max":893,"o":"m 444 1142 l 607 1142 l 574 990 l 411 990 l 444 1142 m 729 1142 l 893 1142 l 860 990 l 696 990 l 729 1142 m 496 894 l 738 894 l 890 0 l 674 0 l 636 203 l 329 203 l 207 0 l -35 0 l 496 894 m 629 368 l 578 679 l 394 368 l 629 368 z "},"Ạ":{"ha":1011,"x_min":-35,"x_max":890,"o":"m 496 894 l 738 894 l 890 0 l 674 0 l 636 203 l 329 203 l 207 0 l -35 0 l 496 894 m 629 368 l 578 679 l 394 368 l 629 368 m 324 -97 l 488 -97 l 456 -249 l 292 -249 l 324 -97 z "},"À":{"ha":1011,"x_min":-35,"x_max":890,"o":"m 471 1228 l 654 1228 l 713 956 l 542 956 l 471 1228 m 496 894 l 738 894 l 890 0 l 674 0 l 636 203 l 329 203 l 207 0 l -35 0 l 496 894 m 629 368 l 578 679 l 394 368 l 629 368 z "},"Ả":{"ha":1011,"x_min":-35,"x_max":890,"o":"m 571 1068 q 672 1088 643 1072 q 708 1132 701 1103 q 628 1182 718 1182 q 542 1169 585 1182 l 564 1269 q 717 1289 625 1289 q 838 1260 796 1289 q 879 1179 879 1231 q 876 1151 879 1171 q 828 1063 863 1093 q 729 1017 794 1032 l 717 956 l 547 956 l 571 1068 m 496 894 l 738 894 l 890 0 l 674 0 l 636 203 l 329 203 l 207 0 l -35 0 l 496 894 m 629 368 l 578 679 l 394 368 l 629 368 z "},"Ā":{"ha":1011,"x_min":-35,"x_max":890,"o":"m 442 1113 l 882 1113 l 853 978 l 413 978 l 442 1113 m 496 894 l 738 894 l 890 0 l 674 0 l 636 203 l 329 203 l 207 0 l -35 0 l 496 894 m 629 368 l 578 679 l 394 368 l 629 368 z "},"Ą":{"ha":1011,"x_min":-35,"x_max":890,"o":"m 713 -306 q 607 -280 647 -306 q 567 -204 567 -254 q 569 -175 567 -186 q 676 0 590 -69 l 639 203 l 329 203 l 207 0 l -35 0 l 496 894 l 738 894 l 890 0 q 792 -60 828 -25 q 749 -135 757 -96 q 747 -150 747 -140 q 797 -187 747 -187 q 836 -183 815 -187 q 869 -172 857 -179 l 846 -285 q 786 -299 822 -293 q 713 -306 750 -306 m 629 368 l 578 679 l 394 368 l 629 368 z "},"Å":{"ha":1011,"x_min":-35,"x_max":890,"o":"m 481 869 q 451 954 451 903 q 456 996 451 974 q 530 1122 472 1074 q 674 1171 588 1171 q 785 1135 746 1171 q 824 1038 824 1099 q 819 996 824 1017 q 742 868 801 914 l 890 0 l 674 0 l 636 203 l 329 203 l 207 0 l -35 0 l 481 869 m 621 919 q 692 949 665 919 q 719 1019 719 978 q 653 1074 719 1074 q 583 1044 611 1074 q 554 975 554 1015 q 571 935 554 950 q 621 919 588 919 m 629 368 l 578 679 l 394 368 l 629 368 z "},"Ǻ":{"ha":1011,"x_min":-35,"x_max":947,"o":"m 764 1463 l 947 1463 l 761 1204 l 589 1204 l 764 1463 m 481 869 q 451 954 451 903 q 456 996 451 974 q 530 1122 472 1074 q 674 1171 588 1171 q 785 1135 746 1171 q 824 1038 824 1099 q 819 996 824 1017 q 742 868 801 914 l 890 0 l 674 0 l 636 203 l 329 203 l 207 0 l -35 0 l 481 869 m 621 919 q 692 949 665 919 q 719 1019 719 978 q 653 1074 719 1074 q 583 1044 611 1074 q 554 975 554 1015 q 571 935 554 950 q 621 919 588 919 m 629 368 l 578 679 l 394 368 l 629 368 z "},"Ã":{"ha":1011,"x_min":-35,"x_max":914,"o":"m 756 958 q 698 966 726 958 q 633 989 669 974 q 578 1008 601 1001 q 531 1015 554 1015 q 389 963 453 1015 l 421 1111 q 483 1143 446 1131 q 557 1156 519 1156 q 612 1149 588 1156 q 674 1126 636 1142 q 733 1106 710 1113 q 782 1099 756 1099 q 914 1153 864 1099 l 882 1003 q 829 971 864 983 q 756 958 794 958 m 496 894 l 738 894 l 890 0 l 674 0 l 636 203 l 329 203 l 207 0 l -35 0 l 496 894 m 629 368 l 578 679 l 394 368 l 629 368 z "},"Æ":{"ha":1186,"x_min":-35,"x_max":1254,"o":"m 496 894 l 1254 894 l 1218 722 l 856 722 l 815 535 l 1126 535 l 1090 360 l 779 360 l 739 172 l 1101 172 l 1065 0 l 481 0 l 524 204 l 326 204 l 204 0 l -35 0 l 496 894 m 560 378 l 633 722 l 617 722 l 414 378 l 560 378 z "},"Ǽ":{"ha":1186,"x_min":-35,"x_max":1254,"o":"m 881 1228 l 1064 1228 l 878 956 l 706 956 l 881 1228 m 496 894 l 1254 894 l 1218 722 l 856 722 l 815 535 l 1126 535 l 1090 360 l 779 360 l 739 172 l 1101 172 l 1065 0 l 481 0 l 524 204 l 326 204 l 204 0 l -35 0 l 496 894 m 560 378 l 633 722 l 617 722 l 414 378 l 560 378 z "},"B":{"ha":890,"x_min":-7,"x_max":882,"o":"m 182 894 l 643 894 q 819 844 757 894 q 882 708 882 794 q 875 650 882 685 q 824 532 860 581 q 735 457 788 483 q 832 318 832 419 q 825 263 832 297 q 479 0 769 0 l -7 0 l 182 894 m 511 531 q 643 631 621 531 q 647 664 647 650 q 623 716 647 699 q 543 733 599 733 l 372 733 l 329 531 l 511 531 m 454 160 q 553 185 522 160 q 599 274 585 210 q 603 306 603 290 q 576 359 603 342 q 492 376 549 376 l 296 376 l 250 160 l 454 160 z "},"C":{"ha":838,"x_min":44,"x_max":897,"o":"m 442 -14 q 149 74 254 -14 q 44 322 44 163 q 58 440 44 371 q 638 908 158 908 q 777 897 715 908 q 897 863 839 885 l 857 667 q 613 717 747 717 q 397 649 478 717 q 286 440 317 582 q 274 339 274 382 q 327 215 274 253 q 500 176 381 176 q 764 225 636 176 l 722 28 q 442 -14 590 -14 z "},"Ć":{"ha":838,"x_min":44,"x_max":899,"o":"m 715 1228 l 899 1228 l 713 956 l 540 956 l 715 1228 m 442 -14 q 149 74 254 -14 q 44 322 44 163 q 58 440 44 371 q 638 908 158 908 q 777 897 715 908 q 897 863 839 885 l 857 667 q 613 717 747 717 q 397 649 478 717 q 286 440 317 582 q 274 339 274 382 q 327 215 274 253 q 500 176 381 176 q 764 225 636 176 l 722 28 q 442 -14 590 -14 z "},"Č":{"ha":838,"x_min":44,"x_max":960,"o":"m 419 1214 l 581 1214 l 650 1069 l 785 1214 l 960 1214 l 703 954 l 564 954 l 419 1214 m 442 -14 q 149 74 254 -14 q 44 322 44 163 q 58 440 44 371 q 638 908 158 908 q 777 897 715 908 q 897 863 839 885 l 857 667 q 613 717 747 717 q 397 649 478 717 q 286 440 317 582 q 274 339 274 382 q 327 215 274 253 q 500 176 381 176 q 764 225 636 176 l 722 28 q 442 -14 590 -14 z "},"Ç":{"ha":838,"x_min":44,"x_max":897,"o":"m 347 -333 q 288 -330 322 -333 q 240 -322 254 -326 l 261 -224 q 343 -235 299 -235 q 428 -225 403 -235 q 458 -186 453 -215 q 460 -174 460 -182 q 440 -145 460 -151 q 378 -139 421 -139 l 303 -139 l 367 -10 q 128 93 213 7 q 44 322 44 179 q 58 440 44 371 q 638 908 158 908 q 777 897 715 908 q 897 863 839 885 l 857 667 q 613 717 747 717 q 397 649 478 717 q 286 440 317 582 q 274 339 274 382 q 327 215 274 253 q 500 176 381 176 q 764 225 636 176 l 722 28 q 497 -12 614 -7 l 471 -60 q 567 -85 536 -60 q 599 -157 599 -111 q 596 -189 599 -178 q 518 -296 581 -258 q 347 -333 456 -333 z "},"Ĉ":{"ha":838,"x_min":44,"x_max":897,"o":"m 589 1214 l 728 1214 l 874 954 l 715 954 l 642 1099 l 511 954 l 333 954 l 589 1214 m 442 -14 q 149 74 254 -14 q 44 322 44 163 q 58 440 44 371 q 638 908 158 908 q 777 897 715 908 q 897 863 839 885 l 857 667 q 613 717 747 717 q 397 649 478 717 q 286 440 317 582 q 274 339 274 382 q 327 215 274 253 q 500 176 381 176 q 764 225 636 176 l 722 28 q 442 -14 590 -14 z "},"Ċ":{"ha":838,"x_min":44,"x_max":897,"o":"m 581 1143 l 743 1143 l 710 992 l 547 992 l 581 1143 m 442 -14 q 149 74 254 -14 q 44 322 44 163 q 58 440 44 371 q 638 908 158 908 q 777 897 715 908 q 897 863 839 885 l 857 667 q 613 717 747 717 q 397 649 478 717 q 286 440 317 582 q 274 339 274 382 q 327 215 274 253 q 500 176 381 176 q 764 225 636 176 l 722 28 q 442 -14 590 -14 z "},"D":{"ha":921,"x_min":-7,"x_max":910,"o":"m 182 894 l 569 894 q 820 819 731 894 q 910 586 910 744 q 893 442 910 521 q 801 189 861 285 q 644 47 742 93 q 399 0 546 0 l -7 0 l 182 894 m 386 172 q 523 194 471 172 q 608 274 575 217 q 665 442 642 332 q 686 592 686 536 q 645 694 686 665 q 503 722 604 722 l 369 722 l 253 172 l 386 172 z "},"Ð":{"ha":982,"x_min":26,"x_max":969,"o":"m 128 357 l 26 357 l 61 519 l 163 519 l 242 894 l 629 894 q 880 819 790 894 q 969 586 969 744 q 953 442 969 521 q 861 189 921 285 q 703 47 801 93 q 458 0 606 0 l 53 0 l 128 357 m 446 172 q 583 194 531 172 q 668 274 635 217 q 725 442 701 332 q 746 592 746 536 q 705 694 746 665 q 563 722 664 722 l 429 722 l 386 519 l 561 519 l 526 357 l 351 357 l 313 172 l 446 172 z "},"Ď":{"ha":921,"x_min":-7,"x_max":910,"o":"m 331 1229 l 492 1229 l 561 1085 l 696 1229 l 871 1229 l 614 969 l 475 969 l 331 1229 m 182 894 l 569 894 q 820 819 731 894 q 910 586 910 744 q 893 442 910 521 q 801 189 861 285 q 644 47 742 93 q 399 0 546 0 l -7 0 l 182 894 m 386 172 q 523 194 471 172 q 608 274 575 217 q 665 442 642 332 q 686 592 686 536 q 645 694 686 665 q 503 722 604 722 l 369 722 l 253 172 l 386 172 z "},"Đ":{"ha":968,"x_min":13,"x_max":956,"o":"m 114 357 l 13 357 l 47 519 l 149 519 l 228 894 l 615 894 q 866 819 776 894 q 956 586 956 744 q 939 442 956 521 q 847 189 907 285 q 690 47 788 93 q 444 0 592 0 l 39 0 l 114 357 m 432 172 q 569 194 517 172 q 654 274 621 217 q 711 442 688 332 q 732 592 732 536 q 691 694 732 665 q 549 722 650 722 l 415 722 l 372 519 l 547 519 l 513 357 l 338 357 l 299 172 l 432 172 z "},"Ḍ":{"ha":921,"x_min":-7,"x_max":910,"o":"m 182 894 l 569 894 q 820 819 731 894 q 910 586 910 744 q 893 442 910 521 q 801 189 861 285 q 644 47 742 93 q 399 0 546 0 l -7 0 l 182 894 m 386 172 q 523 194 471 172 q 608 274 575 217 q 665 442 642 332 q 686 592 686 536 q 645 694 686 665 q 503 722 604 722 l 369 722 l 253 172 l 386 172 m 233 -111 l 397 -111 l 365 -262 l 201 -262 l 233 -111 z "},"Ḏ":{"ha":921,"x_min":-7,"x_max":910,"o":"m 182 894 l 569 894 q 820 819 731 894 q 910 586 910 744 q 893 442 910 521 q 801 189 861 285 q 644 47 742 93 q 399 0 546 0 l -7 0 l 182 894 m 386 172 q 523 194 471 172 q 608 274 575 217 q 665 442 642 332 q 686 592 686 536 q 645 694 686 665 q 503 722 604 722 l 369 722 l 253 172 l 386 172 m 97 -114 l 538 -114 l 508 -250 l 68 -250 l 97 -114 z "},"E":{"ha":767,"x_min":-7,"x_max":842,"o":"m 182 894 l 842 894 l 806 722 l 369 722 l 329 535 l 714 535 l 678 360 l 293 360 l 253 172 l 689 172 l 653 0 l -7 0 l 182 894 z "},"É":{"ha":767,"x_min":-7,"x_max":842,"o":"m 593 1228 l 776 1228 l 590 956 l 418 956 l 593 1228 m 182 894 l 842 894 l 806 722 l 369 722 l 329 535 l 714 535 l 678 360 l 293 360 l 253 172 l 689 172 l 653 0 l -7 0 l 182 894 z "},"Ĕ":{"ha":767,"x_min":-7,"x_max":842,"o":"m 531 956 q 387 1001 439 956 q 335 1131 335 1047 q 342 1194 335 1157 l 479 1194 q 474 1149 474 1172 q 549 1081 474 1081 q 628 1112 597 1081 q 668 1194 658 1143 l 824 1194 q 724 1017 800 1079 q 531 956 649 956 m 182 894 l 842 894 l 806 722 l 369 722 l 329 535 l 714 535 l 678 360 l 293 360 l 253 172 l 689 172 l 653 0 l -7 0 l 182 894 z "},"Ě":{"ha":767,"x_min":-7,"x_max":861,"o":"m 321 1214 l 482 1214 l 551 1069 l 686 1214 l 861 1214 l 604 954 l 465 954 l 321 1214 m 182 894 l 842 894 l 806 722 l 369 722 l 329 535 l 714 535 l 678 360 l 293 360 l 253 172 l 689 172 l 653 0 l -7 0 l 182 894 z "},"Ê":{"ha":767,"x_min":-7,"x_max":842,"o":"m 510 1214 l 649 1214 l 794 954 l 636 954 l 563 1099 l 432 954 l 254 954 l 510 1214 m 182 894 l 842 894 l 806 722 l 369 722 l 329 535 l 714 535 l 678 360 l 293 360 l 253 172 l 689 172 l 653 0 l -7 0 l 182 894 z "},"Ế":{"ha":767,"x_min":-7,"x_max":1007,"o":"m 840 1331 l 1007 1331 l 860 1124 l 703 1124 l 840 1331 m 469 1156 l 638 1156 l 782 956 l 610 956 l 543 1067 l 429 956 l 242 956 l 469 1156 m 182 894 l 842 894 l 806 722 l 369 722 l 329 535 l 714 535 l 678 360 l 293 360 l 253 172 l 689 172 l 653 0 l -7 0 l 182 894 z "},"Ệ":{"ha":767,"x_min":-7,"x_max":842,"o":"m 500 1215 l 639 1215 l 785 956 l 626 956 l 553 1100 l 422 956 l 244 956 l 500 1215 m 182 894 l 842 894 l 806 722 l 369 722 l 329 535 l 714 535 l 678 360 l 293 360 l 253 172 l 689 172 l 653 0 l -7 0 l 182 894 m 211 -97 l 375 -97 l 343 -249 l 179 -249 l 211 -97 z "},"Ề":{"ha":767,"x_min":-7,"x_max":842,"o":"m 185 1331 l 351 1331 l 404 1124 l 246 1124 l 185 1331 m 479 1156 l 647 1156 l 792 956 l 619 956 l 553 1067 l 439 956 l 251 956 l 479 1156 m 182 894 l 842 894 l 806 722 l 369 722 l 329 535 l 714 535 l 678 360 l 293 360 l 253 172 l 689 172 l 653 0 l -7 0 l 182 894 z "},"Ể":{"ha":767,"x_min":-7,"x_max":1004,"o":"m 736 1192 q 818 1205 794 1193 q 846 1238 842 1217 q 793 1272 854 1272 q 718 1258 756 1272 l 738 1351 q 867 1368 797 1368 q 969 1344 935 1368 q 1004 1278 1004 1321 q 1001 1253 1004 1269 q 875 1139 982 1156 l 865 1093 l 715 1093 l 736 1192 m 475 1156 l 643 1156 l 788 956 l 615 956 l 549 1067 l 435 956 l 247 956 l 475 1156 m 182 894 l 842 894 l 806 722 l 369 722 l 329 535 l 714 535 l 678 360 l 293 360 l 253 172 l 689 172 l 653 0 l -7 0 l 182 894 z "},"Ễ":{"ha":767,"x_min":-7,"x_max":857,"o":"m 707 1176 q 652 1183 678 1176 q 586 1206 626 1190 q 531 1225 554 1218 q 483 1232 507 1232 q 344 1181 404 1232 l 372 1307 q 431 1339 394 1326 q 504 1351 468 1351 q 557 1344 533 1351 q 621 1322 581 1338 q 679 1301 657 1308 q 728 1294 701 1294 q 857 1349 807 1294 l 829 1221 q 779 1189 813 1201 q 707 1176 746 1176 m 482 1156 l 650 1156 l 794 956 l 622 956 l 556 1067 l 442 956 l 254 956 l 482 1156 m 182 894 l 842 894 l 806 722 l 369 722 l 329 535 l 714 535 l 678 360 l 293 360 l 253 172 l 689 172 l 653 0 l -7 0 l 182 894 z "},"Ë":{"ha":767,"x_min":-7,"x_max":842,"o":"m 346 1143 l 508 1143 l 475 992 l 313 992 l 346 1143 m 631 1143 l 794 1143 l 761 992 l 597 992 l 631 1143 m 182 894 l 842 894 l 806 722 l 369 722 l 329 535 l 714 535 l 678 360 l 293 360 l 253 172 l 689 172 l 653 0 l -7 0 l 182 894 z "},"Ė":{"ha":767,"x_min":-7,"x_max":842,"o":"m 482 1143 l 644 1143 l 611 992 l 449 992 l 482 1143 m 182 894 l 842 894 l 806 722 l 369 722 l 329 535 l 714 535 l 678 360 l 293 360 l 253 172 l 689 172 l 653 0 l -7 0 l 182 894 z "},"Ẹ":{"ha":767,"x_min":-7,"x_max":842,"o":"m 182 894 l 842 894 l 806 722 l 369 722 l 329 535 l 714 535 l 678 360 l 293 360 l 253 172 l 689 172 l 653 0 l -7 0 l 182 894 m 210 -97 l 374 -97 l 342 -249 l 178 -249 l 210 -97 z "},"È":{"ha":767,"x_min":-7,"x_max":842,"o":"m 392 1228 l 575 1228 l 633 956 l 463 956 l 392 1228 m 182 894 l 842 894 l 806 722 l 369 722 l 329 535 l 714 535 l 678 360 l 293 360 l 253 172 l 689 172 l 653 0 l -7 0 l 182 894 z "},"Ẻ":{"ha":767,"x_min":-7,"x_max":842,"o":"m 461 1068 q 563 1088 533 1072 q 599 1132 592 1103 q 518 1182 608 1182 q 432 1169 475 1182 l 454 1269 q 607 1289 515 1289 q 728 1260 686 1289 q 769 1179 769 1231 q 767 1151 769 1171 q 719 1063 753 1093 q 619 1017 685 1032 l 607 956 l 438 956 l 461 1068 m 182 894 l 842 894 l 806 722 l 369 722 l 329 535 l 714 535 l 678 360 l 293 360 l 253 172 l 689 172 l 653 0 l -7 0 l 182 894 z "},"Ē":{"ha":767,"x_min":-7,"x_max":842,"o":"m 332 1139 l 772 1139 l 743 1004 l 303 1004 l 332 1139 m 182 894 l 842 894 l 806 722 l 369 722 l 329 535 l 714 535 l 678 360 l 293 360 l 253 172 l 689 172 l 653 0 l -7 0 l 182 894 z "},"Ę":{"ha":767,"x_min":-7,"x_max":842,"o":"m 447 -306 q 342 -280 382 -306 q 301 -204 301 -254 q 304 -175 301 -186 q 351 -78 314 -124 q 442 0 388 -32 l -7 0 l 182 894 l 842 894 l 806 722 l 369 722 l 329 535 l 714 535 l 678 360 l 293 360 l 253 172 l 689 172 l 653 0 l 599 0 q 483 -135 499 -65 q 482 -150 482 -140 q 532 -187 482 -187 q 571 -183 550 -187 q 604 -172 592 -179 l 581 -285 q 521 -299 557 -293 q 447 -306 485 -306 z "},"Ẽ":{"ha":767,"x_min":-7,"x_max":842,"o":"m 657 969 q 599 977 626 969 q 535 1000 571 985 q 479 1019 503 1013 q 432 1026 456 1026 q 290 974 354 1026 l 322 1122 q 384 1154 347 1142 q 458 1167 421 1167 q 513 1160 489 1167 q 575 1138 538 1153 q 634 1117 611 1124 q 683 1110 657 1110 q 815 1164 765 1110 l 783 1014 q 731 982 765 994 q 657 969 696 969 m 182 894 l 842 894 l 806 722 l 369 722 l 329 535 l 714 535 l 678 360 l 293 360 l 253 172 l 689 172 l 653 0 l -7 0 l 182 894 z "},"F":{"ha":736,"x_min":-7,"x_max":832,"o":"m 182 894 l 832 894 l 796 722 l 369 722 l 329 535 l 704 535 l 668 360 l 293 360 l 217 0 l -7 0 l 182 894 z "},"G":{"ha":899,"x_min":43,"x_max":911,"o":"m 435 -14 q 146 72 249 -14 q 43 315 43 157 q 57 435 43 374 q 253 786 106 664 q 646 908 401 908 q 911 869 803 908 l 869 678 q 626 717 774 717 q 399 648 483 717 q 285 435 315 579 q 272 333 272 376 q 321 213 272 250 q 476 176 369 176 q 560 183 518 176 q 632 199 603 189 l 668 368 l 475 368 l 504 508 l 885 508 l 790 65 q 640 8 729 31 q 435 -14 550 -14 z "},"Ğ":{"ha":899,"x_min":43,"x_max":933,"o":"m 640 956 q 497 1001 549 956 q 444 1131 444 1047 q 451 1194 444 1157 l 589 1194 q 583 1149 583 1172 q 658 1081 583 1081 q 738 1112 707 1081 q 778 1194 768 1143 l 933 1194 q 834 1017 910 1079 q 640 956 758 956 m 435 -14 q 146 72 249 -14 q 43 315 43 157 q 57 435 43 374 q 253 786 106 664 q 646 908 401 908 q 911 869 803 908 l 869 678 q 626 717 774 717 q 399 648 483 717 q 285 435 315 579 q 272 333 272 376 q 321 213 272 250 q 476 176 369 176 q 560 183 518 176 q 632 199 603 189 l 668 368 l 475 368 l 504 508 l 885 508 l 790 65 q 640 8 729 31 q 435 -14 550 -14 z "},"Ǧ":{"ha":899,"x_min":43,"x_max":963,"o":"m 422 1215 l 583 1215 l 653 1071 l 788 1215 l 963 1215 l 706 956 l 567 956 l 422 1215 m 435 -14 q 146 72 249 -14 q 43 315 43 157 q 57 435 43 374 q 253 786 106 664 q 646 908 401 908 q 911 869 803 908 l 869 678 q 626 717 774 717 q 399 648 483 717 q 285 435 315 579 q 272 333 272 376 q 321 213 272 250 q 476 176 369 176 q 560 183 518 176 q 632 199 603 189 l 668 368 l 475 368 l 504 508 l 885 508 l 790 65 q 640 8 729 31 q 435 -14 550 -14 z "},"Ĝ":{"ha":899,"x_min":43,"x_max":911,"o":"m 611 1214 l 750 1214 l 896 954 l 738 954 l 664 1099 l 533 954 l 356 954 l 611 1214 m 435 -14 q 146 72 249 -14 q 43 315 43 157 q 57 435 43 374 q 253 786 106 664 q 646 908 401 908 q 911 869 803 908 l 869 678 q 626 717 774 717 q 399 648 483 717 q 285 435 315 579 q 272 333 272 376 q 321 213 272 250 q 476 176 369 176 q 560 183 518 176 q 632 199 603 189 l 668 368 l 475 368 l 504 508 l 885 508 l 790 65 q 640 8 729 31 q 435 -14 550 -14 z "},"Ģ":{"ha":899,"x_min":43,"x_max":911,"o":"m 435 -14 q 146 72 249 -14 q 43 315 43 157 q 57 435 43 374 q 253 786 106 664 q 646 908 401 908 q 911 869 803 908 l 869 678 q 626 717 774 717 q 399 648 483 717 q 285 435 315 579 q 272 333 272 376 q 321 213 272 250 q 476 176 369 176 q 560 183 518 176 q 632 199 603 189 l 668 368 l 475 368 l 504 508 l 885 508 l 790 65 q 640 8 729 31 q 435 -14 550 -14 m 354 -51 l 533 -51 l 396 -347 l 246 -347 l 354 -51 z "},"Ġ":{"ha":899,"x_min":43,"x_max":911,"o":"m 610 1143 l 772 1143 l 739 992 l 576 992 l 610 1143 m 435 -14 q 146 72 249 -14 q 43 315 43 157 q 57 435 43 374 q 253 786 106 664 q 646 908 401 908 q 911 869 803 908 l 869 678 q 626 717 774 717 q 399 648 483 717 q 285 435 315 579 q 272 333 272 376 q 321 213 272 250 q 476 176 369 176 q 560 183 518 176 q 632 199 603 189 l 668 368 l 475 368 l 504 508 l 885 508 l 790 65 q 640 8 729 31 q 435 -14 550 -14 z "},"Ḡ":{"ha":899,"x_min":43,"x_max":911,"o":"m 461 1131 l 901 1131 l 872 996 l 432 996 l 461 1131 m 435 -14 q 146 72 249 -14 q 43 315 43 157 q 57 435 43 374 q 253 786 106 664 q 646 908 401 908 q 911 869 803 908 l 869 678 q 626 717 774 717 q 399 648 483 717 q 285 435 315 579 q 272 333 272 376 q 321 213 272 250 q 476 176 369 176 q 560 183 518 176 q 632 199 603 189 l 668 368 l 475 368 l 504 508 l 885 508 l 790 65 q 640 8 729 31 q 435 -14 550 -14 z "},"H":{"ha":939,"x_min":-7,"x_max":979,"o":"m 182 894 l 406 894 l 331 540 l 681 540 l 756 894 l 979 894 l 790 0 l 567 0 l 642 354 l 292 354 l 217 0 l -7 0 l 182 894 z "},"Ħ":{"ha":940,"x_min":-7,"x_max":1014,"o":"m 126 631 l 69 631 l 103 790 l 160 790 l 182 894 l 406 894 l 383 790 l 733 790 l 756 894 l 979 894 l 957 790 l 1014 790 l 981 631 l 924 631 l 790 0 l 567 0 l 642 354 l 292 354 l 217 0 l -7 0 l 126 631 m 681 540 l 700 631 l 350 631 l 331 540 l 681 540 z "},"Ḫ":{"ha":939,"x_min":-7,"x_max":979,"o":"m 182 894 l 406 894 l 331 540 l 681 540 l 756 894 l 979 894 l 790 0 l 567 0 l 642 354 l 292 354 l 217 0 l -7 0 l 182 894 m 324 -315 q 180 -270 232 -315 q 128 -142 128 -225 q 135 -76 128 -106 l 274 -76 q 267 -126 267 -101 q 285 -175 267 -160 q 342 -190 304 -190 q 420 -159 390 -190 q 461 -76 450 -128 l 617 -76 q 516 -253 592 -192 q 324 -315 440 -315 z "},"Ĥ":{"ha":939,"x_min":-7,"x_max":979,"o":"m 578 1214 l 717 1214 l 863 954 l 704 954 l 631 1099 l 500 954 l 322 954 l 578 1214 m 182 894 l 406 894 l 331 540 l 681 540 l 756 894 l 979 894 l 790 0 l 567 0 l 642 354 l 292 354 l 217 0 l -7 0 l 182 894 z "},"Ḥ":{"ha":939,"x_min":-7,"x_max":979,"o":"m 182 894 l 406 894 l 331 540 l 681 540 l 756 894 l 979 894 l 790 0 l 567 0 l 642 354 l 292 354 l 217 0 l -7 0 l 182 894 m 286 -111 l 450 -111 l 418 -262 l 254 -262 l 286 -111 z "},"I":{"ha":365,"x_min":-7,"x_max":406,"o":"m 182 894 l 406 894 l 217 0 l -7 0 l 182 894 z "},"Ĳ":{"ha":967,"x_min":-7,"x_max":1013,"o":"m 182 894 l 406 894 l 217 0 l -7 0 l 182 894 m 492 -14 q 293 18 374 -14 l 333 206 q 486 176 393 176 q 583 190 547 176 q 637 235 618 204 q 667 318 656 265 l 789 894 l 1013 894 l 882 276 q 758 59 851 132 q 492 -14 664 -14 z "},"Í":{"ha":367,"x_min":-7,"x_max":576,"o":"m 393 1228 l 576 1228 l 390 956 l 218 956 l 393 1228 m 182 894 l 406 894 l 217 0 l -7 0 l 182 894 z "},"Ĭ":{"ha":367,"x_min":-7,"x_max":604,"o":"m 311 979 q 167 1025 219 979 q 115 1154 115 1071 q 122 1218 115 1181 l 260 1218 q 254 1172 254 1196 q 329 1104 254 1104 q 408 1135 378 1104 q 449 1218 439 1167 l 604 1218 q 505 1041 581 1103 q 311 979 429 979 m 182 894 l 406 894 l 217 0 l -7 0 l 182 894 z "},"Ǐ":{"ha":367,"x_min":-7,"x_max":632,"o":"m 92 1215 l 253 1215 l 322 1071 l 457 1215 l 632 1215 l 375 956 l 236 956 l 92 1215 m 182 894 l 406 894 l 217 0 l -7 0 l 182 894 z "},"Î":{"ha":367,"x_min":-7,"x_max":576,"o":"m 292 1214 l 431 1214 l 576 954 l 418 954 l 344 1099 l 214 954 l 36 954 l 292 1214 m 182 894 l 406 894 l 217 0 l -7 0 l 182 894 z "},"Ï":{"ha":365,"x_min":-7,"x_max":575,"o":"m 126 1151 l 289 1151 l 256 1000 l 93 1000 l 126 1151 m 411 1151 l 575 1151 l 542 1000 l 378 1000 l 411 1151 m 182 894 l 406 894 l 217 0 l -7 0 l 182 894 z "},"İ":{"ha":365,"x_min":-7,"x_max":431,"o":"m 268 1151 l 431 1151 l 397 1000 l 235 1000 l 268 1151 m 182 894 l 406 894 l 217 0 l -7 0 l 182 894 z "},"Ị":{"ha":365,"x_min":-31,"x_max":406,"o":"m 182 894 l 406 894 l 217 0 l -7 0 l 182 894 m 1 -97 l 165 -97 l 133 -249 l -31 -249 l 1 -97 z "},"Ì":{"ha":365,"x_min":-7,"x_max":406,"o":"m 153 1228 l 336 1228 l 394 956 l 224 956 l 153 1228 m 182 894 l 406 894 l 217 0 l -7 0 l 182 894 z "},"Ỉ":{"ha":367,"x_min":-7,"x_max":550,"o":"m 242 1068 q 343 1088 314 1072 q 379 1132 372 1103 q 299 1182 389 1182 q 213 1169 256 1182 l 235 1269 q 388 1289 296 1289 q 508 1260 467 1289 q 550 1179 550 1231 q 547 1151 550 1171 q 499 1063 533 1093 q 400 1017 465 1032 l 388 956 l 218 956 l 242 1068 m 182 894 l 406 894 l 217 0 l -7 0 l 182 894 z "},"Ī":{"ha":367,"x_min":-7,"x_max":568,"o":"m 126 1139 l 568 1139 l 539 1004 l 97 1004 l 126 1139 m 182 894 l 406 894 l 217 0 l -7 0 l 182 894 z "},"Į":{"ha":367,"x_min":-111,"x_max":406,"o":"m 35 -306 q -71 -280 -31 -306 q -111 -204 -111 -254 q -108 -175 -111 -186 q -62 -78 -99 -124 q 29 0 -25 -32 l -7 0 l 182 894 l 406 894 l 217 0 l 186 0 q 71 -135 86 -65 q 69 -150 69 -140 q 119 -187 69 -187 q 158 -183 138 -187 q 192 -172 179 -179 l 168 -285 q 108 -299 144 -293 q 35 -306 72 -306 z "},"Ĩ":{"ha":367,"x_min":-7,"x_max":596,"o":"m 438 979 q 379 987 407 979 q 315 1010 351 994 q 260 1029 283 1022 q 213 1036 236 1036 q 71 983 135 1036 l 103 1132 q 165 1164 128 1151 q 239 1176 201 1176 q 294 1169 269 1176 q 356 1147 318 1163 q 415 1126 392 1133 q 464 1119 438 1119 q 596 1174 546 1119 l 564 1024 q 511 992 546 1004 q 438 979 476 979 m 182 894 l 406 894 l 217 0 l -7 0 l 182 894 z "},"J":{"ha":613,"x_min":-60,"x_max":660,"o":"m 139 -14 q -60 18 21 -14 l -19 206 q 133 176 40 176 q 230 190 194 176 q 284 235 265 204 q 314 318 303 265 l 436 894 l 660 894 l 529 276 q 405 59 499 132 q 139 -14 311 -14 z "},"Ĵ":{"ha":613,"x_min":-60,"x_max":824,"o":"m 539 1214 l 678 1214 l 824 954 l 665 954 l 592 1099 l 461 954 l 283 954 l 539 1214 m 139 -14 q -60 18 21 -14 l -19 206 q 133 176 40 176 q 230 190 194 176 q 284 235 265 204 q 314 318 303 265 l 436 894 l 660 894 l 529 276 q 405 59 499 132 q 139 -14 311 -14 z "},"K":{"ha":921,"x_min":-7,"x_max":969,"o":"m 182 894 l 406 894 l 332 547 l 714 894 l 969 894 l 572 529 l 800 0 l 561 0 l 404 386 l 274 271 l 217 0 l -7 0 l 182 894 z "},"Ķ":{"ha":921,"x_min":-7,"x_max":969,"o":"m 182 894 l 406 894 l 332 547 l 714 894 l 969 894 l 572 529 l 800 0 l 561 0 l 404 386 l 274 271 l 217 0 l -7 0 l 182 894 m 289 -51 l 468 -51 l 331 -347 l 181 -347 l 289 -51 z "},"L":{"ha":732,"x_min":-7,"x_max":675,"o":"m 182 894 l 406 894 l 253 172 l 675 172 l 639 0 l -7 0 l 182 894 z "},"Ĺ":{"ha":732,"x_min":-7,"x_max":675,"o":"m 394 1228 l 578 1228 l 392 956 l 219 956 l 394 1228 m 182 894 l 406 894 l 253 172 l 675 172 l 639 0 l -7 0 l 182 894 z "},"Ľ":{"ha":732,"x_min":-7,"x_max":810,"o":"m 631 1122 l 810 1122 l 672 826 l 522 826 l 631 1122 m 182 894 l 406 894 l 253 172 l 675 172 l 639 0 l -7 0 l 182 894 z "},"Ļ":{"ha":732,"x_min":-7,"x_max":675,"o":"m 182 894 l 406 894 l 253 172 l 675 172 l 639 0 l -7 0 l 182 894 m 238 -51 l 417 -51 l 279 -347 l 129 -347 l 238 -51 z "},"Ŀ":{"ha":732,"x_min":-7,"x_max":675,"o":"m 182 894 l 406 894 l 253 172 l 675 172 l 639 0 l -7 0 l 182 894 m 504 546 l 668 546 l 635 394 l 471 394 l 504 546 z "},"Ḷ":{"ha":732,"x_min":-7,"x_max":675,"o":"m 182 894 l 406 894 l 253 172 l 675 172 l 639 0 l -7 0 l 182 894 m 203 -97 l 367 -97 l 335 -249 l 171 -249 l 203 -97 z "},"Ḹ":{"ha":732,"x_min":-7,"x_max":675,"o":"m 149 1131 l 589 1131 l 560 996 l 119 996 l 149 1131 m 182 894 l 406 894 l 253 172 l 675 172 l 639 0 l -7 0 l 182 894 m 203 -97 l 367 -97 l 335 -249 l 171 -249 l 203 -97 z "},"Ḻ":{"ha":732,"x_min":-7,"x_max":675,"o":"m 182 894 l 406 894 l 253 172 l 675 172 l 639 0 l -7 0 l 182 894 m 68 -97 l 508 -97 l 479 -233 l 39 -233 l 68 -97 z "},"Ł":{"ha":732,"x_min":-53,"x_max":675,"o":"m 65 346 l -53 299 l -18 458 l 99 506 l 182 894 l 406 894 l 343 603 l 506 668 l 471 508 l 310 444 l 253 172 l 675 172 l 639 0 l -7 0 l 65 346 z "},"M":{"ha":1067,"x_min":-7,"x_max":1107,"o":"m 182 894 l 394 894 l 533 399 l 879 894 l 1107 894 l 918 0 l 694 0 l 803 514 l 550 153 l 426 153 l 325 514 l 217 0 l -7 0 l 182 894 z "},"Ṃ":{"ha":1067,"x_min":-7,"x_max":1107,"o":"m 182 894 l 394 894 l 533 399 l 879 894 l 1107 894 l 918 0 l 694 0 l 803 514 l 550 153 l 426 153 l 325 514 l 217 0 l -7 0 l 182 894 m 363 -97 l 526 -97 l 494 -249 l 331 -249 l 363 -97 z "},"N":{"ha":939,"x_min":-7,"x_max":979,"o":"m 182 894 l 374 894 l 642 360 l 754 894 l 979 894 l 790 0 l 597 0 l 329 533 l 217 0 l -7 0 l 182 894 z "},"Ń":{"ha":939,"x_min":-7,"x_max":979,"o":"m 660 1228 l 843 1228 l 657 956 l 485 956 l 660 1228 m 182 894 l 374 894 l 642 360 l 754 894 l 979 894 l 790 0 l 597 0 l 329 533 l 217 0 l -7 0 l 182 894 z "},"Ň":{"ha":939,"x_min":-7,"x_max":979,"o":"m 379 1214 l 540 1214 l 610 1069 l 744 1214 l 919 1214 l 663 954 l 524 954 l 379 1214 m 182 894 l 374 894 l 642 360 l 754 894 l 979 894 l 790 0 l 597 0 l 329 533 l 217 0 l -7 0 l 182 894 z "},"Ņ":{"ha":939,"x_min":-7,"x_max":979,"o":"m 182 894 l 374 894 l 642 360 l 754 894 l 979 894 l 790 0 l 597 0 l 329 533 l 217 0 l -7 0 l 182 894 m 304 -51 l 483 -51 l 346 -347 l 196 -347 l 304 -51 z "},"Ṅ":{"ha":939,"x_min":-7,"x_max":979,"o":"m 556 1143 l 718 1143 l 685 992 l 522 992 l 556 1143 m 182 894 l 374 894 l 642 360 l 754 894 l 979 894 l 790 0 l 597 0 l 329 533 l 217 0 l -7 0 l 182 894 z "},"Ṇ":{"ha":939,"x_min":-7,"x_max":979,"o":"m 182 894 l 374 894 l 642 360 l 754 894 l 979 894 l 790 0 l 597 0 l 329 533 l 217 0 l -7 0 l 182 894 m 290 -97 l 454 -97 l 422 -249 l 258 -249 l 290 -97 z "},"Ŋ":{"ha":939,"x_min":-7,"x_max":979,"o":"m 479 -325 q 321 -297 381 -325 l 353 -149 q 433 -162 390 -162 q 511 -142 483 -162 q 549 -76 539 -121 l 574 44 l 329 533 l 217 0 l -7 0 l 182 894 l 374 894 l 642 360 l 754 894 l 979 894 l 769 -96 q 673 -263 747 -201 q 479 -325 599 -325 z "},"Ṉ":{"ha":939,"x_min":-7,"x_max":979,"o":"m 182 894 l 374 894 l 642 360 l 754 894 l 979 894 l 790 0 l 597 0 l 329 533 l 217 0 l -7 0 l 182 894 m 157 -94 l 597 -94 l 568 -231 l 128 -231 l 157 -94 z "},"Ñ":{"ha":939,"x_min":-7,"x_max":979,"o":"m 735 969 q 677 977 706 969 q 613 1000 649 985 q 557 1019 581 1013 q 510 1026 533 1026 q 368 974 432 1026 l 400 1122 q 462 1154 425 1142 q 536 1167 499 1167 q 591 1160 567 1167 q 653 1138 615 1153 q 712 1117 689 1124 q 761 1110 735 1110 q 893 1164 843 1110 l 861 1014 q 808 982 843 994 q 735 969 774 969 m 182 894 l 374 894 l 642 360 l 754 894 l 979 894 l 790 0 l 597 0 l 329 533 l 217 0 l -7 0 l 182 894 z "},"O":{"ha":978,"x_min":43,"x_max":967,"o":"m 407 -14 q 139 67 235 -14 q 43 307 43 149 q 58 443 43 375 q 242 799 111 689 q 604 908 372 908 q 872 828 776 908 q 967 588 967 749 q 950 443 967 522 q 768 97 900 208 q 407 -14 636 -14 m 447 176 q 626 241 560 176 q 721 443 692 306 q 738 574 738 522 q 697 685 738 653 q 563 717 656 717 q 383 654 447 717 q 286 443 318 592 q 271 321 271 369 q 312 210 271 243 q 447 176 353 176 z "},"Ó":{"ha":978,"x_min":43,"x_max":967,"o":"m 688 1228 l 871 1228 l 685 956 l 513 956 l 688 1228 m 407 -14 q 139 67 235 -14 q 43 307 43 149 q 58 443 43 375 q 242 799 111 689 q 604 908 372 908 q 872 828 776 908 q 967 588 967 749 q 950 443 967 522 q 768 97 900 208 q 407 -14 636 -14 m 447 176 q 626 241 560 176 q 721 443 692 306 q 738 574 738 522 q 697 685 738 653 q 563 717 656 717 q 383 654 447 717 q 286 443 318 592 q 271 321 271 369 q 312 210 271 243 q 447 176 353 176 z "},"Ŏ":{"ha":978,"x_min":43,"x_max":967,"o":"m 611 956 q 467 1001 519 956 q 415 1131 415 1047 q 422 1194 415 1157 l 560 1194 q 554 1149 554 1172 q 629 1081 554 1081 q 708 1112 678 1081 q 749 1194 739 1143 l 904 1194 q 805 1017 881 1079 q 611 956 729 956 m 407 -14 q 139 67 235 -14 q 43 307 43 149 q 58 443 43 375 q 242 799 111 689 q 604 908 372 908 q 872 828 776 908 q 967 588 967 749 q 950 443 967 522 q 768 97 900 208 q 407 -14 636 -14 m 447 176 q 626 241 560 176 q 721 443 692 306 q 738 574 738 522 q 697 685 738 653 q 563 717 656 717 q 383 654 447 717 q 286 443 318 592 q 271 321 271 369 q 312 210 271 243 q 447 176 353 176 z "},"Ǒ":{"ha":978,"x_min":43,"x_max":967,"o":"m 397 1215 l 558 1215 l 628 1071 l 763 1215 l 938 1215 l 681 956 l 542 956 l 397 1215 m 407 -14 q 139 67 235 -14 q 43 307 43 149 q 58 443 43 375 q 242 799 111 689 q 604 908 372 908 q 872 828 776 908 q 967 588 967 749 q 950 443 967 522 q 768 97 900 208 q 407 -14 636 -14 m 447 176 q 626 241 560 176 q 721 443 692 306 q 738 574 738 522 q 697 685 738 653 q 563 717 656 717 q 383 654 447 717 q 286 443 318 592 q 271 321 271 369 q 312 210 271 243 q 447 176 353 176 z "},"Ô":{"ha":978,"x_min":43,"x_max":967,"o":"m 599 1214 l 738 1214 l 883 954 l 725 954 l 651 1099 l 521 954 l 343 954 l 599 1214 m 407 -14 q 139 67 235 -14 q 43 307 43 149 q 58 443 43 375 q 242 799 111 689 q 604 908 372 908 q 872 828 776 908 q 967 588 967 749 q 950 443 967 522 q 768 97 900 208 q 407 -14 636 -14 m 447 176 q 626 241 560 176 q 721 443 692 306 q 738 574 738 522 q 697 685 738 653 q 563 717 656 717 q 383 654 447 717 q 286 443 318 592 q 271 321 271 369 q 312 210 271 243 q 447 176 353 176 z "},"Ố":{"ha":978,"x_min":43,"x_max":1107,"o":"m 940 1331 l 1107 1331 l 960 1124 l 803 1124 l 940 1331 m 569 1156 l 738 1156 l 882 956 l 710 956 l 643 1067 l 529 956 l 342 956 l 569 1156 m 407 -14 q 139 67 235 -14 q 43 307 43 149 q 58 443 43 375 q 242 799 111 689 q 604 908 372 908 q 872 828 776 908 q 967 588 967 749 q 950 443 967 522 q 768 97 900 208 q 407 -14 636 -14 m 447 176 q 626 241 560 176 q 721 443 692 306 q 738 574 738 522 q 697 685 738 653 q 563 717 656 717 q 383 654 447 717 q 286 443 318 592 q 271 321 271 369 q 312 210 271 243 q 447 176 353 176 z "},"Ộ":{"ha":978,"x_min":43,"x_max":967,"o":"m 599 1217 l 738 1217 l 883 957 l 725 957 l 651 1101 l 521 957 l 343 957 l 599 1217 m 407 -14 q 139 67 235 -14 q 43 307 43 149 q 58 443 43 375 q 242 799 111 689 q 604 908 372 908 q 872 828 776 908 q 967 588 967 749 q 950 443 967 522 q 768 97 900 208 q 407 -14 636 -14 m 447 176 q 626 241 560 176 q 721 443 692 306 q 738 574 738 522 q 697 685 738 653 q 563 717 656 717 q 383 654 447 717 q 286 443 318 592 q 271 321 271 369 q 312 210 271 243 q 447 176 353 176 m 307 -97 l 471 -97 l 439 -249 l 275 -249 l 307 -97 z "},"Ồ":{"ha":978,"x_min":43,"x_max":967,"o":"m 275 1331 l 442 1331 l 494 1124 l 336 1124 l 275 1331 m 569 1156 l 738 1156 l 882 956 l 710 956 l 643 1067 l 529 956 l 342 956 l 569 1156 m 407 -14 q 139 67 235 -14 q 43 307 43 149 q 58 443 43 375 q 242 799 111 689 q 604 908 372 908 q 872 828 776 908 q 967 588 967 749 q 950 443 967 522 q 768 97 900 208 q 407 -14 636 -14 m 447 176 q 626 241 560 176 q 721 443 692 306 q 738 574 738 522 q 697 685 738 653 q 563 717 656 717 q 383 654 447 717 q 286 443 318 592 q 271 321 271 369 q 312 210 271 243 q 447 176 353 176 z "},"Ổ":{"ha":978,"x_min":43,"x_max":1099,"o":"m 831 1192 q 913 1205 889 1193 q 940 1238 936 1217 q 888 1272 949 1272 q 813 1258 850 1272 l 832 1351 q 961 1368 892 1368 q 1064 1344 1029 1368 q 1099 1278 1099 1321 q 1096 1253 1099 1269 q 969 1139 1076 1156 l 960 1093 l 810 1093 l 831 1192 m 569 1156 l 738 1156 l 882 956 l 710 956 l 643 1067 l 529 956 l 342 956 l 569 1156 m 407 -14 q 139 67 235 -14 q 43 307 43 149 q 58 443 43 375 q 242 799 111 689 q 604 908 372 908 q 872 828 776 908 q 967 588 967 749 q 950 443 967 522 q 768 97 900 208 q 407 -14 636 -14 m 447 176 q 626 241 560 176 q 721 443 692 306 q 738 574 738 522 q 697 685 738 653 q 563 717 656 717 q 383 654 447 717 q 286 443 318 592 q 271 321 271 369 q 312 210 271 243 q 447 176 353 176 z "},"Ỗ":{"ha":978,"x_min":43,"x_max":967,"o":"m 792 1208 q 736 1216 763 1208 q 672 1238 710 1224 q 617 1257 640 1250 q 569 1264 593 1264 q 431 1213 490 1264 l 457 1339 q 517 1371 481 1358 q 590 1383 554 1383 q 644 1376 619 1383 q 706 1354 668 1369 q 764 1333 742 1340 q 813 1326 786 1326 q 886 1341 853 1326 q 942 1381 919 1356 l 917 1253 q 865 1221 899 1233 q 792 1208 831 1208 m 614 956 q 467 996 521 956 q 414 1119 414 1036 q 421 1183 414 1144 l 544 1183 q 539 1139 539 1150 q 560 1085 539 1101 q 633 1068 582 1068 q 722 1099 686 1068 q 768 1183 757 1129 l 901 1183 q 804 1010 876 1065 q 614 956 732 956 m 407 -14 q 139 67 235 -14 q 43 307 43 149 q 58 443 43 375 q 242 799 111 689 q 604 908 372 908 q 872 828 776 908 q 967 588 967 749 q 950 443 967 522 q 768 97 900 208 q 407 -14 636 -14 m 447 176 q 626 241 560 176 q 721 443 692 306 q 738 574 738 522 q 697 685 738 653 q 563 717 656 717 q 383 654 447 717 q 286 443 318 592 q 271 321 271 369 q 312 210 271 243 q 447 176 353 176 z "},"Ö":{"ha":978,"x_min":43,"x_max":967,"o":"m 429 1143 l 592 1143 l 558 992 l 396 992 l 429 1143 m 714 1143 l 878 1143 l 844 992 l 681 992 l 714 1143 m 407 -14 q 139 67 235 -14 q 43 307 43 149 q 58 443 43 375 q 242 799 111 689 q 604 908 372 908 q 872 828 776 908 q 967 588 967 749 q 950 443 967 522 q 768 97 900 208 q 407 -14 636 -14 m 447 176 q 626 241 560 176 q 721 443 692 306 q 738 574 738 522 q 697 685 738 653 q 563 717 656 717 q 383 654 447 717 q 286 443 318 592 q 271 321 271 369 q 312 210 271 243 q 447 176 353 176 z "},"Ọ":{"ha":978,"x_min":43,"x_max":967,"o":"m 407 -14 q 139 67 235 -14 q 43 307 43 149 q 58 443 43 375 q 242 799 111 689 q 604 908 372 908 q 872 828 776 908 q 967 588 967 749 q 950 443 967 522 q 768 97 900 208 q 407 -14 636 -14 m 447 176 q 626 241 560 176 q 721 443 692 306 q 738 574 738 522 q 697 685 738 653 q 563 717 656 717 q 383 654 447 717 q 286 443 318 592 q 271 321 271 369 q 312 210 271 243 q 447 176 353 176 m 308 -97 l 472 -97 l 440 -249 l 276 -249 l 308 -97 z "},"Ò":{"ha":978,"x_min":43,"x_max":967,"o":"m 465 1228 l 649 1228 l 707 956 l 536 956 l 465 1228 m 407 -14 q 139 67 235 -14 q 43 307 43 149 q 58 443 43 375 q 242 799 111 689 q 604 908 372 908 q 872 828 776 908 q 967 588 967 749 q 950 443 967 522 q 768 97 900 208 q 407 -14 636 -14 m 447 176 q 626 241 560 176 q 721 443 692 306 q 738 574 738 522 q 697 685 738 653 q 563 717 656 717 q 383 654 447 717 q 286 443 318 592 q 271 321 271 369 q 312 210 271 243 q 447 176 353 176 z "},"Ỏ":{"ha":978,"x_min":43,"x_max":967,"o":"m 550 1068 q 651 1088 622 1072 q 688 1132 681 1103 q 607 1182 697 1182 q 521 1169 564 1182 l 543 1269 q 696 1289 604 1289 q 817 1260 775 1289 q 858 1179 858 1231 q 856 1151 858 1171 q 808 1063 842 1093 q 708 1017 774 1032 l 696 956 l 526 956 l 550 1068 m 407 -14 q 139 67 235 -14 q 43 307 43 149 q 58 443 43 375 q 242 799 111 689 q 604 908 372 908 q 872 828 776 908 q 967 588 967 749 q 950 443 967 522 q 768 97 900 208 q 407 -14 636 -14 m 447 176 q 626 241 560 176 q 721 443 692 306 q 738 574 738 522 q 697 685 738 653 q 563 717 656 717 q 383 654 447 717 q 286 443 318 592 q 271 321 271 369 q 312 210 271 243 q 447 176 353 176 z "},"Ơ":{"ha":1090,"x_min":43,"x_max":1210,"o":"m 407 -14 q 139 67 235 -14 q 43 307 43 149 q 58 443 43 375 q 242 799 111 689 q 604 908 372 908 q 888 813 793 908 q 998 844 963 813 q 1050 956 1033 876 l 1210 956 q 1121 760 1182 825 q 957 675 1060 696 q 967 583 967 626 q 950 443 967 521 q 768 97 900 208 q 407 -14 636 -14 m 447 176 q 626 241 560 176 q 721 443 692 306 q 738 574 738 522 q 697 685 738 653 q 563 717 656 717 q 383 654 447 717 q 286 443 318 592 q 271 321 271 369 q 312 210 271 243 q 447 176 353 176 z "},"Ớ":{"ha":1090,"x_min":43,"x_max":1210,"o":"m 704 1228 l 888 1228 l 701 956 l 529 956 l 704 1228 m 407 -14 q 139 67 235 -14 q 43 307 43 149 q 58 443 43 375 q 242 799 111 689 q 604 908 372 908 q 888 813 793 908 q 998 844 963 813 q 1050 956 1033 876 l 1210 956 q 1121 760 1182 825 q 957 675 1060 696 q 967 583 967 626 q 950 443 967 521 q 768 97 900 208 q 407 -14 636 -14 m 447 176 q 626 241 560 176 q 721 443 692 306 q 738 574 738 522 q 697 685 738 653 q 563 717 656 717 q 383 654 447 717 q 286 443 318 592 q 271 321 271 369 q 312 210 271 243 q 447 176 353 176 z "},"Ợ":{"ha":1090,"x_min":43,"x_max":1210,"o":"m 407 -14 q 139 67 235 -14 q 43 307 43 149 q 58 443 43 375 q 242 799 111 689 q 604 908 372 908 q 888 813 793 908 q 998 844 963 813 q 1050 956 1033 876 l 1210 956 q 1121 760 1182 825 q 957 675 1060 696 q 967 583 967 626 q 950 443 967 521 q 768 97 900 208 q 407 -14 636 -14 m 447 176 q 626 241 560 176 q 721 443 692 306 q 738 574 738 522 q 697 685 738 653 q 563 717 656 717 q 383 654 447 717 q 286 443 318 592 q 271 321 271 369 q 312 210 271 243 q 447 176 353 176 m 310 -97 l 474 -97 l 442 -249 l 278 -249 l 310 -97 z "},"Ờ":{"ha":1090,"x_min":43,"x_max":1210,"o":"m 481 1228 l 664 1228 l 722 956 l 551 956 l 481 1228 m 407 -14 q 139 67 235 -14 q 43 307 43 149 q 58 443 43 375 q 242 799 111 689 q 604 908 372 908 q 888 813 793 908 q 998 844 963 813 q 1050 956 1033 876 l 1210 956 q 1121 760 1182 825 q 957 675 1060 696 q 967 583 967 626 q 950 443 967 521 q 768 97 900 208 q 407 -14 636 -14 m 447 176 q 626 241 560 176 q 721 443 692 306 q 738 574 738 522 q 697 685 738 653 q 563 717 656 717 q 383 654 447 717 q 286 443 318 592 q 271 321 271 369 q 312 210 271 243 q 447 176 353 176 z "},"Ở":{"ha":1090,"x_min":43,"x_max":1210,"o":"m 554 1068 q 656 1088 626 1072 q 692 1132 685 1103 q 611 1182 701 1182 q 525 1169 568 1182 l 547 1269 q 700 1289 608 1289 q 821 1260 779 1289 q 863 1179 863 1231 q 860 1151 863 1171 q 812 1063 846 1093 q 713 1017 778 1032 l 700 956 l 531 956 l 554 1068 m 407 -14 q 139 67 235 -14 q 43 307 43 149 q 58 443 43 375 q 242 799 111 689 q 604 908 372 908 q 888 813 793 908 q 998 844 963 813 q 1050 956 1033 876 l 1210 956 q 1121 760 1182 825 q 957 675 1060 696 q 967 583 967 626 q 950 443 967 521 q 768 97 900 208 q 407 -14 636 -14 m 447 176 q 626 241 560 176 q 721 443 692 306 q 738 574 738 522 q 697 685 738 653 q 563 717 656 717 q 383 654 447 717 q 286 443 318 592 q 271 321 271 369 q 312 210 271 243 q 447 176 353 176 z "},"Ỡ":{"ha":1090,"x_min":43,"x_max":1210,"o":"m 750 964 q 692 972 719 964 q 628 994 664 979 q 572 1014 596 1007 q 525 1021 549 1021 q 383 968 447 1021 l 415 1117 q 477 1149 440 1136 q 551 1161 514 1161 q 606 1154 582 1161 q 668 1132 631 1147 q 727 1111 704 1118 q 776 1104 750 1104 q 908 1158 858 1104 l 876 1008 q 824 976 858 989 q 750 964 789 964 m 407 -14 q 139 67 235 -14 q 43 307 43 149 q 58 443 43 375 q 242 799 111 689 q 604 908 372 908 q 888 813 793 908 q 998 844 963 813 q 1050 956 1033 876 l 1210 956 q 1121 760 1182 825 q 957 675 1060 696 q 967 583 967 626 q 950 443 967 521 q 768 97 900 208 q 407 -14 636 -14 m 447 176 q 626 241 560 176 q 721 443 692 306 q 738 574 738 522 q 697 685 738 653 q 563 717 656 717 q 383 654 447 717 q 286 443 318 592 q 271 321 271 369 q 312 210 271 243 q 447 176 353 176 z "},"Ő":{"ha":978,"x_min":43,"x_max":1010,"o":"m 497 1206 l 689 1206 l 503 956 l 331 956 l 497 1206 m 817 1206 l 1010 1206 l 822 956 l 650 956 l 817 1206 m 407 -14 q 139 67 235 -14 q 43 307 43 149 q 58 443 43 375 q 242 799 111 689 q 604 908 372 908 q 872 828 776 908 q 967 588 967 749 q 950 443 967 522 q 768 97 900 208 q 407 -14 636 -14 m 447 176 q 626 241 560 176 q 721 443 692 306 q 738 574 738 522 q 697 685 738 653 q 563 717 656 717 q 383 654 447 717 q 286 443 318 592 q 271 321 271 369 q 312 210 271 243 q 447 176 353 176 z "},"Ō":{"ha":978,"x_min":43,"x_max":967,"o":"m 429 1140 l 869 1140 l 840 1006 l 400 1006 l 429 1140 m 407 -14 q 139 67 235 -14 q 43 307 43 149 q 58 443 43 375 q 242 799 111 689 q 604 908 372 908 q 872 828 776 908 q 967 588 967 749 q 950 443 967 522 q 768 97 900 208 q 407 -14 636 -14 m 447 176 q 626 241 560 176 q 721 443 692 306 q 738 574 738 522 q 697 685 738 653 q 563 717 656 717 q 383 654 447 717 q 286 443 318 592 q 271 321 271 369 q 312 210 271 243 q 447 176 353 176 z "},"Ø":{"ha":978,"x_min":42,"x_max":967,"o":"m 186 33 q 79 140 117 72 q 42 306 42 208 q 58 443 42 368 q 242 799 111 689 q 604 908 372 908 q 707 900 658 908 l 744 963 l 868 963 l 811 867 q 967 586 967 792 q 950 443 967 522 q 768 97 900 208 q 407 -14 636 -14 q 288 -3 346 -14 l 246 -74 l 122 -74 l 186 33 m 596 715 l 563 717 q 383 654 447 717 q 286 443 318 592 q 271 321 271 367 q 300 222 271 253 l 596 715 m 447 176 q 626 241 560 176 q 721 443 692 306 q 738 575 738 522 q 700 682 738 650 l 397 179 q 447 176 413 176 z "},"Ǿ":{"ha":978,"x_min":42,"x_max":967,"o":"m 657 1228 l 840 1228 l 654 956 l 482 956 l 657 1228 m 186 33 q 79 140 117 72 q 42 306 42 208 q 58 443 42 368 q 242 799 111 689 q 604 908 372 908 q 707 900 658 908 l 744 963 l 868 963 l 811 867 q 967 586 967 792 q 950 443 967 522 q 768 97 900 208 q 407 -14 636 -14 q 288 -3 346 -14 l 246 -74 l 122 -74 l 186 33 m 596 715 l 563 717 q 383 654 447 717 q 286 443 318 592 q 271 321 271 367 q 300 222 271 253 l 596 715 m 447 176 q 626 241 560 176 q 721 443 692 306 q 738 575 738 522 q 700 682 738 650 l 397 179 q 447 176 413 176 z "},"Õ":{"ha":978,"x_min":43,"x_max":967,"o":"m 747 986 q 690 994 718 986 q 625 1017 661 1001 q 569 1036 593 1029 q 522 1043 546 1043 q 381 990 444 1043 l 413 1139 q 474 1171 438 1158 q 549 1183 511 1183 q 603 1176 579 1183 q 665 1154 628 1169 q 724 1133 701 1140 q 774 1126 747 1126 q 906 1181 856 1126 l 874 1031 q 821 999 856 1011 q 747 986 786 986 m 407 -14 q 139 67 235 -14 q 43 307 43 149 q 58 443 43 375 q 242 799 111 689 q 604 908 372 908 q 872 828 776 908 q 967 588 967 749 q 950 443 967 522 q 768 97 900 208 q 407 -14 636 -14 m 447 176 q 626 241 560 176 q 721 443 692 306 q 738 574 738 522 q 697 685 738 653 q 563 717 656 717 q 383 654 447 717 q 286 443 318 592 q 271 321 271 369 q 312 210 271 243 q 447 176 353 176 z "},"Œ":{"ha":1410,"x_min":43,"x_max":1478,"o":"m 407 -14 q 139 67 235 -14 q 43 307 43 149 q 58 443 43 375 q 242 799 111 689 q 604 908 372 908 q 811 858 722 908 l 818 894 l 1478 894 l 1442 722 l 1006 722 l 965 535 l 1350 535 l 1314 360 l 929 360 l 889 172 l 1325 172 l 1289 0 l 629 0 l 636 32 q 532 -1 593 11 q 407 -14 471 -14 m 447 176 q 626 241 560 176 q 721 443 692 306 q 738 574 738 522 q 697 685 738 653 q 563 717 656 717 q 383 654 447 717 q 286 443 318 592 q 271 321 271 369 q 312 210 271 243 q 447 176 353 176 z "},"P":{"ha":842,"x_min":-7,"x_max":875,"o":"m 182 894 l 610 894 q 807 826 739 894 q 875 649 875 758 q 868 575 875 607 q 743 344 839 426 q 490 263 647 263 l 272 263 l 217 0 l -7 0 l 182 894 m 469 435 q 588 472 547 435 q 642 576 628 508 q 649 635 649 614 q 623 701 649 681 q 538 722 597 722 l 369 722 l 308 435 l 469 435 z "},"Þ":{"ha":842,"x_min":-7,"x_max":850,"o":"m 182 894 l 406 894 l 378 760 l 594 760 q 783 695 717 760 q 850 522 850 631 q 842 444 850 486 q 710 217 810 301 q 456 132 611 132 l 244 132 l 217 0 l -7 0 l 182 894 m 442 304 q 558 340 517 304 q 614 444 600 376 q 621 500 621 479 q 595 566 621 544 q 508 588 569 588 l 340 588 l 281 304 l 442 304 z "},"Q":{"ha":978,"x_min":42,"x_max":967,"o":"m 513 -239 q 358 -200 407 -239 q 308 -81 308 -161 q 317 -7 308 -47 q 114 91 186 13 q 42 306 42 169 q 58 443 42 368 q 242 799 111 689 q 604 908 372 908 q 872 828 776 908 q 967 588 967 749 q 950 443 967 522 q 800 127 907 238 q 515 -7 693 17 q 510 -43 510 -28 q 524 -76 510 -67 q 571 -85 538 -85 q 660 -74 613 -85 l 628 -225 q 572 -235 607 -231 q 513 -239 538 -239 m 447 176 q 626 241 560 176 q 721 443 692 306 q 738 574 738 522 q 697 685 738 653 q 563 717 656 717 q 383 654 447 717 q 286 443 318 592 q 271 321 271 369 q 312 210 271 243 q 447 176 353 176 z "},"R":{"ha":869,"x_min":-7,"x_max":881,"o":"m 182 894 l 629 894 q 812 832 743 894 q 881 663 881 769 q 872 588 881 628 q 794 430 854 499 q 647 328 733 361 q 669 294 661 313 q 685 242 678 276 l 740 0 l 507 0 l 454 228 q 431 272 447 260 q 379 283 415 283 l 276 283 l 217 0 l -7 0 l 182 894 m 478 456 q 588 489 544 456 q 644 588 631 522 q 651 644 651 625 q 627 703 651 685 q 544 722 603 722 l 369 722 l 313 456 l 478 456 z "},"Ŕ":{"ha":869,"x_min":-7,"x_max":881,"o":"m 588 1228 l 771 1228 l 585 956 l 413 956 l 588 1228 m 182 894 l 629 894 q 812 832 743 894 q 881 663 881 769 q 872 588 881 628 q 794 430 854 499 q 647 328 733 361 q 669 294 661 313 q 685 242 678 276 l 740 0 l 507 0 l 454 228 q 431 272 447 260 q 379 283 415 283 l 276 283 l 217 0 l -7 0 l 182 894 m 478 456 q 588 489 544 456 q 644 588 631 522 q 651 644 651 625 q 627 703 651 685 q 544 722 603 722 l 369 722 l 313 456 l 478 456 z "},"Ř":{"ha":869,"x_min":-7,"x_max":881,"o":"m 303 1215 l 464 1215 l 533 1071 l 668 1215 l 843 1215 l 586 956 l 447 956 l 303 1215 m 182 894 l 629 894 q 812 832 743 894 q 881 663 881 769 q 872 588 881 628 q 794 430 854 499 q 647 328 733 361 q 669 294 661 313 q 685 242 678 276 l 740 0 l 507 0 l 454 228 q 431 272 447 260 q 379 283 415 283 l 276 283 l 217 0 l -7 0 l 182 894 m 478 456 q 588 489 544 456 q 644 588 631 522 q 651 644 651 625 q 627 703 651 685 q 544 722 603 722 l 369 722 l 313 456 l 478 456 z "},"Ŗ":{"ha":869,"x_min":-7,"x_max":881,"o":"m 182 894 l 629 894 q 812 832 743 894 q 881 663 881 769 q 872 588 881 628 q 794 430 854 499 q 647 328 733 361 q 669 294 661 313 q 685 242 678 276 l 740 0 l 507 0 l 454 228 q 431 272 447 260 q 379 283 415 283 l 276 283 l 217 0 l -7 0 l 182 894 m 478 456 q 588 489 544 456 q 644 588 631 522 q 651 644 651 625 q 627 703 651 685 q 544 722 603 722 l 369 722 l 313 456 l 478 456 m 244 -51 l 424 -51 l 286 -347 l 136 -347 l 244 -51 z "},"Ṛ":{"ha":869,"x_min":-7,"x_max":881,"o":"m 182 894 l 629 894 q 812 832 743 894 q 881 663 881 769 q 872 588 881 628 q 794 430 854 499 q 647 328 733 361 q 669 294 661 313 q 685 242 678 276 l 740 0 l 507 0 l 454 228 q 431 272 447 260 q 379 283 415 283 l 276 283 l 217 0 l -7 0 l 182 894 m 478 456 q 588 489 544 456 q 644 588 631 522 q 651 644 651 625 q 627 703 651 685 q 544 722 603 722 l 369 722 l 313 456 l 478 456 m 242 -97 l 406 -97 l 374 -249 l 210 -249 l 242 -97 z "},"Ṝ":{"ha":869,"x_min":-7,"x_max":881,"o":"m 328 1131 l 768 1131 l 739 996 l 299 996 l 328 1131 m 182 894 l 629 894 q 812 832 743 894 q 881 663 881 769 q 872 588 881 628 q 794 430 854 499 q 647 328 733 361 q 669 294 661 313 q 685 242 678 276 l 740 0 l 507 0 l 454 228 q 431 272 447 260 q 379 283 415 283 l 276 283 l 217 0 l -7 0 l 182 894 m 478 456 q 588 489 544 456 q 644 588 631 522 q 651 644 651 625 q 627 703 651 685 q 544 722 603 722 l 369 722 l 313 456 l 478 456 m 242 -97 l 406 -97 l 374 -249 l 210 -249 l 242 -97 z "},"Ṟ":{"ha":869,"x_min":-7,"x_max":881,"o":"m 182 894 l 629 894 q 812 832 743 894 q 881 663 881 769 q 872 588 881 628 q 794 430 854 499 q 647 328 733 361 q 669 294 661 313 q 685 242 678 276 l 740 0 l 507 0 l 454 228 q 431 272 447 260 q 379 283 415 283 l 276 283 l 217 0 l -7 0 l 182 894 m 478 456 q 588 489 544 456 q 644 588 631 522 q 651 644 651 625 q 627 703 651 685 q 544 722 603 722 l 369 722 l 313 456 l 478 456 m 96 -94 l 536 -94 l 507 -231 l 67 -231 l 96 -94 z "},"S":{"ha":771,"x_min":-14,"x_max":783,"o":"m 274 -14 q 110 -1 185 -14 q -14 38 36 13 l 26 228 q 154 184 83 200 q 290 168 225 168 q 422 184 381 168 q 474 250 463 200 q 476 271 476 264 q 458 313 476 296 q 406 342 440 329 q 293 381 371 356 q 140 459 186 414 q 93 575 93 504 q 101 644 93 607 q 235 841 129 774 q 521 908 342 908 q 667 897 594 908 q 783 869 739 886 l 742 678 q 514 724 636 724 q 385 708 429 724 q 329 646 340 692 q 326 628 326 632 q 342 592 326 606 q 391 566 358 578 q 492 535 424 554 q 662 449 613 500 q 711 324 711 399 q 703 250 711 290 q 567 57 676 128 q 274 -14 457 -14 z "},"Ś":{"ha":771,"x_min":-14,"x_max":783,"o":"m 581 1229 l 764 1229 l 578 957 l 406 957 l 581 1229 m 274 -14 q 110 -1 185 -14 q -14 38 36 13 l 26 228 q 154 184 83 200 q 290 168 225 168 q 422 184 381 168 q 474 250 463 200 q 476 271 476 264 q 458 313 476 296 q 406 342 440 329 q 293 381 371 356 q 140 459 186 414 q 93 575 93 504 q 101 644 93 607 q 235 841 129 774 q 521 908 342 908 q 667 897 594 908 q 783 869 739 886 l 742 678 q 514 724 636 724 q 385 708 429 724 q 329 646 340 692 q 326 628 326 632 q 342 592 326 606 q 391 566 358 578 q 492 535 424 554 q 662 449 613 500 q 711 324 711 399 q 703 250 711 290 q 567 57 676 128 q 274 -14 457 -14 z "},"Š":{"ha":771,"x_min":-14,"x_max":833,"o":"m 293 1215 l 454 1215 l 524 1071 l 658 1215 l 833 1215 l 576 956 l 438 956 l 293 1215 m 274 -14 q 110 -1 185 -14 q -14 38 36 13 l 26 228 q 154 184 83 200 q 290 168 225 168 q 422 184 381 168 q 474 250 463 200 q 476 271 476 264 q 458 313 476 296 q 406 342 440 329 q 293 381 371 356 q 140 459 186 414 q 93 575 93 504 q 101 644 93 607 q 235 841 129 774 q 521 908 342 908 q 667 897 594 908 q 783 869 739 886 l 742 678 q 514 724 636 724 q 385 708 429 724 q 329 646 340 692 q 326 628 326 632 q 342 592 326 606 q 391 566 358 578 q 492 535 424 554 q 662 449 613 500 q 711 324 711 399 q 703 250 711 290 q 567 57 676 128 q 274 -14 457 -14 z "},"Ş":{"ha":771,"x_min":-14,"x_max":783,"o":"m 203 -333 q 144 -330 179 -333 q 96 -322 110 -326 l 117 -224 q 199 -235 154 -235 q 283 -225 258 -235 q 314 -186 308 -215 q 315 -174 315 -182 q 296 -145 315 -151 q 233 -139 276 -139 l 158 -139 l 221 -12 q -14 38 67 -4 l 26 228 q 154 184 83 200 q 290 168 225 168 q 422 184 381 168 q 474 250 463 200 q 476 271 476 264 q 458 313 476 296 q 406 342 440 329 q 293 381 371 356 q 140 459 186 414 q 93 575 93 504 q 101 644 93 607 q 235 841 129 774 q 521 908 342 908 q 667 897 594 908 q 783 869 739 886 l 742 678 q 514 724 636 724 q 385 708 429 724 q 329 646 340 692 q 326 628 326 632 q 342 592 326 606 q 391 566 358 578 q 492 535 424 554 q 662 449 613 500 q 711 324 711 399 q 703 250 711 290 q 591 74 679 142 q 356 -10 503 6 l 326 -60 q 423 -85 392 -60 q 454 -157 454 -111 q 451 -189 454 -178 q 374 -296 436 -258 q 203 -333 311 -333 z "},"Ŝ":{"ha":771,"x_min":-14,"x_max":783,"o":"m 481 1217 l 619 1217 l 765 957 l 607 957 l 533 1101 l 403 957 l 225 957 l 481 1217 m 274 -14 q 110 -1 185 -14 q -14 38 36 13 l 26 228 q 154 184 83 200 q 290 168 225 168 q 422 184 381 168 q 474 250 463 200 q 476 271 476 264 q 458 313 476 296 q 406 342 440 329 q 293 381 371 356 q 140 459 186 414 q 93 575 93 504 q 101 644 93 607 q 235 841 129 774 q 521 908 342 908 q 667 897 594 908 q 783 869 739 886 l 742 678 q 514 724 636 724 q 385 708 429 724 q 329 646 340 692 q 326 628 326 632 q 342 592 326 606 q 391 566 358 578 q 492 535 424 554 q 662 449 613 500 q 711 324 711 399 q 703 250 711 290 q 567 57 676 128 q 274 -14 457 -14 z "},"Ș":{"ha":771,"x_min":-14,"x_max":783,"o":"m 274 -14 q 110 -1 185 -14 q -14 38 36 13 l 26 228 q 154 184 83 200 q 290 168 225 168 q 422 184 381 168 q 474 250 463 200 q 476 271 476 264 q 458 313 476 296 q 406 342 440 329 q 293 381 371 356 q 140 459 186 414 q 93 575 93 504 q 101 644 93 607 q 235 841 129 774 q 521 908 342 908 q 667 897 594 908 q 783 869 739 886 l 742 678 q 514 724 636 724 q 385 708 429 724 q 329 646 340 692 q 326 628 326 632 q 342 592 326 606 q 391 566 358 578 q 492 535 424 554 q 662 449 613 500 q 711 324 711 399 q 703 250 711 290 q 567 57 676 128 q 274 -14 457 -14 m 211 -62 l 394 -62 l 278 -321 l 114 -321 l 211 -62 z "},"Ṡ":{"ha":771,"x_min":-14,"x_max":783,"o":"m 460 1143 l 622 1143 l 589 992 l 426 992 l 460 1143 m 274 -14 q 110 -1 185 -14 q -14 38 36 13 l 26 228 q 154 184 83 200 q 290 168 225 168 q 422 184 381 168 q 474 250 463 200 q 476 271 476 264 q 458 313 476 296 q 406 342 440 329 q 293 381 371 356 q 140 459 186 414 q 93 575 93 504 q 101 644 93 607 q 235 841 129 774 q 521 908 342 908 q 667 897 594 908 q 783 869 739 886 l 742 678 q 514 724 636 724 q 385 708 429 724 q 329 646 340 692 q 326 628 326 632 q 342 592 326 606 q 391 566 358 578 q 492 535 424 554 q 662 449 613 500 q 711 324 711 399 q 703 250 711 290 q 567 57 676 128 q 274 -14 457 -14 z "},"Ṣ":{"ha":771,"x_min":-14,"x_max":783,"o":"m 274 -14 q 110 -1 185 -14 q -14 38 36 13 l 26 228 q 154 184 83 200 q 290 168 225 168 q 422 184 381 168 q 474 250 463 200 q 476 271 476 264 q 458 313 476 296 q 406 342 440 329 q 293 381 371 356 q 140 459 186 414 q 93 575 93 504 q 101 644 93 607 q 235 841 129 774 q 521 908 342 908 q 667 897 594 908 q 783 869 739 886 l 742 678 q 514 724 636 724 q 385 708 429 724 q 329 646 340 692 q 326 628 326 632 q 342 592 326 606 q 391 566 358 578 q 492 535 424 554 q 662 449 613 500 q 711 324 711 399 q 703 250 711 290 q 567 57 676 128 q 274 -14 457 -14 m 197 -97 l 361 -97 l 329 -249 l 165 -249 l 197 -97 z "},"ẞ":{"ha":879,"x_min":-14,"x_max":861,"o":"m 469 -14 q 282 17 356 -14 l 318 189 q 381 169 344 176 q 454 163 418 163 q 550 185 519 163 q 592 258 581 208 q 594 281 594 275 q 497 340 594 340 l 382 340 l 414 492 l 651 632 q 653 647 653 638 q 618 700 653 681 q 514 719 583 719 q 378 684 421 719 q 318 572 335 649 l 197 0 l -14 0 l 107 574 q 255 820 142 732 q 554 908 368 908 q 785 844 710 908 q 861 671 861 779 q 853 593 861 633 l 624 458 l 654 458 q 772 415 728 458 q 817 300 817 371 q 811 250 817 272 q 692 58 785 131 q 469 -14 600 -14 z "},"Ə":{"ha":950,"x_min":33,"x_max":935,"o":"m 381 -14 q 125 64 217 -14 q 33 279 33 142 q 44 376 33 321 l 79 540 l 733 540 q 738 593 738 569 q 711 685 738 651 q 624 732 685 718 q 458 746 564 746 q 305 729 393 746 q 160 690 217 713 l 193 849 q 360 892 268 875 q 542 908 453 908 q 831 817 728 908 q 935 561 935 726 q 921 435 935 500 q 748 101 875 215 q 381 -14 621 -14 m 414 139 q 604 199 535 139 q 700 382 674 260 l 243 382 l 231 326 q 224 268 224 292 q 268 172 224 204 q 414 139 313 139 z "},"T":{"ha":779,"x_min":90,"x_max":875,"o":"m 353 722 l 90 722 l 126 894 l 875 894 l 839 722 l 576 722 l 424 0 l 200 0 l 353 722 z "},"Ŧ":{"ha":781,"x_min":90,"x_max":875,"o":"m 282 388 l 135 388 l 168 544 l 315 544 l 353 722 l 90 722 l 126 894 l 875 894 l 839 722 l 576 722 l 539 544 l 690 544 l 657 388 l 506 388 l 424 0 l 200 0 l 282 388 z "},"Ť":{"ha":781,"x_min":90,"x_max":875,"o":"m 299 1215 l 460 1215 l 529 1071 l 664 1215 l 839 1215 l 582 956 l 443 956 l 299 1215 m 353 722 l 90 722 l 126 894 l 875 894 l 839 722 l 576 722 l 424 0 l 200 0 l 353 722 z "},"Ţ":{"ha":781,"x_min":90,"x_max":875,"o":"m 218 -333 q 160 -330 194 -333 q 111 -322 125 -326 l 132 -224 q 214 -235 169 -235 q 299 -225 274 -235 q 329 -186 324 -215 q 331 -174 331 -182 q 311 -145 331 -151 q 249 -139 292 -139 l 174 -139 l 243 0 l 200 0 l 353 722 l 90 722 l 126 894 l 875 894 l 839 722 l 576 722 l 424 0 l 376 0 l 342 -60 q 438 -85 407 -60 q 469 -157 469 -111 q 467 -189 469 -178 q 389 -296 451 -258 q 218 -333 326 -333 z "},"Ț":{"ha":781,"x_min":90,"x_max":875,"o":"m 353 722 l 90 722 l 126 894 l 875 894 l 839 722 l 576 722 l 424 0 l 200 0 l 353 722 m 214 -62 l 393 -62 l 256 -358 l 106 -358 l 214 -62 z "},"Ṭ":{"ha":781,"x_min":90,"x_max":875,"o":"m 353 722 l 90 722 l 126 894 l 875 894 l 839 722 l 576 722 l 424 0 l 200 0 l 353 722 m 207 -90 l 371 -90 l 339 -242 l 175 -242 l 207 -90 z "},"Ṯ":{"ha":781,"x_min":42,"x_max":875,"o":"m 353 722 l 90 722 l 126 894 l 875 894 l 839 722 l 576 722 l 424 0 l 200 0 l 353 722 m 71 -87 l 511 -87 l 482 -224 l 42 -224 l 71 -87 z "},"U":{"ha":950,"x_min":50,"x_max":997,"o":"m 393 -14 q 215 20 293 -14 q 94 118 138 54 q 50 267 50 182 q 58 340 50 301 l 175 894 l 399 894 l 286 361 q 278 294 278 324 q 315 206 278 235 q 433 176 351 176 q 588 221 535 176 q 661 361 640 265 l 774 894 l 997 894 l 881 340 q 719 74 843 161 q 393 -14 594 -14 z "},"Ú":{"ha":950,"x_min":50,"x_max":997,"o":"m 685 1228 l 868 1228 l 682 956 l 510 956 l 685 1228 m 393 -14 q 215 20 293 -14 q 94 118 138 54 q 50 267 50 182 q 58 340 50 301 l 175 894 l 399 894 l 286 361 q 278 294 278 324 q 315 206 278 235 q 433 176 351 176 q 588 221 535 176 q 661 361 640 265 l 774 894 l 997 894 l 881 340 q 719 74 843 161 q 393 -14 594 -14 z "},"Ŭ":{"ha":950,"x_min":50,"x_max":997,"o":"m 593 956 q 449 1001 501 956 q 397 1131 397 1047 q 404 1194 397 1157 l 542 1194 q 536 1149 536 1172 q 611 1081 536 1081 q 690 1112 660 1081 q 731 1194 721 1143 l 886 1194 q 787 1017 863 1079 q 593 956 711 956 m 393 -14 q 215 20 293 -14 q 94 118 138 54 q 50 267 50 182 q 58 340 50 301 l 175 894 l 399 894 l 286 361 q 278 294 278 324 q 315 206 278 235 q 433 176 351 176 q 588 221 535 176 q 661 361 640 265 l 774 894 l 997 894 l 881 340 q 719 74 843 161 q 393 -14 594 -14 z "},"Ǔ":{"ha":950,"x_min":50,"x_max":997,"o":"m 383 1215 l 544 1215 l 614 1071 l 749 1215 l 924 1215 l 667 956 l 528 956 l 383 1215 m 393 -14 q 215 20 293 -14 q 94 118 138 54 q 50 267 50 182 q 58 340 50 301 l 175 894 l 399 894 l 286 361 q 278 294 278 324 q 315 206 278 235 q 433 176 351 176 q 588 221 535 176 q 661 361 640 265 l 774 894 l 997 894 l 881 340 q 719 74 843 161 q 393 -14 594 -14 z "},"Û":{"ha":950,"x_min":50,"x_max":997,"o":"m 585 1214 l 724 1214 l 869 954 l 711 954 l 638 1099 l 507 954 l 329 954 l 585 1214 m 393 -14 q 215 20 293 -14 q 94 118 138 54 q 50 267 50 182 q 58 340 50 301 l 175 894 l 399 894 l 286 361 q 278 294 278 324 q 315 206 278 235 q 433 176 351 176 q 588 221 535 176 q 661 361 640 265 l 774 894 l 997 894 l 881 340 q 719 74 843 161 q 393 -14 594 -14 z "},"Ü":{"ha":950,"x_min":50,"x_max":997,"o":"m 415 1143 l 578 1143 l 544 992 l 382 992 l 415 1143 m 700 1143 l 864 1143 l 831 992 l 667 992 l 700 1143 m 393 -14 q 215 20 293 -14 q 94 118 138 54 q 50 267 50 182 q 58 340 50 301 l 175 894 l 399 894 l 286 361 q 278 294 278 324 q 315 206 278 235 q 433 176 351 176 q 588 221 535 176 q 661 361 640 265 l 774 894 l 997 894 l 881 340 q 719 74 843 161 q 393 -14 594 -14 z "},"Ǘ":{"ha":950,"x_min":50,"x_max":997,"o":"m 676 1317 l 844 1317 l 710 1132 l 556 1132 l 676 1317 m 407 1100 l 565 1100 l 535 957 l 376 957 l 407 1100 m 696 1100 l 854 1100 l 824 957 l 665 957 l 696 1100 m 393 -14 q 215 20 293 -14 q 94 118 138 54 q 50 267 50 182 q 58 340 50 301 l 175 894 l 399 894 l 286 361 q 278 294 278 324 q 315 206 278 235 q 433 176 351 176 q 588 221 535 176 q 661 361 640 265 l 774 894 l 997 894 l 881 340 q 719 74 843 161 q 393 -14 594 -14 z "},"Ǚ":{"ha":950,"x_min":50,"x_max":997,"o":"m 432 1304 l 589 1304 l 647 1203 l 747 1304 l 917 1304 l 715 1128 l 561 1128 l 432 1304 m 407 1099 l 565 1099 l 535 956 l 376 956 l 407 1099 m 696 1099 l 853 1099 l 822 956 l 665 956 l 696 1099 m 393 -14 q 215 20 293 -14 q 94 118 138 54 q 50 267 50 182 q 58 340 50 301 l 175 894 l 399 894 l 286 361 q 278 294 278 324 q 315 206 278 235 q 433 176 351 176 q 588 221 535 176 q 661 361 640 265 l 774 894 l 997 894 l 881 340 q 719 74 843 161 q 393 -14 594 -14 z "},"Ǜ":{"ha":950,"x_min":50,"x_max":997,"o":"m 508 1315 l 676 1315 l 717 1131 l 563 1131 l 508 1315 m 407 1099 l 565 1099 l 535 956 l 376 956 l 407 1099 m 696 1099 l 854 1099 l 824 956 l 665 956 l 696 1099 m 393 -14 q 215 20 293 -14 q 94 118 138 54 q 50 267 50 182 q 58 340 50 301 l 175 894 l 399 894 l 286 361 q 278 294 278 324 q 315 206 278 235 q 433 176 351 176 q 588 221 535 176 q 661 361 640 265 l 774 894 l 997 894 l 881 340 q 719 74 843 161 q 393 -14 594 -14 z "},"Ǖ":{"ha":950,"x_min":50,"x_max":997,"o":"m 456 1321 l 896 1321 l 867 1186 l 426 1186 l 456 1321 m 408 1107 l 571 1107 l 538 956 l 375 956 l 408 1107 m 693 1107 l 857 1107 l 824 956 l 660 956 l 693 1107 m 393 -14 q 215 20 293 -14 q 94 118 138 54 q 50 267 50 182 q 58 340 50 301 l 175 894 l 399 894 l 286 361 q 278 294 278 324 q 315 206 278 235 q 433 176 351 176 q 588 221 535 176 q 661 361 640 265 l 774 894 l 997 894 l 881 340 q 719 74 843 161 q 393 -14 594 -14 z "},"Ụ":{"ha":950,"x_min":50,"x_max":997,"o":"m 393 -14 q 215 20 293 -14 q 94 118 138 54 q 50 267 50 182 q 58 340 50 301 l 175 894 l 399 894 l 286 361 q 278 294 278 324 q 315 206 278 235 q 433 176 351 176 q 588 221 535 176 q 661 361 640 265 l 774 894 l 997 894 l 881 340 q 719 74 843 161 q 393 -14 594 -14 m 293 -97 l 457 -97 l 425 -249 l 261 -249 l 293 -97 z "},"Ù":{"ha":950,"x_min":50,"x_max":997,"o":"m 456 1228 l 639 1228 l 697 956 l 526 956 l 456 1228 m 393 -14 q 215 20 293 -14 q 94 118 138 54 q 50 267 50 182 q 58 340 50 301 l 175 894 l 399 894 l 286 361 q 278 294 278 324 q 315 206 278 235 q 433 176 351 176 q 588 221 535 176 q 661 361 640 265 l 774 894 l 997 894 l 881 340 q 719 74 843 161 q 393 -14 594 -14 z "},"Ủ":{"ha":950,"x_min":50,"x_max":997,"o":"m 538 1068 q 639 1088 610 1072 q 675 1132 668 1103 q 594 1182 685 1182 q 508 1169 551 1182 l 531 1269 q 683 1289 592 1289 q 804 1260 763 1289 q 846 1179 846 1231 q 843 1151 846 1171 q 795 1063 829 1093 q 696 1017 761 1032 l 683 956 l 514 956 l 538 1068 m 393 -14 q 215 20 293 -14 q 94 118 138 54 q 50 267 50 182 q 58 340 50 301 l 175 894 l 399 894 l 286 361 q 278 294 278 324 q 315 206 278 235 q 433 176 351 176 q 588 221 535 176 q 661 361 640 265 l 774 894 l 997 894 l 881 340 q 719 74 843 161 q 393 -14 594 -14 z "},"Ư":{"ha":1186,"x_min":50,"x_max":1296,"o":"m 393 -14 q 215 20 293 -14 q 94 118 138 54 q 50 267 50 182 q 58 340 50 301 l 175 894 l 399 894 l 286 361 q 278 294 278 324 q 315 206 278 235 q 433 176 351 176 q 588 221 535 176 q 661 361 640 265 l 774 894 l 997 894 l 979 813 q 1084 847 1049 815 q 1136 956 1119 878 l 1296 956 q 1231 785 1272 847 q 1121 694 1189 722 q 949 665 1053 667 l 881 340 q 719 74 843 161 q 393 -14 594 -14 z "},"Ứ":{"ha":1186,"x_min":50,"x_max":1296,"o":"m 686 1228 l 869 1228 l 683 956 l 511 956 l 686 1228 m 393 -14 q 215 20 293 -14 q 94 118 138 54 q 50 267 50 182 q 58 340 50 301 l 175 894 l 399 894 l 286 361 q 278 294 278 324 q 315 206 278 235 q 433 176 351 176 q 588 221 535 176 q 661 361 640 265 l 774 894 l 997 894 l 979 813 q 1084 847 1049 815 q 1136 956 1119 878 l 1296 956 q 1231 785 1272 847 q 1121 694 1189 722 q 949 665 1053 667 l 881 340 q 719 74 843 161 q 393 -14 594 -14 z "},"Ự":{"ha":1186,"x_min":50,"x_max":1296,"o":"m 393 -14 q 215 20 293 -14 q 94 118 138 54 q 50 267 50 182 q 58 340 50 301 l 175 894 l 399 894 l 286 361 q 278 294 278 324 q 315 206 278 235 q 433 176 351 176 q 588 221 535 176 q 661 361 640 265 l 774 894 l 997 894 l 979 813 q 1084 847 1049 815 q 1136 956 1119 878 l 1296 956 q 1231 785 1272 847 q 1121 694 1189 722 q 949 665 1053 667 l 881 340 q 719 74 843 161 q 393 -14 594 -14 m 296 -97 l 460 -97 l 428 -249 l 264 -249 l 296 -97 z "},"Ừ":{"ha":1186,"x_min":50,"x_max":1296,"o":"m 454 1228 l 638 1228 l 696 956 l 525 956 l 454 1228 m 393 -14 q 215 20 293 -14 q 94 118 138 54 q 50 267 50 182 q 58 340 50 301 l 175 894 l 399 894 l 286 361 q 278 294 278 324 q 315 206 278 235 q 433 176 351 176 q 588 221 535 176 q 661 361 640 265 l 774 894 l 997 894 l 979 813 q 1084 847 1049 815 q 1136 956 1119 878 l 1296 956 q 1231 785 1272 847 q 1121 694 1189 722 q 949 665 1053 667 l 881 340 q 719 74 843 161 q 393 -14 594 -14 z "},"Ử":{"ha":1186,"x_min":50,"x_max":1296,"o":"m 522 1068 q 624 1088 594 1072 q 660 1132 653 1103 q 579 1182 669 1182 q 493 1169 536 1182 l 515 1269 q 668 1289 576 1289 q 789 1260 747 1289 q 831 1179 831 1231 q 828 1151 831 1171 q 780 1063 814 1093 q 681 1017 746 1032 l 668 956 l 499 956 l 522 1068 m 393 -14 q 215 20 293 -14 q 94 118 138 54 q 50 267 50 182 q 58 340 50 301 l 175 894 l 399 894 l 286 361 q 278 294 278 324 q 315 206 278 235 q 433 176 351 176 q 588 221 535 176 q 661 361 640 265 l 774 894 l 997 894 l 979 813 q 1084 847 1049 815 q 1136 956 1119 878 l 1296 956 q 1231 785 1272 847 q 1121 694 1189 722 q 949 665 1053 667 l 881 340 q 719 74 843 161 q 393 -14 594 -14 z "},"Ữ":{"ha":1186,"x_min":50,"x_max":1296,"o":"m 731 964 q 673 972 701 964 q 608 994 644 979 q 553 1014 576 1007 q 506 1021 529 1021 q 364 968 428 1021 l 396 1117 q 458 1149 421 1136 q 532 1161 494 1161 q 587 1154 563 1161 q 649 1132 611 1147 q 708 1111 685 1118 q 757 1104 731 1104 q 889 1158 839 1104 l 857 1008 q 804 976 839 989 q 731 964 769 964 m 393 -14 q 215 20 293 -14 q 94 118 138 54 q 50 267 50 182 q 58 340 50 301 l 175 894 l 399 894 l 286 361 q 278 294 278 324 q 315 206 278 235 q 433 176 351 176 q 588 221 535 176 q 661 361 640 265 l 774 894 l 997 894 l 979 813 q 1084 847 1049 815 q 1136 956 1119 878 l 1296 956 q 1231 785 1272 847 q 1121 694 1189 722 q 949 665 1053 667 l 881 340 q 719 74 843 161 q 393 -14 594 -14 z "},"Ű":{"ha":950,"x_min":50,"x_max":1001,"o":"m 489 1204 l 681 1204 l 494 954 l 322 954 l 489 1204 m 808 1204 l 1001 1204 l 814 954 l 642 954 l 808 1204 m 393 -14 q 215 20 293 -14 q 94 118 138 54 q 50 267 50 182 q 58 340 50 301 l 175 894 l 399 894 l 286 361 q 278 294 278 324 q 315 206 278 235 q 433 176 351 176 q 588 221 535 176 q 661 361 640 265 l 774 894 l 997 894 l 881 340 q 719 74 843 161 q 393 -14 594 -14 z "},"Ū":{"ha":950,"x_min":50,"x_max":997,"o":"m 417 1139 l 857 1139 l 828 1004 l 388 1004 l 417 1139 m 393 -14 q 215 20 293 -14 q 94 118 138 54 q 50 267 50 182 q 58 340 50 301 l 175 894 l 399 894 l 286 361 q 278 294 278 324 q 315 206 278 235 q 433 176 351 176 q 588 221 535 176 q 661 361 640 265 l 774 894 l 997 894 l 881 340 q 719 74 843 161 q 393 -14 594 -14 z "},"Ų":{"ha":950,"x_min":50,"x_max":997,"o":"m 365 -306 q 260 -280 300 -306 q 219 -204 219 -254 q 252 -99 219 -150 q 340 -11 285 -49 q 130 74 210 0 q 50 265 50 149 q 58 340 50 301 l 175 894 l 399 894 l 286 361 q 278 294 278 324 q 315 206 278 235 q 433 176 351 176 q 588 221 535 176 q 661 361 640 265 l 774 894 l 997 894 l 881 340 q 507 -6 815 38 q 401 -135 415 -68 q 400 -150 400 -140 q 450 -187 400 -187 q 489 -183 468 -187 q 522 -172 510 -179 l 499 -285 q 439 -299 475 -293 q 365 -306 403 -306 z "},"Ů":{"ha":950,"x_min":50,"x_max":997,"o":"m 597 954 q 488 991 526 954 q 449 1088 449 1028 q 453 1128 449 1107 q 527 1254 469 1206 q 671 1303 585 1303 q 782 1266 743 1303 q 821 1169 821 1229 q 817 1128 821 1149 q 743 1003 800 1051 q 597 954 686 954 m 618 1051 q 690 1081 663 1051 q 717 1151 717 1110 q 650 1206 717 1206 q 580 1176 608 1206 q 551 1107 551 1147 q 568 1067 551 1082 q 618 1051 585 1051 m 393 -14 q 215 20 293 -14 q 94 118 138 54 q 50 267 50 182 q 58 340 50 301 l 175 894 l 399 894 l 286 361 q 278 294 278 324 q 315 206 278 235 q 433 176 351 176 q 588 221 535 176 q 661 361 640 265 l 774 894 l 997 894 l 881 340 q 719 74 843 161 q 393 -14 594 -14 z "},"Ũ":{"ha":950,"x_min":50,"x_max":997,"o":"m 728 969 q 670 977 699 969 q 606 1000 642 985 q 550 1019 574 1013 q 503 1026 526 1026 q 361 974 425 1026 l 393 1122 q 455 1154 418 1142 q 529 1167 492 1167 q 584 1160 560 1167 q 646 1138 608 1153 q 705 1117 682 1124 q 754 1110 728 1110 q 886 1164 836 1110 l 854 1014 q 801 982 836 994 q 728 969 767 969 m 393 -14 q 215 20 293 -14 q 94 118 138 54 q 50 267 50 182 q 58 340 50 301 l 175 894 l 399 894 l 286 361 q 278 294 278 324 q 315 206 278 235 q 433 176 351 176 q 588 221 535 176 q 661 361 640 265 l 774 894 l 997 894 l 881 340 q 719 74 843 161 q 393 -14 594 -14 z "},"V":{"ha":1011,"x_min":154,"x_max":1079,"o":"m 154 894 l 379 894 l 472 256 l 836 894 l 1079 894 l 549 0 l 307 0 l 154 894 z "},"W":{"ha":1226,"x_min":154,"x_max":1294,"o":"m 154 894 l 374 894 l 378 356 l 588 768 l 614 894 l 797 894 l 838 354 l 1075 894 l 1294 894 l 899 0 l 697 0 l 657 517 l 386 0 l 174 0 l 154 894 z "},"Ẃ":{"ha":1226,"x_min":154,"x_max":1294,"o":"m 807 1228 l 990 1228 l 804 956 l 632 956 l 807 1228 m 154 894 l 374 894 l 378 356 l 588 768 l 614 894 l 797 894 l 838 354 l 1075 894 l 1294 894 l 899 0 l 697 0 l 657 517 l 386 0 l 174 0 l 154 894 z "},"Ŵ":{"ha":1226,"x_min":154,"x_max":1294,"o":"m 729 1215 l 868 1215 l 1014 956 l 856 956 l 782 1100 l 651 956 l 474 956 l 729 1215 m 154 894 l 374 894 l 378 356 l 588 768 l 614 894 l 797 894 l 838 354 l 1075 894 l 1294 894 l 899 0 l 697 0 l 657 517 l 386 0 l 174 0 l 154 894 z "},"Ẅ":{"ha":1226,"x_min":154,"x_max":1294,"o":"m 560 1143 l 722 1143 l 689 992 l 526 992 l 560 1143 m 844 1143 l 1008 1143 l 975 992 l 811 992 l 844 1143 m 154 894 l 374 894 l 378 356 l 588 768 l 614 894 l 797 894 l 838 354 l 1075 894 l 1294 894 l 899 0 l 697 0 l 657 517 l 386 0 l 174 0 l 154 894 z "},"Ẁ":{"ha":1226,"x_min":154,"x_max":1294,"o":"m 568 1228 l 751 1228 l 810 956 l 639 956 l 568 1228 m 154 894 l 374 894 l 378 356 l 588 768 l 614 894 l 797 894 l 838 354 l 1075 894 l 1294 894 l 899 0 l 697 0 l 657 517 l 386 0 l 174 0 l 154 894 z "},"X":{"ha":1010,"x_min":-35,"x_max":1068,"o":"m 386 450 l 164 894 l 431 894 l 560 628 l 801 894 l 1068 894 l 657 450 l 889 0 l 619 0 l 483 271 l 235 0 l -35 0 l 386 450 z "},"Y":{"ha":953,"x_min":154,"x_max":1021,"o":"m 356 329 l 154 894 l 379 894 l 501 524 l 779 894 l 1021 894 l 581 329 l 511 0 l 286 0 l 356 329 z "},"Ý":{"ha":953,"x_min":154,"x_max":1021,"o":"m 682 1228 l 865 1228 l 679 956 l 507 956 l 682 1228 m 356 329 l 154 894 l 379 894 l 501 524 l 779 894 l 1021 894 l 581 329 l 511 0 l 286 0 l 356 329 z "},"Ŷ":{"ha":953,"x_min":154,"x_max":1021,"o":"m 586 1215 l 725 1215 l 871 956 l 713 956 l 639 1100 l 508 956 l 331 956 l 586 1215 m 356 329 l 154 894 l 379 894 l 501 524 l 779 894 l 1021 894 l 581 329 l 511 0 l 286 0 l 356 329 z "},"Ÿ":{"ha":953,"x_min":154,"x_max":1021,"o":"m 418 1143 l 581 1143 l 547 992 l 385 992 l 418 1143 m 703 1143 l 867 1143 l 833 992 l 669 992 l 703 1143 m 356 329 l 154 894 l 379 894 l 501 524 l 779 894 l 1021 894 l 581 329 l 511 0 l 286 0 l 356 329 z "},"Ẏ":{"ha":953,"x_min":154,"x_max":1021,"o":"m 558 1143 l 721 1143 l 688 992 l 525 992 l 558 1143 m 356 329 l 154 894 l 379 894 l 501 524 l 779 894 l 1021 894 l 581 329 l 511 0 l 286 0 l 356 329 z "},"Ỵ":{"ha":953,"x_min":154,"x_max":1021,"o":"m 356 329 l 154 894 l 379 894 l 501 524 l 779 894 l 1021 894 l 581 329 l 511 0 l 286 0 l 356 329 m 297 -89 l 461 -89 l 429 -240 l 265 -240 l 297 -89 z "},"Ỳ":{"ha":953,"x_min":154,"x_max":1021,"o":"m 447 1228 l 631 1228 l 689 956 l 518 956 l 447 1228 m 356 329 l 154 894 l 379 894 l 501 524 l 779 894 l 1021 894 l 581 329 l 511 0 l 286 0 l 356 329 z "},"Ỷ":{"ha":953,"x_min":154,"x_max":1021,"o":"m 535 1068 q 636 1088 607 1072 q 672 1132 665 1103 q 592 1182 682 1182 q 506 1169 549 1182 l 528 1269 q 681 1289 589 1289 q 801 1260 760 1289 q 843 1179 843 1231 q 840 1151 843 1171 q 792 1063 826 1093 q 693 1017 758 1032 l 681 956 l 511 956 l 535 1068 m 356 329 l 154 894 l 379 894 l 501 524 l 779 894 l 1021 894 l 581 329 l 511 0 l 286 0 l 356 329 z "},"Ỹ":{"ha":953,"x_min":154,"x_max":1021,"o":"m 729 969 q 672 977 700 969 q 607 1000 643 985 q 551 1019 575 1013 q 504 1026 528 1026 q 363 974 426 1026 l 394 1122 q 456 1154 419 1142 q 531 1167 493 1167 q 585 1160 561 1167 q 647 1138 610 1153 q 706 1117 683 1124 q 756 1110 729 1110 q 888 1164 838 1110 l 856 1014 q 803 982 838 994 q 729 969 768 969 m 356 329 l 154 894 l 379 894 l 501 524 l 779 894 l 1021 894 l 581 329 l 511 0 l 286 0 l 356 329 z "},"Z":{"ha":803,"x_min":-35,"x_max":867,"o":"m -11 114 l 536 717 l 138 717 l 175 894 l 867 894 l 840 769 l 299 172 l 722 172 l 686 0 l -35 0 l -11 114 z "},"Ź":{"ha":803,"x_min":-35,"x_max":867,"o":"m 611 1228 l 794 1228 l 608 956 l 436 956 l 611 1228 m -11 114 l 536 717 l 138 717 l 175 894 l 867 894 l 840 769 l 299 172 l 722 172 l 686 0 l -35 0 l -11 114 z "},"Ž":{"ha":803,"x_min":-35,"x_max":876,"o":"m 336 1215 l 497 1215 l 567 1071 l 701 1215 l 876 1215 l 619 956 l 481 956 l 336 1215 m -11 114 l 536 717 l 138 717 l 175 894 l 867 894 l 840 769 l 299 172 l 722 172 l 686 0 l -35 0 l -11 114 z "},"Ż":{"ha":803,"x_min":-35,"x_max":867,"o":"m 497 1143 l 660 1143 l 626 992 l 464 992 l 497 1143 m -11 114 l 536 717 l 138 717 l 175 894 l 867 894 l 840 769 l 299 172 l 722 172 l 686 0 l -35 0 l -11 114 z "},"Ẓ":{"ha":803,"x_min":-35,"x_max":867,"o":"m -11 114 l 536 717 l 138 717 l 175 894 l 867 894 l 840 769 l 299 172 l 722 172 l 686 0 l -35 0 l -11 114 m 233 -97 l 397 -97 l 365 -249 l 201 -249 l 233 -97 z "},"a":{"ha":832,"x_min":18,"x_max":821,"o":"m 257 -14 q 80 41 142 -14 q 18 204 18 96 q 29 303 18 244 q 169 572 65 472 q 433 672 274 672 q 522 660 488 672 q 590 621 557 647 l 597 658 l 821 658 l 682 0 l 489 0 l 488 56 q 257 -14 390 -14 m 364 149 q 500 199 438 149 l 556 463 q 457 508 528 508 q 328 458 378 508 q 257 303 279 408 q 249 238 249 265 q 276 169 249 189 q 364 149 303 149 z "},"á":{"ha":832,"x_min":18,"x_max":821,"o":"m 558 997 l 742 997 l 556 725 l 383 725 l 558 997 m 257 -14 q 80 41 142 -14 q 18 204 18 96 q 29 303 18 244 q 169 572 65 472 q 433 672 274 672 q 522 660 488 672 q 590 621 557 647 l 597 658 l 821 658 l 682 0 l 489 0 l 488 56 q 257 -14 390 -14 m 364 149 q 500 199 438 149 l 556 463 q 457 508 528 508 q 328 458 378 508 q 257 303 279 408 q 249 238 249 265 q 276 169 249 189 q 364 149 303 149 z "},"ă":{"ha":832,"x_min":18,"x_max":821,"o":"m 494 725 q 351 771 403 725 q 299 900 299 817 q 306 964 299 926 l 443 964 q 438 918 438 942 q 513 850 438 850 q 592 881 561 850 q 632 964 622 913 l 788 964 q 688 787 764 849 q 494 725 613 725 m 257 -14 q 80 41 142 -14 q 18 204 18 96 q 29 303 18 244 q 169 572 65 472 q 433 672 274 672 q 522 660 488 672 q 590 621 557 647 l 597 658 l 821 658 l 682 0 l 489 0 l 488 56 q 257 -14 390 -14 m 364 149 q 500 199 438 149 l 556 463 q 457 508 528 508 q 328 458 378 508 q 257 303 279 408 q 249 238 249 265 q 276 169 249 189 q 364 149 303 149 z "},"ắ":{"ha":832,"x_min":18,"x_max":821,"o":"m 585 1139 l 742 1139 l 589 932 l 449 932 l 585 1139 m 481 725 q 334 765 388 725 q 281 889 281 806 q 288 953 281 914 l 411 953 q 406 908 406 919 q 427 854 406 871 q 500 838 449 838 q 588 868 553 838 q 635 953 624 899 l 768 953 q 671 780 743 835 q 481 725 599 725 m 257 -14 q 80 41 142 -14 q 18 204 18 96 q 29 303 18 244 q 169 572 65 472 q 433 672 274 672 q 522 660 488 672 q 590 621 557 647 l 597 658 l 821 658 l 682 0 l 489 0 l 488 56 q 257 -14 390 -14 m 364 149 q 500 199 438 149 l 556 463 q 457 508 528 508 q 328 458 378 508 q 257 303 279 408 q 249 238 249 265 q 276 169 249 189 q 364 149 303 149 z "},"ặ":{"ha":832,"x_min":18,"x_max":821,"o":"m 490 725 q 347 771 399 725 q 294 900 294 817 q 301 964 294 926 l 439 964 q 433 918 433 942 q 508 850 433 850 q 588 881 557 850 q 628 964 618 913 l 783 964 q 684 787 760 849 q 490 725 608 725 m 257 -14 q 80 41 142 -14 q 18 204 18 96 q 29 303 18 244 q 169 572 65 472 q 433 672 274 672 q 522 660 488 672 q 590 621 557 647 l 597 658 l 821 658 l 682 0 l 489 0 l 488 56 q 257 -14 390 -14 m 364 149 q 500 199 438 149 l 556 463 q 457 508 528 508 q 328 458 378 508 q 257 303 279 408 q 249 238 249 265 q 276 169 249 189 q 364 149 303 149 m 240 -97 l 404 -97 l 372 -249 l 208 -249 l 240 -97 z "},"ằ":{"ha":832,"x_min":18,"x_max":821,"o":"m 397 1139 l 556 1139 l 603 932 l 461 932 l 397 1139 m 483 725 q 337 765 390 725 q 283 889 283 806 q 290 953 283 914 l 414 953 q 408 908 408 919 q 430 854 408 871 q 503 838 451 838 q 591 868 556 838 q 638 953 626 899 l 771 953 q 674 780 746 835 q 483 725 601 725 m 257 -14 q 80 41 142 -14 q 18 204 18 96 q 29 303 18 244 q 169 572 65 472 q 433 672 274 672 q 522 660 488 672 q 590 621 557 647 l 597 658 l 821 658 l 682 0 l 489 0 l 488 56 q 257 -14 390 -14 m 364 149 q 500 199 438 149 l 556 463 q 457 508 528 508 q 328 458 378 508 q 257 303 279 408 q 249 238 249 265 q 276 169 249 189 q 364 149 303 149 z "},"ẳ":{"ha":832,"x_min":18,"x_max":821,"o":"m 475 1026 q 567 1044 540 1028 q 594 1092 594 1061 q 580 1115 594 1108 q 533 1122 565 1122 q 458 1107 497 1122 l 476 1193 q 613 1211 533 1211 q 710 1186 676 1211 q 744 1119 744 1161 q 742 1096 744 1113 q 702 1023 732 1049 q 613 985 672 997 l 604 942 l 457 942 l 475 1026 m 488 725 q 341 765 394 725 q 288 889 288 806 q 294 953 288 914 l 418 953 q 413 908 413 919 q 434 854 413 871 q 507 838 456 838 q 595 868 560 838 q 642 953 631 899 l 775 953 q 678 780 750 835 q 488 725 606 725 m 257 -14 q 80 41 142 -14 q 18 204 18 96 q 29 303 18 244 q 169 572 65 472 q 433 672 274 672 q 522 660 488 672 q 590 621 557 647 l 597 658 l 821 658 l 682 0 l 489 0 l 488 56 q 257 -14 390 -14 m 364 149 q 500 199 438 149 l 556 463 q 457 508 528 508 q 328 458 378 508 q 257 303 279 408 q 249 238 249 265 q 276 169 249 189 q 364 149 303 149 z "},"ẵ":{"ha":832,"x_min":18,"x_max":821,"o":"m 671 978 q 615 985 642 978 q 551 1007 589 993 q 496 1026 519 1019 q 449 1033 472 1033 q 310 982 369 1033 l 336 1108 q 397 1140 360 1128 q 469 1153 433 1153 q 523 1146 499 1153 q 585 1124 547 1139 q 643 1103 621 1110 q 692 1096 665 1096 q 765 1110 732 1096 q 821 1150 799 1125 l 796 1022 q 744 990 778 1003 q 671 978 710 978 m 493 725 q 347 765 400 725 q 293 889 293 806 q 300 953 293 914 l 424 953 q 418 908 418 919 q 440 854 418 871 q 513 838 461 838 q 601 868 565 838 q 647 953 636 899 l 781 953 q 683 780 756 835 q 493 725 611 725 m 257 -14 q 80 41 142 -14 q 18 204 18 96 q 29 303 18 244 q 169 572 65 472 q 433 672 274 672 q 522 660 488 672 q 590 621 557 647 l 597 658 l 821 658 l 682 0 l 489 0 l 488 56 q 257 -14 390 -14 m 364 149 q 500 199 438 149 l 556 463 q 457 508 528 508 q 328 458 378 508 q 257 303 279 408 q 249 238 249 265 q 276 169 249 189 q 364 149 303 149 z "},"ǎ":{"ha":832,"x_min":18,"x_max":821,"o":"m 260 983 l 421 983 l 490 839 l 625 983 l 800 983 l 543 724 l 404 724 l 260 983 m 257 -14 q 80 41 142 -14 q 18 204 18 96 q 29 303 18 244 q 169 572 65 472 q 433 672 274 672 q 522 660 488 672 q 590 621 557 647 l 597 658 l 821 658 l 682 0 l 489 0 l 488 56 q 257 -14 390 -14 m 364 149 q 500 199 438 149 l 556 463 q 457 508 528 508 q 328 458 378 508 q 257 303 279 408 q 249 238 249 265 q 276 169 249 189 q 364 149 303 149 z "},"â":{"ha":832,"x_min":18,"x_max":821,"o":"m 468 983 l 607 983 l 753 724 l 594 724 l 521 868 l 390 724 l 213 724 l 468 983 m 257 -14 q 80 41 142 -14 q 18 204 18 96 q 29 303 18 244 q 169 572 65 472 q 433 672 274 672 q 522 660 488 672 q 590 621 557 647 l 597 658 l 821 658 l 682 0 l 489 0 l 488 56 q 257 -14 390 -14 m 364 149 q 500 199 438 149 l 556 463 q 457 508 528 508 q 328 458 378 508 q 257 303 279 408 q 249 238 249 265 q 276 169 249 189 q 364 149 303 149 z "},"ấ":{"ha":832,"x_min":18,"x_max":976,"o":"m 810 1099 l 976 1099 l 829 892 l 672 892 l 810 1099 m 439 924 l 607 924 l 751 724 l 579 724 l 513 835 l 399 724 l 211 724 l 439 924 m 257 -14 q 80 41 142 -14 q 18 204 18 96 q 29 303 18 244 q 169 572 65 472 q 433 672 274 672 q 522 660 488 672 q 590 621 557 647 l 597 658 l 821 658 l 682 0 l 489 0 l 488 56 q 257 -14 390 -14 m 364 149 q 500 199 438 149 l 556 463 q 457 508 528 508 q 328 458 378 508 q 257 303 279 408 q 249 238 249 265 q 276 169 249 189 q 364 149 303 149 z "},"ậ":{"ha":832,"x_min":18,"x_max":821,"o":"m 468 983 l 607 983 l 753 724 l 594 724 l 521 868 l 390 724 l 213 724 l 468 983 m 257 -14 q 80 41 142 -14 q 18 204 18 96 q 29 303 18 244 q 169 572 65 472 q 433 672 274 672 q 522 660 488 672 q 590 621 557 647 l 597 658 l 821 658 l 682 0 l 489 0 l 488 56 q 257 -14 390 -14 m 364 149 q 500 199 438 149 l 556 463 q 457 508 528 508 q 328 458 378 508 q 257 303 279 408 q 249 238 249 265 q 276 169 249 189 q 364 149 303 149 m 228 -97 l 392 -97 l 360 -249 l 196 -249 l 228 -97 z "},"ầ":{"ha":832,"x_min":18,"x_max":821,"o":"m 147 1099 l 314 1099 l 367 892 l 208 892 l 147 1099 m 442 924 l 610 924 l 754 724 l 582 724 l 515 835 l 401 724 l 214 724 l 442 924 m 257 -14 q 80 41 142 -14 q 18 204 18 96 q 29 303 18 244 q 169 572 65 472 q 433 672 274 672 q 522 660 488 672 q 590 621 557 647 l 597 658 l 821 658 l 682 0 l 489 0 l 488 56 q 257 -14 390 -14 m 364 149 q 500 199 438 149 l 556 463 q 457 508 528 508 q 328 458 378 508 q 257 303 279 408 q 249 238 249 265 q 276 169 249 189 q 364 149 303 149 z "},"ẩ":{"ha":832,"x_min":18,"x_max":963,"o":"m 694 960 q 776 973 753 961 q 804 1006 800 985 q 751 1040 813 1040 q 676 1026 714 1040 l 696 1119 q 825 1136 756 1136 q 928 1113 893 1136 q 963 1046 963 1089 q 960 1021 963 1038 q 833 907 940 924 l 824 861 l 674 861 l 694 960 m 433 924 l 601 924 l 746 724 l 574 724 l 507 835 l 393 724 l 206 724 l 433 924 m 257 -14 q 80 41 142 -14 q 18 204 18 96 q 29 303 18 244 q 169 572 65 472 q 433 672 274 672 q 522 660 488 672 q 590 621 557 647 l 597 658 l 821 658 l 682 0 l 489 0 l 488 56 q 257 -14 390 -14 m 364 149 q 500 199 438 149 l 556 463 q 457 508 528 508 q 328 458 378 508 q 257 303 279 408 q 249 238 249 265 q 276 169 249 189 q 364 149 303 149 z "},"ẫ":{"ha":832,"x_min":18,"x_max":821,"o":"m 660 944 q 605 951 631 944 q 539 974 579 958 q 483 993 507 986 q 436 1000 460 1000 q 297 949 357 1000 l 325 1075 q 384 1107 347 1094 q 457 1119 421 1119 q 510 1113 486 1119 q 574 1090 533 1106 q 632 1069 610 1076 q 681 1063 654 1063 q 810 1117 760 1063 l 782 989 q 732 957 765 969 q 660 944 699 944 m 435 924 l 603 924 l 747 724 l 575 724 l 508 835 l 394 724 l 207 724 l 435 924 m 257 -14 q 80 41 142 -14 q 18 204 18 96 q 29 303 18 244 q 169 572 65 472 q 433 672 274 672 q 522 660 488 672 q 590 621 557 647 l 597 658 l 821 658 l 682 0 l 489 0 l 488 56 q 257 -14 390 -14 m 364 149 q 500 199 438 149 l 556 463 q 457 508 528 508 q 328 458 378 508 q 257 303 279 408 q 249 238 249 265 q 276 169 249 189 q 364 149 303 149 z "},"ä":{"ha":832,"x_min":18,"x_max":821,"o":"m 307 913 l 469 913 l 436 761 l 274 761 l 307 913 m 592 913 l 756 913 l 722 761 l 558 761 l 592 913 m 257 -14 q 80 41 142 -14 q 18 204 18 96 q 29 303 18 244 q 169 572 65 472 q 433 672 274 672 q 522 660 488 672 q 590 621 557 647 l 597 658 l 821 658 l 682 0 l 489 0 l 488 56 q 257 -14 390 -14 m 364 149 q 500 199 438 149 l 556 463 q 457 508 528 508 q 328 458 378 508 q 257 303 279 408 q 249 238 249 265 q 276 169 249 189 q 364 149 303 149 z "},"ạ":{"ha":832,"x_min":18,"x_max":821,"o":"m 257 -14 q 80 41 142 -14 q 18 204 18 96 q 29 303 18 244 q 169 572 65 472 q 433 672 274 672 q 522 660 488 672 q 590 621 557 647 l 597 658 l 821 658 l 682 0 l 489 0 l 488 56 q 257 -14 390 -14 m 364 149 q 500 199 438 149 l 556 463 q 457 508 528 508 q 328 458 378 508 q 257 303 279 408 q 249 238 249 265 q 276 169 249 189 q 364 149 303 149 m 224 -97 l 388 -97 l 356 -249 l 192 -249 l 224 -97 z "},"à":{"ha":832,"x_min":18,"x_max":821,"o":"m 331 997 l 514 997 l 572 725 l 401 725 l 331 997 m 257 -14 q 80 41 142 -14 q 18 204 18 96 q 29 303 18 244 q 169 572 65 472 q 433 672 274 672 q 522 660 488 672 q 590 621 557 647 l 597 658 l 821 658 l 682 0 l 489 0 l 488 56 q 257 -14 390 -14 m 364 149 q 500 199 438 149 l 556 463 q 457 508 528 508 q 328 458 378 508 q 257 303 279 408 q 249 238 249 265 q 276 169 249 189 q 364 149 303 149 z "},"ả":{"ha":832,"x_min":18,"x_max":821,"o":"m 408 836 q 510 856 481 840 q 546 900 539 871 q 465 950 556 950 q 379 938 422 950 l 401 1038 q 554 1057 463 1057 q 675 1028 633 1057 q 717 947 717 999 q 714 919 717 939 q 666 831 700 861 q 567 785 632 800 l 554 724 l 385 724 l 408 836 m 257 -14 q 80 41 142 -14 q 18 204 18 96 q 29 303 18 244 q 169 572 65 472 q 433 672 274 672 q 522 660 488 672 q 590 621 557 647 l 597 658 l 821 658 l 682 0 l 489 0 l 488 56 q 257 -14 390 -14 m 364 149 q 500 199 438 149 l 556 463 q 457 508 528 508 q 328 458 378 508 q 257 303 279 408 q 249 238 249 265 q 276 169 249 189 q 364 149 303 149 z "},"ɑ":{"ha":832,"x_min":18,"x_max":821,"o":"m 257 -14 q 80 41 142 -14 q 18 204 18 96 q 29 303 18 244 q 169 572 65 472 q 433 672 274 672 q 522 660 488 672 q 590 621 557 647 l 597 658 l 821 658 l 682 0 l 489 0 l 488 56 q 257 -14 390 -14 m 364 149 q 500 199 438 149 l 556 463 q 457 508 528 508 q 328 458 378 508 q 257 303 279 408 q 249 238 249 265 q 276 169 249 189 q 364 149 303 149 z "},"ā":{"ha":832,"x_min":18,"x_max":821,"o":"m 311 882 l 751 882 l 722 747 l 282 747 l 311 882 m 257 -14 q 80 41 142 -14 q 18 204 18 96 q 29 303 18 244 q 169 572 65 472 q 433 672 274 672 q 522 660 488 672 q 590 621 557 647 l 597 658 l 821 658 l 682 0 l 489 0 l 488 56 q 257 -14 390 -14 m 364 149 q 500 199 438 149 l 556 463 q 457 508 528 508 q 328 458 378 508 q 257 303 279 408 q 249 238 249 265 q 276 169 249 189 q 364 149 303 149 z "},"ą":{"ha":832,"x_min":18,"x_max":821,"o":"m 531 -306 q 425 -280 465 -306 q 385 -204 385 -254 q 388 -175 385 -186 q 426 -80 397 -126 q 489 0 454 -33 l 488 56 q 257 -14 390 -14 q 80 41 142 -14 q 18 204 18 96 q 29 303 18 244 q 169 572 65 472 q 433 672 274 672 q 522 660 488 672 q 590 621 557 647 l 597 658 l 821 658 l 682 0 q 606 -61 636 -25 q 567 -135 575 -97 q 565 -150 565 -140 q 615 -187 565 -187 q 654 -183 633 -187 q 688 -172 675 -179 l 664 -285 q 604 -299 640 -293 q 531 -306 568 -306 m 364 149 q 500 199 438 149 l 556 463 q 457 508 528 508 q 328 458 378 508 q 257 303 279 408 q 249 238 249 265 q 276 169 249 189 q 364 149 303 149 z "},"å":{"ha":832,"x_min":18,"x_max":821,"o":"m 492 724 q 382 760 421 724 q 343 857 343 797 q 347 897 343 876 q 422 1024 364 975 q 565 1072 479 1072 q 676 1036 638 1072 q 715 939 715 1000 q 711 897 715 918 q 638 772 694 821 q 492 724 581 724 m 513 821 q 584 850 557 821 q 611 921 611 879 q 544 975 611 975 q 474 946 503 975 q 446 876 446 917 q 463 836 446 851 q 513 821 479 821 m 257 -14 q 80 41 142 -14 q 18 204 18 96 q 29 303 18 244 q 169 572 65 472 q 433 672 274 672 q 522 660 488 672 q 590 621 557 647 l 597 658 l 821 658 l 682 0 l 489 0 l 488 56 q 257 -14 390 -14 m 364 149 q 500 199 438 149 l 556 463 q 457 508 528 508 q 328 458 378 508 q 257 303 279 408 q 249 238 249 265 q 276 169 249 189 q 364 149 303 149 z "},"ǻ":{"ha":832,"x_min":18,"x_max":857,"o":"m 674 1321 l 857 1321 l 671 1104 l 499 1104 l 674 1321 m 492 724 q 382 760 421 724 q 343 857 343 797 q 347 897 343 876 q 422 1024 364 975 q 565 1072 479 1072 q 676 1036 638 1072 q 715 939 715 1000 q 711 897 715 918 q 638 772 694 821 q 492 724 581 724 m 513 821 q 584 850 557 821 q 611 921 611 879 q 544 975 611 975 q 474 946 503 975 q 446 876 446 917 q 463 836 446 851 q 513 821 479 821 m 257 -14 q 80 41 142 -14 q 18 204 18 96 q 29 303 18 244 q 169 572 65 472 q 433 672 274 672 q 522 660 488 672 q 590 621 557 647 l 597 658 l 821 658 l 682 0 l 489 0 l 488 56 q 257 -14 390 -14 m 364 149 q 500 199 438 149 l 556 463 q 457 508 528 508 q 328 458 378 508 q 257 303 279 408 q 249 238 249 265 q 276 169 249 189 q 364 149 303 149 z "},"ã":{"ha":832,"x_min":18,"x_max":821,"o":"m 621 739 q 563 747 592 739 q 499 769 535 754 q 443 789 467 782 q 396 796 419 796 q 254 743 318 796 l 286 892 q 348 924 311 911 q 422 936 385 936 q 477 929 453 936 q 539 907 501 922 q 598 886 575 893 q 647 879 621 879 q 779 933 729 879 l 747 783 q 694 751 729 764 q 621 739 660 739 m 257 -14 q 80 41 142 -14 q 18 204 18 96 q 29 303 18 244 q 169 572 65 472 q 433 672 274 672 q 522 660 488 672 q 590 621 557 647 l 597 658 l 821 658 l 682 0 l 489 0 l 488 56 q 257 -14 390 -14 m 364 149 q 500 199 438 149 l 556 463 q 457 508 528 508 q 328 458 378 508 q 257 303 279 408 q 249 238 249 265 q 276 169 249 189 q 364 149 303 149 z "},"æ":{"ha":1225,"x_min":1,"x_max":1190,"o":"m 213 -14 q 61 28 121 -14 q 1 149 1 69 q 6 193 1 171 q 110 353 28 296 q 326 410 192 410 l 510 410 l 514 425 q 519 456 519 447 q 486 503 519 489 q 375 518 453 518 q 146 483 263 518 l 178 628 q 305 660 232 647 q 453 672 378 672 q 579 657 529 672 q 665 608 629 642 q 778 656 713 639 q 917 672 844 672 q 1063 642 1001 672 q 1158 558 1125 611 q 1190 438 1190 504 q 1183 375 1190 410 l 1158 257 l 692 257 q 740 165 693 192 q 892 138 786 138 q 1003 147 944 138 q 1103 172 1061 157 l 1072 29 q 807 -14 969 -14 q 660 13 726 -14 q 561 88 594 39 q 409 12 488 38 q 213 -14 331 -14 m 992 386 l 997 415 q 1000 444 1000 426 q 892 521 1000 521 q 772 490 810 521 q 719 386 735 458 l 992 386 m 294 124 q 461 182 392 124 l 482 281 l 324 281 q 246 261 274 281 q 208 201 218 242 q 206 178 206 185 q 226 137 206 150 q 294 124 246 124 z "},"ǽ":{"ha":1225,"x_min":1,"x_max":1190,"o":"m 767 997 l 950 997 l 764 725 l 592 725 l 767 997 m 213 -14 q 61 28 121 -14 q 1 149 1 69 q 6 193 1 171 q 110 353 28 296 q 326 410 192 410 l 510 410 l 514 425 q 519 456 519 447 q 486 503 519 489 q 375 518 453 518 q 146 483 263 518 l 178 628 q 305 660 232 647 q 453 672 378 672 q 579 657 529 672 q 665 608 629 642 q 778 656 713 639 q 917 672 844 672 q 1063 642 1001 672 q 1158 558 1125 611 q 1190 438 1190 504 q 1183 375 1190 410 l 1158 257 l 692 257 q 740 165 693 192 q 892 138 786 138 q 1003 147 944 138 q 1103 172 1061 157 l 1072 29 q 807 -14 969 -14 q 660 13 726 -14 q 561 88 594 39 q 409 12 488 38 q 213 -14 331 -14 m 992 386 l 997 415 q 1000 444 1000 426 q 892 521 1000 521 q 772 490 810 521 q 719 386 735 458 l 992 386 m 294 124 q 461 182 392 124 l 482 281 l 324 281 q 246 261 274 281 q 208 201 218 242 q 206 178 206 185 q 226 137 206 150 q 294 124 246 124 z "},"b":{"ha":831,"x_min":-7,"x_max":792,"o":"m 401 -14 q 290 3 336 -14 q 210 56 244 21 l 188 0 l -7 0 l 192 936 l 415 936 l 350 628 q 540 672 435 672 q 724 612 657 672 q 792 435 792 551 q 781 335 792 393 q 650 72 743 157 q 401 -14 557 -14 m 372 149 q 489 193 446 149 q 553 333 532 238 q 563 411 563 388 q 535 486 563 464 q 449 508 508 508 q 315 467 369 508 l 258 199 q 306 161 276 174 q 372 149 335 149 z "},"c":{"ha":696,"x_min":25,"x_max":707,"o":"m 336 -14 q 110 52 194 -14 q 25 243 25 118 q 35 329 25 286 q 486 672 107 672 q 610 662 558 672 q 707 628 661 651 l 672 469 q 499 507 604 507 q 340 467 397 507 q 263 329 283 426 q 254 264 254 292 q 293 178 254 204 q 422 151 332 151 q 615 193 524 151 l 581 28 q 336 -14 475 -14 z "},"ć":{"ha":696,"x_min":25,"x_max":740,"o":"m 557 997 l 740 997 l 554 725 l 382 725 l 557 997 m 336 -14 q 110 52 194 -14 q 25 243 25 118 q 35 329 25 286 q 486 672 107 672 q 610 662 558 672 q 707 628 661 651 l 672 469 q 499 507 604 507 q 340 467 397 507 q 263 329 283 426 q 254 264 254 292 q 293 178 254 204 q 422 151 332 151 q 615 193 524 151 l 581 28 q 336 -14 475 -14 z "},"č":{"ha":697,"x_min":25,"x_max":785,"o":"m 244 983 l 406 983 l 475 839 l 610 983 l 785 983 l 528 724 l 389 724 l 244 983 m 336 -14 q 110 52 194 -14 q 25 243 25 118 q 35 329 25 286 q 486 672 107 672 q 610 662 558 672 q 707 628 661 651 l 672 469 q 499 507 604 507 q 340 467 397 507 q 263 329 283 426 q 254 264 254 292 q 293 178 254 204 q 422 151 332 151 q 615 193 524 151 l 581 28 q 336 -14 475 -14 z "},"ç":{"ha":696,"x_min":25,"x_max":707,"o":"m 232 -333 q 174 -330 208 -333 q 125 -322 139 -326 l 146 -224 q 228 -235 183 -235 q 313 -225 288 -235 q 343 -186 338 -215 q 344 -174 344 -182 q 325 -145 344 -151 q 263 -139 306 -139 l 188 -139 l 253 -7 q 86 74 147 10 q 25 242 25 138 q 35 329 25 286 q 486 672 107 672 q 610 662 558 672 q 707 628 661 651 l 672 469 q 499 507 604 507 q 340 467 397 507 q 263 329 283 426 q 254 264 254 292 q 293 178 254 204 q 422 151 332 151 q 615 193 524 151 l 581 28 q 382 -12 493 -8 l 356 -60 q 452 -85 421 -60 q 483 -157 483 -111 q 481 -189 483 -178 q 403 -296 465 -258 q 232 -333 340 -333 z "},"ĉ":{"ha":696,"x_min":25,"x_max":724,"o":"m 439 983 l 578 983 l 724 724 l 565 724 l 492 868 l 361 724 l 183 724 l 439 983 m 336 -14 q 110 52 194 -14 q 25 243 25 118 q 35 329 25 286 q 486 672 107 672 q 610 662 558 672 q 707 628 661 651 l 672 469 q 499 507 604 507 q 340 467 397 507 q 263 329 283 426 q 254 264 254 292 q 293 178 254 204 q 422 151 332 151 q 615 193 524 151 l 581 28 q 336 -14 475 -14 z "},"ċ":{"ha":696,"x_min":25,"x_max":707,"o":"m 422 913 l 585 913 l 551 761 l 389 761 l 422 913 m 336 -14 q 110 52 194 -14 q 25 243 25 118 q 35 329 25 286 q 486 672 107 672 q 610 662 558 672 q 707 628 661 651 l 672 469 q 499 507 604 507 q 340 467 397 507 q 263 329 283 426 q 254 264 254 292 q 293 178 254 204 q 422 151 332 151 q 615 193 524 151 l 581 28 q 336 -14 475 -14 z "},"d":{"ha":831,"x_min":22,"x_max":881,"o":"m 265 -14 q 89 45 156 -14 q 22 221 22 104 q 33 324 22 274 q 170 585 69 497 q 421 672 271 672 q 592 628 526 672 l 657 936 l 881 936 l 682 0 l 489 0 l 488 56 q 265 -14 390 -14 m 364 149 q 500 199 438 149 l 557 465 q 444 508 518 508 q 327 463 372 508 q 261 322 282 418 q 251 246 251 279 q 278 172 251 194 q 364 149 306 149 z "},"ð":{"ha":794,"x_min":15,"x_max":892,"o":"m 321 -14 q 93 44 171 -14 q 15 206 15 101 q 24 278 15 240 q 147 491 54 421 q 399 561 239 561 q 505 546 454 561 q 586 506 556 531 l 594 546 q 607 643 607 614 q 603 681 607 664 l 428 611 l 446 693 l 564 740 q 449 765 526 765 q 238 725 342 765 l 269 871 q 515 908 378 908 q 754 815 676 908 l 892 869 l 874 788 l 789 754 q 810 629 810 700 q 797 514 810 575 l 761 343 q 613 75 722 164 q 321 -14 504 -14 m 351 133 q 477 172 431 133 q 542 294 524 211 l 557 372 q 411 422 497 422 q 283 385 328 422 q 224 278 239 349 q 218 232 218 256 q 250 158 218 183 q 351 133 282 133 z "},"ď":{"ha":967,"x_min":21,"x_max":1235,"o":"m 1049 975 l 1235 975 l 1036 685 l 861 685 l 1049 975 m 265 -14 q 85 42 149 -14 q 21 214 21 99 q 33 324 21 264 q 174 584 69 496 q 421 672 279 672 q 592 628 526 672 l 657 936 l 881 936 l 682 0 l 489 0 l 488 56 q 265 -14 390 -14 m 364 149 q 500 199 438 149 l 557 465 q 444 508 518 508 q 327 463 372 508 q 261 322 282 418 q 253 251 253 281 q 280 173 253 197 q 364 149 307 149 z "},"đ":{"ha":832,"x_min":22,"x_max":922,"o":"m 265 -14 q 89 45 156 -14 q 22 221 22 104 q 33 324 22 274 q 170 585 69 497 q 421 672 271 672 q 592 628 526 672 l 611 724 l 419 724 l 450 865 l 642 865 l 657 936 l 881 936 l 865 865 l 922 865 l 892 724 l 835 724 l 682 0 l 489 0 l 488 56 q 265 -14 390 -14 m 364 149 q 500 199 438 149 l 557 465 q 444 508 518 508 q 327 463 372 508 q 261 322 282 418 q 251 246 251 279 q 278 172 251 194 q 364 149 306 149 z "},"ḍ":{"ha":831,"x_min":22,"x_max":881,"o":"m 265 -14 q 89 45 156 -14 q 22 221 22 104 q 33 324 22 274 q 170 585 69 497 q 421 672 271 672 q 592 628 526 672 l 657 936 l 881 936 l 682 0 l 489 0 l 488 56 q 265 -14 390 -14 m 364 149 q 500 199 438 149 l 557 465 q 444 508 518 508 q 327 463 372 508 q 261 322 282 418 q 251 246 251 279 q 278 172 251 194 q 364 149 306 149 m 254 -111 l 418 -111 l 386 -262 l 222 -262 l 254 -111 z "},"ḏ":{"ha":831,"x_min":22,"x_max":881,"o":"m 265 -14 q 89 45 156 -14 q 22 221 22 104 q 33 324 22 274 q 170 585 69 497 q 421 672 271 672 q 592 628 526 672 l 657 936 l 881 936 l 682 0 l 489 0 l 488 56 q 265 -14 390 -14 m 364 149 q 500 199 438 149 l 557 465 q 444 508 518 508 q 327 463 372 508 q 261 322 282 418 q 251 246 251 279 q 278 172 251 194 q 364 149 306 149 m 103 -114 l 543 -114 l 514 -250 l 74 -250 l 103 -114 z "},"e":{"ha":760,"x_min":25,"x_max":725,"o":"m 342 -14 q 113 53 200 -14 q 25 246 25 119 q 35 329 25 286 q 451 672 107 672 q 652 608 579 672 q 725 440 725 543 q 718 375 725 413 l 693 257 l 226 257 q 272 166 228 192 q 426 140 315 140 q 539 150 481 140 q 638 175 597 160 l 607 29 q 342 -14 504 -14 m 526 386 l 532 415 q 535 444 535 426 q 426 521 535 521 q 309 489 349 521 q 254 386 269 457 l 526 386 z "},"é":{"ha":760,"x_min":25,"x_max":740,"o":"m 557 997 l 740 997 l 554 725 l 382 725 l 557 997 m 342 -14 q 113 53 200 -14 q 25 246 25 119 q 35 329 25 286 q 451 672 107 672 q 652 608 579 672 q 725 440 725 543 q 718 375 725 413 l 693 257 l 226 257 q 272 166 228 192 q 426 140 315 140 q 539 150 481 140 q 638 175 597 160 l 607 29 q 342 -14 504 -14 m 526 386 l 532 415 q 535 444 535 426 q 426 521 535 521 q 309 489 349 521 q 254 386 269 457 l 526 386 z "},"ĕ":{"ha":760,"x_min":25,"x_max":763,"o":"m 469 725 q 326 771 378 725 q 274 900 274 817 q 281 964 274 926 l 418 964 q 413 918 413 942 q 488 850 413 850 q 567 881 536 850 q 607 964 597 913 l 763 964 q 663 787 739 849 q 469 725 588 725 m 342 -14 q 113 53 200 -14 q 25 246 25 119 q 35 329 25 286 q 451 672 107 672 q 652 608 579 672 q 725 440 725 543 q 718 375 725 413 l 693 257 l 226 257 q 272 166 228 192 q 426 140 315 140 q 539 150 481 140 q 638 175 597 160 l 607 29 q 342 -14 504 -14 m 526 386 l 532 415 q 535 444 535 426 q 426 521 535 521 q 309 489 349 521 q 254 386 269 457 l 526 386 z "},"ě":{"ha":760,"x_min":25,"x_max":803,"o":"m 263 983 l 424 983 l 493 839 l 628 983 l 803 983 l 546 724 l 407 724 l 263 983 m 342 -14 q 113 53 200 -14 q 25 246 25 119 q 35 329 25 286 q 451 672 107 672 q 652 608 579 672 q 725 440 725 543 q 718 375 725 413 l 693 257 l 226 257 q 272 166 228 192 q 426 140 315 140 q 539 150 481 140 q 638 175 597 160 l 607 29 q 342 -14 504 -14 m 526 386 l 532 415 q 535 444 535 426 q 426 521 535 521 q 309 489 349 521 q 254 386 269 457 l 526 386 z "},"ê":{"ha":760,"x_min":25,"x_max":736,"o":"m 451 983 l 590 983 l 736 724 l 578 724 l 504 868 l 374 724 l 196 724 l 451 983 m 342 -14 q 113 53 200 -14 q 25 246 25 119 q 35 329 25 286 q 451 672 107 672 q 652 608 579 672 q 725 440 725 543 q 718 375 725 413 l 693 257 l 226 257 q 272 166 228 192 q 426 140 315 140 q 539 150 481 140 q 638 175 597 160 l 607 29 q 342 -14 504 -14 m 526 386 l 532 415 q 535 444 535 426 q 426 521 535 521 q 309 489 349 521 q 254 386 269 457 l 526 386 z "},"ế":{"ha":760,"x_min":25,"x_max":961,"o":"m 794 1099 l 961 1099 l 814 892 l 657 892 l 794 1099 m 424 924 l 592 924 l 736 724 l 564 724 l 497 835 l 383 724 l 196 724 l 424 924 m 342 -14 q 113 53 200 -14 q 25 246 25 119 q 35 329 25 286 q 451 672 107 672 q 652 608 579 672 q 725 440 725 543 q 718 375 725 413 l 693 257 l 226 257 q 272 166 228 192 q 426 140 315 140 q 539 150 481 140 q 638 175 597 160 l 607 29 q 342 -14 504 -14 m 526 386 l 532 415 q 535 444 535 426 q 426 521 535 521 q 309 489 349 521 q 254 386 269 457 l 526 386 z "},"ệ":{"ha":760,"x_min":25,"x_max":738,"o":"m 453 983 l 592 983 l 738 724 l 579 724 l 506 868 l 375 724 l 197 724 l 453 983 m 342 -14 q 113 53 200 -14 q 25 246 25 119 q 35 329 25 286 q 451 672 107 672 q 652 608 579 672 q 725 440 725 543 q 718 375 725 413 l 693 257 l 226 257 q 272 166 228 192 q 426 140 315 140 q 539 150 481 140 q 638 175 597 160 l 607 29 q 342 -14 504 -14 m 526 386 l 532 415 q 535 444 535 426 q 426 521 535 521 q 309 489 349 521 q 254 386 269 457 l 526 386 m 211 -97 l 375 -97 l 343 -249 l 179 -249 l 211 -97 z "},"ề":{"ha":760,"x_min":25,"x_max":735,"o":"m 128 1100 l 294 1100 l 347 893 l 189 893 l 128 1100 m 422 925 l 590 925 l 735 725 l 563 725 l 496 836 l 382 725 l 194 725 l 422 925 m 342 -14 q 113 53 200 -14 q 25 246 25 119 q 35 329 25 286 q 451 672 107 672 q 652 608 579 672 q 725 440 725 543 q 718 375 725 413 l 693 257 l 226 257 q 272 166 228 192 q 426 140 315 140 q 539 150 481 140 q 638 175 597 160 l 607 29 q 342 -14 504 -14 m 526 386 l 532 415 q 535 444 535 426 q 426 521 535 521 q 309 489 349 521 q 254 386 269 457 l 526 386 z "},"ể":{"ha":760,"x_min":25,"x_max":953,"o":"m 685 960 q 767 973 743 961 q 794 1006 790 985 q 742 1040 803 1040 q 667 1026 704 1040 l 686 1119 q 815 1136 746 1136 q 918 1113 883 1136 q 953 1046 953 1089 q 950 1021 953 1038 q 824 907 931 924 l 814 861 l 664 861 l 685 960 m 424 924 l 592 924 l 736 724 l 564 724 l 497 835 l 383 724 l 196 724 l 424 924 m 342 -14 q 113 53 200 -14 q 25 246 25 119 q 35 329 25 286 q 451 672 107 672 q 652 608 579 672 q 725 440 725 543 q 718 375 725 413 l 693 257 l 226 257 q 272 166 228 192 q 426 140 315 140 q 539 150 481 140 q 638 175 597 160 l 607 29 q 342 -14 504 -14 m 526 386 l 532 415 q 535 444 535 426 q 426 521 535 521 q 309 489 349 521 q 254 386 269 457 l 526 386 z "},"ễ":{"ha":760,"x_min":25,"x_max":801,"o":"m 651 944 q 597 951 622 944 q 531 974 571 958 q 475 993 499 986 q 428 1000 451 1000 q 289 949 349 1000 l 317 1075 q 376 1107 339 1094 q 449 1119 413 1119 q 501 1113 478 1119 q 565 1090 525 1106 q 624 1069 601 1076 q 672 1063 646 1063 q 801 1117 751 1063 l 774 989 q 724 957 757 969 q 651 944 690 944 m 426 924 l 594 924 l 739 724 l 567 724 l 500 835 l 386 724 l 199 724 l 426 924 m 342 -14 q 113 53 200 -14 q 25 246 25 119 q 35 329 25 286 q 451 672 107 672 q 652 608 579 672 q 725 440 725 543 q 718 375 725 413 l 693 257 l 226 257 q 272 166 228 192 q 426 140 315 140 q 539 150 481 140 q 638 175 597 160 l 607 29 q 342 -14 504 -14 m 526 386 l 532 415 q 535 444 535 426 q 426 521 535 521 q 309 489 349 521 q 254 386 269 457 l 526 386 z "},"ë":{"ha":760,"x_min":25,"x_max":731,"o":"m 282 913 l 444 913 l 411 761 l 249 761 l 282 913 m 567 913 l 731 913 l 697 761 l 533 761 l 567 913 m 342 -14 q 113 53 200 -14 q 25 246 25 119 q 35 329 25 286 q 451 672 107 672 q 652 608 579 672 q 725 440 725 543 q 718 375 725 413 l 693 257 l 226 257 q 272 166 228 192 q 426 140 315 140 q 539 150 481 140 q 638 175 597 160 l 607 29 q 342 -14 504 -14 m 526 386 l 532 415 q 535 444 535 426 q 426 521 535 521 q 309 489 349 521 q 254 386 269 457 l 526 386 z "},"ė":{"ha":760,"x_min":25,"x_max":725,"o":"m 426 913 l 589 913 l 556 761 l 393 761 l 426 913 m 342 -14 q 113 53 200 -14 q 25 246 25 119 q 35 329 25 286 q 451 672 107 672 q 652 608 579 672 q 725 440 725 543 q 718 375 725 413 l 693 257 l 226 257 q 272 166 228 192 q 426 140 315 140 q 539 150 481 140 q 638 175 597 160 l 607 29 q 342 -14 504 -14 m 526 386 l 532 415 q 535 444 535 426 q 426 521 535 521 q 309 489 349 521 q 254 386 269 457 l 526 386 z "},"ẹ":{"ha":760,"x_min":25,"x_max":725,"o":"m 342 -14 q 113 53 200 -14 q 25 246 25 119 q 35 329 25 286 q 451 672 107 672 q 652 608 579 672 q 725 440 725 543 q 718 375 725 413 l 693 257 l 226 257 q 272 166 228 192 q 426 140 315 140 q 539 150 481 140 q 638 175 597 160 l 607 29 q 342 -14 504 -14 m 526 386 l 532 415 q 535 444 535 426 q 426 521 535 521 q 309 489 349 521 q 254 386 269 457 l 526 386 m 215 -97 l 379 -97 l 347 -249 l 183 -249 l 215 -97 z "},"è":{"ha":760,"x_min":25,"x_max":725,"o":"m 311 997 l 494 997 l 553 725 l 382 725 l 311 997 m 342 -14 q 113 53 200 -14 q 25 246 25 119 q 35 329 25 286 q 451 672 107 672 q 652 608 579 672 q 725 440 725 543 q 718 375 725 413 l 693 257 l 226 257 q 272 166 228 192 q 426 140 315 140 q 539 150 481 140 q 638 175 597 160 l 607 29 q 342 -14 504 -14 m 526 386 l 532 415 q 535 444 535 426 q 426 521 535 521 q 309 489 349 521 q 254 386 269 457 l 526 386 z "},"ẻ":{"ha":760,"x_min":25,"x_max":725,"o":"m 407 836 q 508 856 479 840 q 544 900 538 871 q 464 950 554 950 q 378 938 421 950 l 400 1038 q 553 1057 461 1057 q 674 1028 632 1057 q 715 947 715 999 q 713 919 715 939 q 665 831 699 861 q 565 785 631 800 l 553 724 l 383 724 l 407 836 m 342 -14 q 113 53 200 -14 q 25 246 25 119 q 35 329 25 286 q 451 672 107 672 q 652 608 579 672 q 725 440 725 543 q 718 375 725 413 l 693 257 l 226 257 q 272 166 228 192 q 426 140 315 140 q 539 150 481 140 q 638 175 597 160 l 607 29 q 342 -14 504 -14 m 526 386 l 532 415 q 535 444 535 426 q 426 521 535 521 q 309 489 349 521 q 254 386 269 457 l 526 386 z "},"ē":{"ha":760,"x_min":25,"x_max":731,"o":"m 290 908 l 731 908 l 701 774 l 261 774 l 290 908 m 342 -14 q 113 53 200 -14 q 25 246 25 119 q 35 329 25 286 q 451 672 107 672 q 652 608 579 672 q 725 440 725 543 q 718 375 725 413 l 693 257 l 226 257 q 272 166 228 192 q 426 140 315 140 q 539 150 481 140 q 638 175 597 160 l 607 29 q 342 -14 504 -14 m 526 386 l 532 415 q 535 444 535 426 q 426 521 535 521 q 309 489 349 521 q 254 386 269 457 l 526 386 z "},"ę":{"ha":760,"x_min":25,"x_max":725,"o":"m 353 -306 q 247 -280 288 -306 q 207 -204 207 -254 q 239 -101 207 -151 q 325 -14 271 -50 q 107 56 189 -11 q 25 246 25 122 q 35 329 25 286 q 451 672 107 672 q 652 608 579 672 q 725 440 725 543 q 718 375 725 413 l 693 257 l 226 257 q 272 166 228 192 q 426 140 315 140 q 539 150 481 140 q 638 175 597 160 l 607 29 q 503 0 563 8 q 389 -135 404 -64 q 388 -150 388 -140 q 438 -187 388 -187 q 476 -183 456 -187 q 510 -172 497 -179 l 486 -285 q 426 -299 463 -293 q 353 -306 390 -306 m 526 386 l 532 415 q 535 444 535 426 q 426 521 535 521 q 309 489 349 521 q 254 386 269 457 l 526 386 z "},"ẽ":{"ha":760,"x_min":25,"x_max":764,"o":"m 606 739 q 547 747 575 739 q 483 769 519 754 q 428 789 451 782 q 381 796 404 796 q 239 743 303 796 l 271 892 q 333 924 296 911 q 407 936 369 936 q 462 929 438 936 q 524 907 486 922 q 583 886 560 893 q 632 879 606 879 q 764 933 714 879 l 732 783 q 679 751 714 764 q 606 739 644 739 m 342 -14 q 113 53 200 -14 q 25 246 25 119 q 35 329 25 286 q 451 672 107 672 q 652 608 579 672 q 725 440 725 543 q 718 375 725 413 l 693 257 l 226 257 q 272 166 228 192 q 426 140 315 140 q 539 150 481 140 q 638 175 597 160 l 607 29 q 342 -14 504 -14 m 526 386 l 532 415 q 535 444 535 426 q 426 521 535 521 q 309 489 349 521 q 254 386 269 457 l 526 386 z "},"f":{"ha":497,"x_min":25,"x_max":628,"o":"m 128 489 l 40 489 l 76 658 l 164 658 l 176 713 q 273 896 204 833 q 471 958 342 958 q 628 929 558 958 l 596 779 q 515 794 554 794 q 435 774 461 794 q 399 708 408 754 l 388 658 l 550 658 l 504 489 l 351 489 l 249 0 l 25 0 l 128 489 z "},"g":{"ha":832,"x_min":19,"x_max":821,"o":"m 219 -244 q 124 -240 183 -244 q 39 -231 65 -236 l 75 -65 q 142 -78 100 -74 q 218 -83 185 -83 q 394 -61 339 -83 q 461 18 450 -39 l 467 43 q 376 8 428 21 q 272 -4 324 -4 q 87 49 154 -4 q 19 215 19 103 q 29 306 19 258 q 165 578 65 483 q 421 672 265 672 q 531 654 488 672 q 604 601 574 636 l 628 658 l 821 658 l 694 60 q 553 -167 664 -89 q 219 -244 442 -244 m 369 158 q 500 201 442 158 l 556 458 q 444 508 522 508 q 324 459 368 508 q 257 307 279 410 q 249 240 249 268 q 276 176 249 194 q 369 158 303 158 z "},"ğ":{"ha":832,"x_min":19,"x_max":821,"o":"m 460 725 q 316 771 368 725 q 264 900 264 817 q 271 964 264 926 l 408 964 q 403 918 403 942 q 478 850 403 850 q 557 881 526 850 q 597 964 588 913 l 753 964 q 653 787 729 849 q 460 725 578 725 m 219 -244 q 124 -240 183 -244 q 39 -231 65 -236 l 75 -65 q 142 -78 100 -74 q 218 -83 185 -83 q 394 -61 339 -83 q 461 18 450 -39 l 467 43 q 376 8 428 21 q 272 -4 324 -4 q 87 49 154 -4 q 19 215 19 103 q 29 306 19 258 q 165 578 65 483 q 421 672 265 672 q 531 654 488 672 q 604 601 574 636 l 628 658 l 821 658 l 694 60 q 553 -167 664 -89 q 219 -244 442 -244 m 369 158 q 500 201 442 158 l 556 458 q 444 508 522 508 q 324 459 368 508 q 257 307 279 410 q 249 240 249 268 q 276 176 249 194 q 369 158 303 158 z "},"ǧ":{"ha":832,"x_min":19,"x_max":821,"o":"m 267 985 l 428 985 l 497 840 l 632 985 l 807 985 l 550 725 l 411 725 l 267 985 m 219 -244 q 124 -240 183 -244 q 39 -231 65 -236 l 75 -65 q 142 -78 100 -74 q 218 -83 185 -83 q 394 -61 339 -83 q 461 18 450 -39 l 467 43 q 376 8 428 21 q 272 -4 324 -4 q 87 49 154 -4 q 19 215 19 103 q 29 306 19 258 q 165 578 65 483 q 421 672 265 672 q 531 654 488 672 q 604 601 574 636 l 628 658 l 821 658 l 694 60 q 553 -167 664 -89 q 219 -244 442 -244 m 369 158 q 500 201 442 158 l 556 458 q 444 508 522 508 q 324 459 368 508 q 257 307 279 410 q 249 240 249 268 q 276 176 249 194 q 369 158 303 158 z "},"ĝ":{"ha":832,"x_min":19,"x_max":821,"o":"m 451 983 l 590 983 l 736 724 l 578 724 l 504 868 l 374 724 l 196 724 l 451 983 m 219 -244 q 124 -240 183 -244 q 39 -231 65 -236 l 75 -65 q 142 -78 100 -74 q 218 -83 185 -83 q 394 -61 339 -83 q 461 18 450 -39 l 467 43 q 376 8 428 21 q 272 -4 324 -4 q 87 49 154 -4 q 19 215 19 103 q 29 306 19 258 q 165 578 65 483 q 421 672 265 672 q 531 654 488 672 q 604 601 574 636 l 628 658 l 821 658 l 694 60 q 553 -167 664 -89 q 219 -244 442 -244 m 369 158 q 500 201 442 158 l 556 458 q 444 508 522 508 q 324 459 368 508 q 257 307 279 410 q 249 240 249 268 q 276 176 249 194 q 369 158 303 158 z "},"ģ":{"ha":832,"x_min":19,"x_max":821,"o":"m 503 1021 l 653 1021 l 544 725 l 365 725 l 503 1021 m 219 -244 q 124 -240 183 -244 q 39 -231 65 -236 l 75 -65 q 142 -78 100 -74 q 218 -83 185 -83 q 394 -61 339 -83 q 461 18 450 -39 l 467 43 q 376 8 428 21 q 272 -4 324 -4 q 87 49 154 -4 q 19 215 19 103 q 29 306 19 258 q 165 578 65 483 q 421 672 265 672 q 531 654 488 672 q 604 601 574 636 l 628 658 l 821 658 l 694 60 q 553 -167 664 -89 q 219 -244 442 -244 m 369 158 q 500 201 442 158 l 556 458 q 444 508 522 508 q 324 459 368 508 q 257 307 279 410 q 249 240 249 268 q 276 176 249 194 q 369 158 303 158 z "},"ġ":{"ha":832,"x_min":19,"x_max":821,"o":"m 404 894 l 567 894 l 533 743 l 371 743 l 404 894 m 219 -244 q 124 -240 183 -244 q 39 -231 65 -236 l 75 -65 q 142 -78 100 -74 q 218 -83 185 -83 q 394 -61 339 -83 q 461 18 450 -39 l 467 43 q 376 8 428 21 q 272 -4 324 -4 q 87 49 154 -4 q 19 215 19 103 q 29 306 19 258 q 165 578 65 483 q 421 672 265 672 q 531 654 488 672 q 604 601 574 636 l 628 658 l 821 658 l 694 60 q 553 -167 664 -89 q 219 -244 442 -244 m 369 158 q 500 201 442 158 l 556 458 q 444 508 522 508 q 324 459 368 508 q 257 307 279 410 q 249 240 249 268 q 276 176 249 194 q 369 158 303 158 z "},"ḡ":{"ha":832,"x_min":19,"x_max":821,"o":"m 283 900 l 724 900 l 694 765 l 254 765 l 283 900 m 219 -244 q 124 -240 183 -244 q 39 -231 65 -236 l 75 -65 q 142 -78 100 -74 q 218 -83 185 -83 q 394 -61 339 -83 q 461 18 450 -39 l 467 43 q 376 8 428 21 q 272 -4 324 -4 q 87 49 154 -4 q 19 215 19 103 q 29 306 19 258 q 165 578 65 483 q 421 672 265 672 q 531 654 488 672 q 604 601 574 636 l 628 658 l 821 658 l 694 60 q 553 -167 664 -89 q 219 -244 442 -244 m 369 158 q 500 201 442 158 l 556 458 q 444 508 522 508 q 324 459 368 508 q 257 307 279 410 q 249 240 249 268 q 276 176 249 194 q 369 158 303 158 z "},"h":{"ha":826,"x_min":-7,"x_max":782,"o":"m 192 936 l 415 936 l 346 610 q 449 655 390 638 q 571 672 508 672 q 728 628 674 672 q 782 497 782 585 q 772 418 782 458 l 685 0 l 461 0 l 546 403 q 551 447 551 425 q 531 493 551 479 q 460 507 510 507 q 383 490 424 507 q 311 449 342 474 l 217 0 l -7 0 l 192 936 z "},"ħ":{"ha":826,"x_min":-7,"x_max":782,"o":"m 147 726 l 85 726 l 114 867 l 176 867 l 192 936 l 415 936 l 400 867 l 571 867 l 542 726 l 371 726 l 346 610 q 449 655 390 638 q 571 672 508 672 q 728 628 674 672 q 782 497 782 585 q 772 418 782 458 l 685 0 l 461 0 l 546 403 q 551 447 551 425 q 531 493 551 479 q 460 507 510 507 q 383 490 424 507 q 311 449 342 474 l 217 0 l -7 0 l 147 726 z "},"ḫ":{"ha":826,"x_min":-7,"x_max":782,"o":"m 192 936 l 415 936 l 346 610 q 449 655 390 638 q 571 672 508 672 q 728 628 674 672 q 782 497 782 585 q 772 418 782 458 l 685 0 l 461 0 l 546 403 q 551 447 551 425 q 531 493 551 479 q 460 507 510 507 q 383 490 424 507 q 311 449 342 474 l 217 0 l -7 0 l 192 936 m 275 -315 q 131 -270 183 -315 q 79 -142 79 -225 q 86 -76 79 -106 l 225 -76 q 218 -126 218 -101 q 237 -175 218 -160 q 293 -190 256 -190 q 372 -159 342 -190 q 413 -76 401 -128 l 568 -76 q 467 -253 543 -192 q 275 -315 392 -315 z "},"ĥ":{"ha":826,"x_min":-7,"x_max":782,"o":"m 461 1240 l 600 1240 l 746 981 l 588 981 l 514 1125 l 383 981 l 206 981 l 461 1240 m 192 936 l 415 936 l 346 610 q 449 655 390 638 q 571 672 508 672 q 728 628 674 672 q 782 497 782 585 q 772 418 782 458 l 685 0 l 461 0 l 546 403 q 551 447 551 425 q 531 493 551 479 q 460 507 510 507 q 383 490 424 507 q 311 449 342 474 l 217 0 l -7 0 l 192 936 z "},"ḥ":{"ha":826,"x_min":-7,"x_max":782,"o":"m 192 936 l 415 936 l 346 610 q 449 655 390 638 q 571 672 508 672 q 728 628 674 672 q 782 497 782 585 q 772 418 782 458 l 685 0 l 461 0 l 546 403 q 551 447 551 425 q 531 493 551 479 q 460 507 510 507 q 383 490 424 507 q 311 449 342 474 l 217 0 l -7 0 l 192 936 m 238 -111 l 401 -111 l 369 -262 l 206 -262 l 238 -111 z "},"i":{"ha":464,"x_min":90,"x_max":513,"o":"m 269 931 l 513 931 l 476 763 l 233 763 l 269 931 m 194 493 l 97 493 l 151 658 l 453 658 l 314 0 l 90 0 l 194 493 z "},"ı":{"ha":464,"x_min":90,"x_max":453,"o":"m 194 493 l 97 493 l 151 658 l 453 658 l 314 0 l 90 0 l 194 493 z "},"í":{"ha":464,"x_min":90,"x_max":601,"o":"m 418 997 l 601 997 l 415 725 l 243 725 l 418 997 m 194 493 l 97 493 l 151 658 l 453 658 l 314 0 l 90 0 l 194 493 z "},"ĭ":{"ha":464,"x_min":90,"x_max":606,"o":"m 313 725 q 167 771 219 725 q 115 900 115 817 q 122 964 115 926 l 263 964 q 258 921 258 942 q 332 850 258 850 q 411 881 381 850 q 451 964 442 913 l 606 964 q 507 787 582 849 q 313 725 432 725 m 194 493 l 97 493 l 151 658 l 453 658 l 314 0 l 90 0 l 194 493 z "},"ǐ":{"ha":464,"x_min":90,"x_max":643,"o":"m 103 983 l 264 983 l 333 839 l 468 983 l 643 983 l 386 724 l 247 724 l 103 983 m 194 493 l 97 493 l 151 658 l 453 658 l 314 0 l 90 0 l 194 493 z "},"î":{"ha":464,"x_min":46,"x_max":586,"o":"m 301 983 l 440 983 l 586 724 l 428 724 l 354 868 l 224 724 l 46 724 l 301 983 m 194 493 l 97 493 l 151 658 l 453 658 l 314 0 l 90 0 l 194 493 z "},"ï":{"ha":464,"x_min":90,"x_max":576,"o":"m 128 913 l 290 913 l 257 761 l 94 761 l 128 913 m 413 913 l 576 913 l 543 761 l 379 761 l 413 913 m 194 493 l 97 493 l 151 658 l 453 658 l 314 0 l 90 0 l 194 493 z "},"ị":{"ha":464,"x_min":64,"x_max":513,"o":"m 269 931 l 513 931 l 476 763 l 233 763 l 269 931 m 194 493 l 97 493 l 151 658 l 453 658 l 314 0 l 90 0 l 194 493 m 96 -97 l 260 -97 l 228 -249 l 64 -249 l 96 -97 z "},"ì":{"ha":464,"x_min":90,"x_max":453,"o":"m 192 997 l 375 997 l 433 725 l 263 725 l 192 997 m 194 493 l 97 493 l 151 658 l 453 658 l 314 0 l 90 0 l 194 493 z "},"ỉ":{"ha":464,"x_min":90,"x_max":558,"o":"m 250 836 q 351 856 322 840 q 388 900 381 871 q 307 950 397 950 q 221 938 264 950 l 243 1038 q 396 1057 304 1057 q 517 1028 475 1057 q 558 947 558 999 q 556 919 558 939 q 508 831 542 861 q 408 785 474 800 l 396 724 l 226 724 l 250 836 m 194 493 l 97 493 l 151 658 l 453 658 l 314 0 l 90 0 l 194 493 z "},"ĳ":{"ha":838,"x_min":90,"x_max":886,"o":"m 269 931 l 513 931 l 476 763 l 233 763 l 269 931 m 643 931 l 886 931 l 850 763 l 607 763 l 643 931 m 194 493 l 97 493 l 151 658 l 453 658 l 314 0 l 90 0 l 194 493 m 379 -325 q 222 -297 282 -325 l 254 -146 q 335 -160 294 -160 q 414 -140 389 -160 q 449 -76 439 -121 l 569 493 l 472 493 l 526 658 l 828 658 l 668 -96 q 577 -265 644 -206 q 379 -325 510 -325 z "},"ī":{"ha":464,"x_min":90,"x_max":575,"o":"m 133 932 l 575 932 l 546 797 l 104 797 l 133 932 m 194 493 l 97 493 l 151 658 l 453 658 l 314 0 l 90 0 l 194 493 z "},"į":{"ha":464,"x_min":-14,"x_max":513,"o":"m 269 931 l 513 931 l 476 763 l 233 763 l 269 931 m 132 -306 q 26 -280 67 -306 q -14 -204 -14 -254 q -11 -175 -14 -186 q 35 -78 -1 -124 q 126 0 72 -32 l 90 0 l 194 493 l 97 493 l 151 658 l 453 658 l 314 0 l 283 0 q 168 -135 183 -65 q 167 -150 167 -140 q 217 -187 167 -187 q 256 -183 235 -187 q 289 -172 276 -179 l 265 -285 q 206 -299 242 -293 q 132 -306 169 -306 z "},"ĩ":{"ha":464,"x_min":71,"x_max":596,"o":"m 438 747 q 379 755 407 747 q 315 778 351 763 q 260 797 283 790 q 213 804 236 804 q 71 751 135 804 l 103 900 q 165 932 128 919 q 239 944 201 944 q 294 938 269 944 q 356 915 318 931 q 415 894 392 901 q 464 888 438 888 q 596 942 546 888 l 564 792 q 511 760 546 772 q 438 747 476 747 m 194 493 l 97 493 l 151 658 l 453 658 l 314 0 l 90 0 l 194 493 z "},"j":{"ha":392,"x_min":-224,"x_max":440,"o":"m 197 931 l 440 931 l 404 763 l 161 763 l 197 931 m -67 -325 q -224 -297 -164 -325 l -192 -146 q -111 -160 -151 -160 q -32 -140 -57 -160 q 3 -76 -7 -121 l 124 493 l 26 493 l 81 658 l 382 658 l 222 -96 q 131 -265 199 -206 q -67 -325 64 -325 z "},"ȷ":{"ha":392,"x_min":-224,"x_max":382,"o":"m -67 -325 q -224 -297 -164 -325 l -192 -146 q -111 -160 -151 -160 q -34 -140 -61 -160 q 3 -76 -7 -119 l 124 493 l 26 493 l 81 658 l 382 658 l 222 -96 q 126 -264 200 -203 q -67 -325 53 -325 z "},"ĵ":{"ha":392,"x_min":-224,"x_max":528,"o":"m 243 983 l 382 983 l 528 724 l 369 724 l 296 868 l 165 724 l -12 724 l 243 983 m -67 -325 q -224 -297 -164 -325 l -192 -146 q -111 -160 -151 -160 q -34 -140 -61 -160 q 3 -76 -7 -119 l 124 493 l 26 493 l 81 658 l 382 658 l 222 -96 q 126 -264 200 -203 q -67 -325 53 -325 z "},"k":{"ha":822,"x_min":-7,"x_max":825,"o":"m 192 936 l 415 936 l 311 447 l 571 658 l 825 658 l 503 385 l 701 0 l 464 0 l 338 267 l 260 203 l 217 0 l -7 0 l 192 936 z "},"ķ":{"ha":822,"x_min":-7,"x_max":825,"o":"m 192 936 l 415 936 l 311 447 l 571 658 l 825 658 l 503 385 l 701 0 l 464 0 l 338 267 l 260 203 l 217 0 l -7 0 l 192 936 m 217 -51 l 396 -51 l 258 -347 l 108 -347 l 217 -51 z "},"ĸ":{"ha":822,"x_min":-7,"x_max":825,"o":"m 132 658 l 356 658 l 307 426 l 571 658 l 825 658 l 500 368 l 701 0 l 464 0 l 336 250 l 254 181 l 217 0 l -7 0 l 132 658 z "},"l":{"ha":428,"x_min":25,"x_max":415,"o":"m 192 -14 q 67 18 108 -14 q 25 119 25 50 q 32 185 25 156 l 192 936 l 415 936 l 260 207 q 257 186 257 190 q 268 159 257 167 q 301 151 279 151 q 369 161 339 151 l 338 10 q 269 -8 301 -3 q 192 -14 236 -14 z "},"ĺ":{"ha":428,"x_min":25,"x_max":594,"o":"m 411 1301 l 594 1301 l 408 1029 l 236 1029 l 411 1301 m 192 -14 q 67 18 108 -14 q 25 119 25 50 q 32 185 25 156 l 192 936 l 415 936 l 260 207 q 257 186 257 190 q 268 159 257 167 q 301 151 279 151 q 369 161 339 151 l 338 10 q 269 -8 301 -3 q 192 -14 236 -14 z "},"ľ":{"ha":428,"x_min":25,"x_max":760,"o":"m 581 1226 l 760 1226 l 622 931 l 472 931 l 581 1226 m 192 -14 q 67 18 108 -14 q 25 119 25 50 q 32 185 25 156 l 192 936 l 415 936 l 260 207 q 257 186 257 190 q 268 159 257 167 q 301 151 279 151 q 369 161 339 151 l 338 10 q 269 -8 301 -3 q 192 -14 236 -14 z "},"ļ":{"ha":428,"x_min":-18,"x_max":415,"o":"m 192 -14 q 67 18 108 -14 q 25 119 25 50 q 32 185 25 156 l 192 936 l 415 936 l 260 207 q 257 186 257 190 q 268 159 257 167 q 301 151 279 151 q 369 161 339 151 l 338 10 q 269 -8 301 -3 q 192 -14 236 -14 m 90 -51 l 269 -51 l 132 -347 l -18 -347 l 90 -51 z "},"ŀ":{"ha":510,"x_min":25,"x_max":597,"o":"m 192 -14 q 67 18 108 -14 q 25 119 25 50 q 32 185 25 156 l 192 936 l 415 936 l 260 207 q 257 186 257 190 q 268 159 257 167 q 301 151 279 151 q 369 161 339 151 l 338 10 q 269 -8 301 -3 q 192 -14 236 -14 m 433 551 l 597 551 l 564 400 l 400 400 l 433 551 z "},"ḷ":{"ha":428,"x_min":25,"x_max":415,"o":"m 192 -14 q 67 18 108 -14 q 25 119 25 50 q 32 185 25 156 l 192 936 l 415 936 l 260 207 q 257 186 257 190 q 268 159 257 167 q 301 151 279 151 q 369 161 339 151 l 338 10 q 269 -8 301 -3 q 192 -14 236 -14 m 64 -97 l 228 -97 l 196 -249 l 32 -249 l 64 -97 z "},"ḹ":{"ha":428,"x_min":25,"x_max":569,"o":"m 129 1142 l 569 1142 l 540 1007 l 100 1007 l 129 1142 m 192 -14 q 67 18 108 -14 q 25 119 25 50 q 32 185 25 156 l 192 936 l 415 936 l 260 207 q 257 186 257 190 q 268 159 257 167 q 301 151 279 151 q 369 161 339 151 l 338 10 q 269 -8 301 -3 q 192 -14 236 -14 m 64 -97 l 228 -97 l 196 -249 l 32 -249 l 64 -97 z "},"ḻ":{"ha":428,"x_min":-118,"x_max":415,"o":"m 192 -14 q 67 18 108 -14 q 25 119 25 50 q 32 185 25 156 l 192 936 l 415 936 l 260 207 q 257 186 257 190 q 268 159 257 167 q 301 151 279 151 q 369 161 339 151 l 338 10 q 269 -8 301 -3 q 192 -14 236 -14 m -89 -97 l 351 -97 l 322 -233 l -118 -233 l -89 -97 z "},"ł":{"ha":428,"x_min":-56,"x_max":475,"o":"m 192 -14 q 64 17 104 -14 q 24 114 24 47 q 32 185 24 146 l 68 358 l -56 308 l -22 468 l 103 518 l 192 936 l 415 936 l 347 615 l 475 667 l 440 507 l 313 456 l 260 207 q 257 186 257 190 q 268 159 257 167 q 301 151 279 151 q 369 161 339 151 l 338 10 q 269 -8 301 -3 q 192 -14 236 -14 z "},"m":{"ha":1193,"x_min":-7,"x_max":1151,"o":"m 132 658 l 339 658 l 333 600 q 568 672 450 672 q 667 653 632 672 q 715 596 701 633 q 969 672 835 672 q 1106 630 1061 672 q 1151 508 1151 588 q 1142 431 1151 479 l 1051 0 l 831 0 l 915 404 q 919 443 919 425 q 900 492 919 476 q 840 507 881 507 q 774 494 807 507 q 715 457 742 481 q 707 394 715 432 l 624 0 l 415 0 l 501 407 q 507 450 507 440 q 491 493 507 479 q 439 507 475 507 q 371 491 406 507 q 306 447 336 475 l 211 0 l -7 0 l 132 658 z "},"ṃ":{"ha":1193,"x_min":-7,"x_max":1151,"o":"m 132 658 l 339 658 l 333 600 q 568 672 450 672 q 667 653 632 672 q 715 596 701 633 q 969 672 835 672 q 1106 630 1061 672 q 1151 508 1151 588 q 1142 431 1151 479 l 1051 0 l 831 0 l 915 404 q 919 443 919 425 q 900 492 919 476 q 840 507 881 507 q 774 494 807 507 q 715 457 742 481 q 707 394 715 432 l 624 0 l 415 0 l 501 407 q 507 450 507 440 q 491 493 507 479 q 439 507 475 507 q 371 491 406 507 q 306 447 336 475 l 211 0 l -7 0 l 132 658 m 426 -97 l 590 -97 l 558 -249 l 394 -249 l 426 -97 z "},"n":{"ha":826,"x_min":-7,"x_max":783,"o":"m 132 658 l 340 658 l 336 601 q 451 652 385 632 q 582 672 517 672 q 783 501 783 672 q 774 422 783 474 l 685 0 l 461 0 l 546 404 q 551 447 551 426 q 531 493 551 479 q 464 507 511 507 q 385 490 428 507 q 311 449 342 474 l 217 0 l -7 0 l 132 658 z "},"ń":{"ha":826,"x_min":-7,"x_max":783,"o":"m 547 997 l 731 997 l 544 725 l 372 725 l 547 997 m 132 658 l 340 658 l 336 601 q 451 652 385 632 q 582 672 517 672 q 783 501 783 672 q 774 422 783 474 l 685 0 l 461 0 l 546 404 q 551 447 551 426 q 531 493 551 479 q 464 507 511 507 q 385 490 428 507 q 311 449 342 474 l 217 0 l -7 0 l 132 658 z "},"ŉ":{"ha":960,"x_min":21,"x_max":917,"o":"m 129 894 l 308 894 l 171 599 l 21 599 l 129 894 m 265 658 l 474 658 l 469 601 q 584 652 518 632 q 715 672 650 672 q 917 501 917 672 q 907 422 917 474 l 818 0 l 594 0 l 679 404 q 685 447 685 426 q 665 493 685 479 q 597 507 644 507 q 518 490 561 507 q 444 449 475 474 l 350 0 l 126 0 l 265 658 z "},"ň":{"ha":826,"x_min":-7,"x_max":799,"o":"m 258 983 l 419 983 l 489 839 l 624 983 l 799 983 l 542 724 l 403 724 l 258 983 m 132 658 l 340 658 l 336 601 q 451 652 385 632 q 582 672 517 672 q 783 501 783 672 q 774 422 783 474 l 685 0 l 461 0 l 546 404 q 551 447 551 426 q 531 493 551 479 q 464 507 511 507 q 385 490 428 507 q 311 449 342 474 l 217 0 l -7 0 l 132 658 z "},"ņ":{"ha":826,"x_min":-7,"x_max":783,"o":"m 132 658 l 340 658 l 336 601 q 451 652 385 632 q 582 672 517 672 q 783 501 783 672 q 774 422 783 474 l 685 0 l 461 0 l 546 404 q 551 447 551 426 q 531 493 551 479 q 464 507 511 507 q 385 490 428 507 q 311 449 342 474 l 217 0 l -7 0 l 132 658 m 253 -51 l 432 -51 l 294 -347 l 144 -347 l 253 -51 z "},"ṅ":{"ha":826,"x_min":-7,"x_max":783,"o":"m 451 913 l 614 913 l 581 761 l 418 761 l 451 913 m 132 658 l 340 658 l 336 601 q 451 652 385 632 q 582 672 517 672 q 783 501 783 672 q 774 422 783 474 l 685 0 l 461 0 l 546 404 q 551 447 551 426 q 531 493 551 479 q 464 507 511 507 q 385 490 428 507 q 311 449 342 474 l 217 0 l -7 0 l 132 658 z "},"ṇ":{"ha":826,"x_min":-7,"x_max":783,"o":"m 132 658 l 340 658 l 336 601 q 451 652 385 632 q 582 672 517 672 q 783 501 783 672 q 774 422 783 474 l 685 0 l 461 0 l 546 404 q 551 447 551 426 q 531 493 551 479 q 464 507 511 507 q 385 490 428 507 q 311 449 342 474 l 217 0 l -7 0 l 132 658 m 246 -97 l 410 -97 l 378 -249 l 214 -249 l 246 -97 z "},"ŋ":{"ha":826,"x_min":-7,"x_max":783,"o":"m 374 -325 q 215 -297 275 -325 l 247 -149 q 328 -162 285 -162 q 406 -142 378 -162 q 443 -76 433 -121 l 544 404 q 550 444 550 425 q 529 492 550 478 q 460 507 508 507 q 383 490 424 507 q 311 449 342 474 l 217 0 l -7 0 l 132 658 l 340 658 l 336 601 q 451 652 385 632 q 582 672 517 672 q 734 632 685 672 q 783 508 783 592 q 774 422 783 467 l 664 -96 q 567 -263 642 -201 q 374 -325 493 -325 z "},"ṉ":{"ha":826,"x_min":-7,"x_max":783,"o":"m 132 658 l 340 658 l 336 601 q 451 652 385 632 q 582 672 517 672 q 783 501 783 672 q 774 422 783 474 l 685 0 l 461 0 l 546 404 q 551 447 551 426 q 531 493 551 479 q 464 507 511 507 q 385 490 428 507 q 311 449 342 474 l 217 0 l -7 0 l 132 658 m 104 -94 l 544 -94 l 515 -231 l 75 -231 l 104 -94 z "},"ñ":{"ha":826,"x_min":-7,"x_max":783,"o":"m 624 739 q 566 747 594 739 q 501 769 538 754 q 446 789 469 782 q 399 796 422 796 q 257 743 321 796 l 289 892 q 351 924 314 911 q 425 936 388 936 q 480 929 456 936 q 542 907 504 922 q 601 886 578 893 q 650 879 624 879 q 782 933 732 879 l 750 783 q 697 751 732 764 q 624 739 663 739 m 132 658 l 340 658 l 336 601 q 451 652 385 632 q 582 672 517 672 q 783 501 783 672 q 774 422 783 474 l 685 0 l 461 0 l 546 404 q 551 447 551 426 q 531 493 551 479 q 464 507 511 507 q 385 490 428 507 q 311 449 342 474 l 217 0 l -7 0 l 132 658 z "},"o":{"ha":829,"x_min":24,"x_max":789,"o":"m 332 -14 q 103 49 182 -14 q 24 233 24 113 q 35 329 24 274 q 177 585 71 499 q 478 672 283 672 q 710 608 631 672 q 789 424 789 544 q 778 329 789 382 q 635 72 742 157 q 332 -14 529 -14 m 369 161 q 489 200 447 161 q 550 329 531 239 q 558 397 558 369 q 531 474 558 450 q 442 497 503 497 q 323 458 365 497 q 263 329 281 418 q 254 260 254 290 q 282 185 254 208 q 369 161 310 161 z "},"ó":{"ha":829,"x_min":24,"x_max":789,"o":"m 564 997 l 747 997 l 561 725 l 389 725 l 564 997 m 332 -14 q 103 49 182 -14 q 24 233 24 113 q 35 329 24 274 q 177 585 71 499 q 478 672 283 672 q 710 608 631 672 q 789 424 789 544 q 778 329 789 382 q 635 72 742 157 q 332 -14 529 -14 m 369 161 q 489 200 447 161 q 550 329 531 239 q 558 397 558 369 q 531 474 558 450 q 442 497 503 497 q 323 458 365 497 q 263 329 281 418 q 254 260 254 290 q 282 185 254 208 q 369 161 310 161 z "},"ŏ":{"ha":829,"x_min":24,"x_max":789,"o":"m 489 725 q 345 771 397 725 q 293 900 293 817 q 300 964 293 926 l 438 964 q 432 918 432 942 q 507 850 432 850 q 586 881 556 850 q 626 964 617 913 l 782 964 q 683 787 758 849 q 489 725 607 725 m 332 -14 q 103 49 182 -14 q 24 233 24 113 q 35 329 24 274 q 177 585 71 499 q 478 672 283 672 q 710 608 631 672 q 789 424 789 544 q 778 329 789 382 q 635 72 742 157 q 332 -14 529 -14 m 369 161 q 489 200 447 161 q 550 329 531 239 q 558 397 558 369 q 531 474 558 450 q 442 497 503 497 q 323 458 365 497 q 263 329 281 418 q 254 260 254 290 q 282 185 254 208 q 369 161 310 161 z "},"ǒ":{"ha":829,"x_min":24,"x_max":815,"o":"m 275 983 l 436 983 l 506 839 l 640 983 l 815 983 l 558 724 l 419 724 l 275 983 m 332 -14 q 103 49 182 -14 q 24 233 24 113 q 35 329 24 274 q 177 585 71 499 q 478 672 283 672 q 710 608 631 672 q 789 424 789 544 q 778 329 789 382 q 635 72 742 157 q 332 -14 529 -14 m 369 161 q 489 200 447 161 q 550 329 531 239 q 558 397 558 369 q 531 474 558 450 q 442 497 503 497 q 323 458 365 497 q 263 329 281 418 q 254 260 254 290 q 282 185 254 208 q 369 161 310 161 z "},"ô":{"ha":829,"x_min":24,"x_max":789,"o":"m 475 983 l 614 983 l 760 724 l 601 724 l 528 868 l 397 724 l 219 724 l 475 983 m 332 -14 q 103 49 182 -14 q 24 233 24 113 q 35 329 24 274 q 177 585 71 499 q 478 672 283 672 q 710 608 631 672 q 789 424 789 544 q 778 329 789 382 q 635 72 742 157 q 332 -14 529 -14 m 369 161 q 489 200 447 161 q 550 329 531 239 q 558 397 558 369 q 531 474 558 450 q 442 497 503 497 q 323 458 365 497 q 263 329 281 418 q 254 260 254 290 q 282 185 254 208 q 369 161 310 161 z "},"ố":{"ha":829,"x_min":24,"x_max":985,"o":"m 818 1099 l 985 1099 l 838 892 l 681 892 l 818 1099 m 447 924 l 615 924 l 760 724 l 588 724 l 521 835 l 407 724 l 219 724 l 447 924 m 332 -14 q 103 49 182 -14 q 24 233 24 113 q 35 329 24 274 q 177 585 71 499 q 478 672 283 672 q 710 608 631 672 q 789 424 789 544 q 778 329 789 382 q 635 72 742 157 q 332 -14 529 -14 m 369 161 q 489 200 447 161 q 550 329 531 239 q 558 397 558 369 q 531 474 558 450 q 442 497 503 497 q 323 458 365 497 q 263 329 281 418 q 254 260 254 290 q 282 185 254 208 q 369 161 310 161 z "},"ộ":{"ha":829,"x_min":24,"x_max":789,"o":"m 475 983 l 614 983 l 760 724 l 601 724 l 528 868 l 397 724 l 219 724 l 475 983 m 332 -14 q 103 49 182 -14 q 24 233 24 113 q 35 329 24 274 q 177 585 71 499 q 478 672 283 672 q 710 608 631 672 q 789 424 789 544 q 778 329 789 382 q 635 72 742 157 q 332 -14 529 -14 m 369 161 q 489 200 447 161 q 550 329 531 239 q 558 397 558 369 q 531 474 558 450 q 442 497 503 497 q 323 458 365 497 q 263 329 281 418 q 254 260 254 290 q 282 185 254 208 q 369 161 310 161 m 233 -97 l 397 -97 l 365 -249 l 201 -249 l 233 -97 z "},"ồ":{"ha":829,"x_min":24,"x_max":789,"o":"m 149 1099 l 315 1099 l 368 892 l 210 892 l 149 1099 m 443 924 l 611 924 l 756 724 l 583 724 l 517 835 l 403 724 l 215 724 l 443 924 m 332 -14 q 103 49 182 -14 q 24 233 24 113 q 35 329 24 274 q 177 585 71 499 q 478 672 283 672 q 710 608 631 672 q 789 424 789 544 q 778 329 789 382 q 635 72 742 157 q 332 -14 529 -14 m 369 161 q 489 200 447 161 q 550 329 531 239 q 558 397 558 369 q 531 474 558 450 q 442 497 503 497 q 323 458 365 497 q 263 329 281 418 q 254 260 254 290 q 282 185 254 208 q 369 161 310 161 z "},"ổ":{"ha":829,"x_min":24,"x_max":974,"o":"m 706 960 q 788 973 764 961 q 815 1006 811 985 q 763 1040 824 1040 q 688 1026 725 1040 l 707 1119 q 836 1136 767 1136 q 939 1113 904 1136 q 974 1046 974 1089 q 971 1021 974 1038 q 844 907 951 924 l 835 861 l 685 861 l 706 960 m 444 924 l 613 924 l 757 724 l 585 724 l 518 835 l 404 724 l 217 724 l 444 924 m 332 -14 q 103 49 182 -14 q 24 233 24 113 q 35 329 24 274 q 177 585 71 499 q 478 672 283 672 q 710 608 631 672 q 789 424 789 544 q 778 329 789 382 q 635 72 742 157 q 332 -14 529 -14 m 369 161 q 489 200 447 161 q 550 329 531 239 q 558 397 558 369 q 531 474 558 450 q 442 497 503 497 q 323 458 365 497 q 263 329 281 418 q 254 260 254 290 q 282 185 254 208 q 369 161 310 161 z "},"ỗ":{"ha":829,"x_min":24,"x_max":819,"o":"m 669 978 q 614 985 640 978 q 550 1007 588 993 q 494 1026 518 1019 q 447 1033 471 1033 q 308 982 368 1033 l 335 1108 q 395 1140 358 1128 q 468 1153 432 1153 q 522 1146 497 1153 q 583 1124 546 1139 q 642 1103 619 1110 q 690 1096 664 1096 q 764 1110 731 1096 q 819 1150 797 1125 l 794 1022 q 742 990 776 1003 q 669 978 708 978 m 492 725 q 345 765 399 725 q 292 889 292 806 q 299 953 292 914 l 422 953 q 417 908 417 919 q 438 854 417 871 q 511 838 460 838 q 599 868 564 838 q 646 953 635 899 l 779 953 q 682 780 754 835 q 492 725 610 725 m 332 -14 q 103 49 182 -14 q 24 233 24 113 q 35 329 24 274 q 177 585 71 499 q 478 672 283 672 q 710 608 631 672 q 789 424 789 544 q 778 329 789 382 q 635 72 742 157 q 332 -14 529 -14 m 369 161 q 489 200 447 161 q 550 329 531 239 q 558 397 558 369 q 531 474 558 450 q 442 497 503 497 q 323 458 365 497 q 263 329 281 418 q 254 260 254 290 q 282 185 254 208 q 369 161 310 161 z "},"ö":{"ha":829,"x_min":24,"x_max":789,"o":"m 306 913 l 468 913 l 435 761 l 272 761 l 306 913 m 590 913 l 754 913 l 721 761 l 557 761 l 590 913 m 332 -14 q 103 49 182 -14 q 24 233 24 113 q 35 329 24 274 q 177 585 71 499 q 478 672 283 672 q 710 608 631 672 q 789 424 789 544 q 778 329 789 382 q 635 72 742 157 q 332 -14 529 -14 m 369 161 q 489 200 447 161 q 550 329 531 239 q 558 397 558 369 q 531 474 558 450 q 442 497 503 497 q 323 458 365 497 q 263 329 281 418 q 254 260 254 290 q 282 185 254 208 q 369 161 310 161 z "},"ọ":{"ha":829,"x_min":24,"x_max":789,"o":"m 332 -14 q 103 49 182 -14 q 24 233 24 113 q 35 329 24 274 q 177 585 71 499 q 478 672 283 672 q 710 608 631 672 q 789 424 789 544 q 778 329 789 382 q 635 72 742 157 q 332 -14 529 -14 m 369 161 q 489 200 447 161 q 550 329 531 239 q 558 397 558 369 q 531 474 558 450 q 442 497 503 497 q 323 458 365 497 q 263 329 281 418 q 254 260 254 290 q 282 185 254 208 q 369 161 310 161 m 233 -97 l 397 -97 l 365 -249 l 201 -249 l 233 -97 z "},"ò":{"ha":829,"x_min":24,"x_max":789,"o":"m 336 997 l 519 997 l 578 725 l 407 725 l 336 997 m 332 -14 q 103 49 182 -14 q 24 233 24 113 q 35 329 24 274 q 177 585 71 499 q 478 672 283 672 q 710 608 631 672 q 789 424 789 544 q 778 329 789 382 q 635 72 742 157 q 332 -14 529 -14 m 369 161 q 489 200 447 161 q 550 329 531 239 q 558 397 558 369 q 531 474 558 450 q 442 497 503 497 q 323 458 365 497 q 263 329 281 418 q 254 260 254 290 q 282 185 254 208 q 369 161 310 161 z "},"ỏ":{"ha":829,"x_min":24,"x_max":789,"o":"m 422 836 q 524 856 494 840 q 560 900 553 871 q 479 950 569 950 q 393 938 436 950 l 415 1038 q 568 1057 476 1057 q 689 1028 647 1057 q 731 947 731 999 q 728 919 731 939 q 680 831 714 861 q 581 785 646 800 l 568 724 l 399 724 l 422 836 m 332 -14 q 103 49 182 -14 q 24 233 24 113 q 35 329 24 274 q 177 585 71 499 q 478 672 283 672 q 710 608 631 672 q 789 424 789 544 q 778 329 789 382 q 635 72 742 157 q 332 -14 529 -14 m 369 161 q 489 200 447 161 q 550 329 531 239 q 558 397 558 369 q 531 474 558 450 q 442 497 503 497 q 323 458 365 497 q 263 329 281 418 q 254 260 254 290 q 282 185 254 208 q 369 161 310 161 z "},"ơ":{"ha":982,"x_min":24,"x_max":1056,"o":"m 332 -14 q 103 49 182 -14 q 24 233 24 113 q 35 329 24 274 q 177 585 71 499 q 478 672 283 672 q 726 593 647 672 q 842 628 804 593 q 896 744 879 663 l 1056 744 q 963 538 1026 606 q 788 451 899 469 q 778 329 792 401 q 635 72 742 157 q 332 -14 529 -14 m 369 161 q 489 200 447 161 q 550 329 531 239 q 558 397 558 369 q 531 474 558 450 q 442 497 503 497 q 323 458 365 497 q 263 329 281 418 q 254 260 254 290 q 282 185 254 208 q 369 161 310 161 z "},"ớ":{"ha":982,"x_min":24,"x_max":1056,"o":"m 574 997 l 757 997 l 571 725 l 399 725 l 574 997 m 332 -14 q 103 49 182 -14 q 24 233 24 113 q 35 329 24 274 q 177 585 71 499 q 478 672 283 672 q 726 593 647 672 q 842 628 804 593 q 896 744 879 663 l 1056 744 q 963 538 1026 606 q 788 451 899 469 q 778 329 792 401 q 635 72 742 157 q 332 -14 529 -14 m 369 161 q 489 200 447 161 q 550 329 531 239 q 558 397 558 369 q 531 474 558 450 q 442 497 503 497 q 323 458 365 497 q 263 329 281 418 q 254 260 254 290 q 282 185 254 208 q 369 161 310 161 z "},"ợ":{"ha":982,"x_min":24,"x_max":1056,"o":"m 332 -14 q 103 49 182 -14 q 24 233 24 113 q 35 329 24 274 q 177 585 71 499 q 478 672 283 672 q 726 593 647 672 q 842 628 804 593 q 896 744 879 663 l 1056 744 q 963 538 1026 606 q 788 451 899 469 q 778 329 792 401 q 635 72 742 157 q 332 -14 529 -14 m 369 161 q 489 200 447 161 q 550 329 531 239 q 558 397 558 369 q 531 474 558 450 q 442 497 503 497 q 323 458 365 497 q 263 329 281 418 q 254 260 254 290 q 282 185 254 208 q 369 161 310 161 m 239 -97 l 403 -97 l 371 -249 l 207 -249 l 239 -97 z "},"ờ":{"ha":982,"x_min":24,"x_max":1056,"o":"m 346 997 l 529 997 l 588 725 l 417 725 l 346 997 m 332 -14 q 103 49 182 -14 q 24 233 24 113 q 35 329 24 274 q 177 585 71 499 q 478 672 283 672 q 726 593 647 672 q 842 628 804 593 q 896 744 879 663 l 1056 744 q 963 538 1026 606 q 788 451 899 469 q 778 329 792 401 q 635 72 742 157 q 332 -14 529 -14 m 369 161 q 489 200 447 161 q 550 329 531 239 q 558 397 558 369 q 531 474 558 450 q 442 497 503 497 q 323 458 365 497 q 263 329 281 418 q 254 260 254 290 q 282 185 254 208 q 369 161 310 161 z "},"ở":{"ha":982,"x_min":24,"x_max":1056,"o":"m 424 836 q 525 856 496 840 q 561 900 554 871 q 481 950 571 950 q 394 938 438 950 l 417 1038 q 569 1057 478 1057 q 690 1028 649 1057 q 732 947 732 999 q 729 919 732 939 q 681 831 715 861 q 582 785 647 800 l 569 724 l 400 724 l 424 836 m 332 -14 q 103 49 182 -14 q 24 233 24 113 q 35 329 24 274 q 177 585 71 499 q 478 672 283 672 q 726 593 647 672 q 842 628 804 593 q 896 744 879 663 l 1056 744 q 963 538 1026 606 q 788 451 899 469 q 778 329 792 401 q 635 72 742 157 q 332 -14 529 -14 m 369 161 q 489 200 447 161 q 550 329 531 239 q 558 397 558 369 q 531 474 558 450 q 442 497 503 497 q 323 458 365 497 q 263 329 281 418 q 254 260 254 290 q 282 185 254 208 q 369 161 310 161 z "},"ỡ":{"ha":982,"x_min":24,"x_max":1056,"o":"m 624 733 q 566 741 594 733 q 501 764 538 749 q 446 783 469 776 q 399 790 422 790 q 257 738 321 790 l 289 886 q 351 918 314 906 q 425 931 388 931 q 480 924 456 931 q 542 901 504 917 q 601 881 578 888 q 650 874 624 874 q 782 928 732 874 l 750 778 q 697 746 732 758 q 624 733 663 733 m 332 -14 q 103 49 182 -14 q 24 233 24 113 q 35 329 24 274 q 177 585 71 499 q 478 672 283 672 q 726 593 647 672 q 842 628 804 593 q 896 744 879 663 l 1056 744 q 963 538 1026 606 q 788 451 899 469 q 778 329 792 401 q 635 72 742 157 q 332 -14 529 -14 m 369 161 q 489 200 447 161 q 550 329 531 239 q 558 397 558 369 q 531 474 558 450 q 442 497 503 497 q 323 458 365 497 q 263 329 281 418 q 254 260 254 290 q 282 185 254 208 q 369 161 310 161 z "},"ő":{"ha":829,"x_min":24,"x_max":897,"o":"m 385 974 l 576 974 l 390 724 l 218 724 l 385 974 m 704 974 l 897 974 l 710 724 l 538 724 l 704 974 m 332 -14 q 103 49 182 -14 q 24 233 24 113 q 35 329 24 274 q 177 585 71 499 q 478 672 283 672 q 710 608 631 672 q 789 424 789 544 q 778 329 789 382 q 635 72 742 157 q 332 -14 529 -14 m 369 161 q 489 200 447 161 q 550 329 531 239 q 558 397 558 369 q 531 474 558 450 q 442 497 503 497 q 323 458 365 497 q 263 329 281 418 q 254 260 254 290 q 282 185 254 208 q 369 161 310 161 z "},"ō":{"ha":829,"x_min":24,"x_max":789,"o":"m 304 908 l 744 908 l 715 774 l 275 774 l 304 908 m 332 -14 q 103 49 182 -14 q 24 233 24 113 q 35 329 24 274 q 177 585 71 499 q 478 672 283 672 q 710 608 631 672 q 789 424 789 544 q 778 329 789 382 q 635 72 742 157 q 332 -14 529 -14 m 369 161 q 489 200 447 161 q 550 329 531 239 q 558 397 558 369 q 531 474 558 450 q 442 497 503 497 q 323 458 365 497 q 263 329 281 418 q 254 260 254 290 q 282 185 254 208 q 369 161 310 161 z "},"ø":{"ha":829,"x_min":24,"x_max":788,"o":"m 156 17 q 24 233 24 76 q 35 329 24 274 q 177 585 71 499 q 478 672 283 672 q 546 668 513 672 l 585 733 l 706 733 l 650 642 q 788 422 788 583 q 778 329 788 376 q 635 72 742 157 q 332 -14 529 -14 q 258 -10 294 -14 l 221 -74 l 101 -74 l 156 17 m 443 497 l 442 497 q 323 458 365 497 q 263 329 281 418 q 253 260 253 290 q 267 201 253 224 l 443 497 m 369 161 q 489 200 447 161 q 550 329 531 239 q 558 397 558 369 q 542 461 558 436 l 361 161 l 369 161 z "},"ǿ":{"ha":829,"x_min":24,"x_max":788,"o":"m 522 997 l 706 997 l 519 725 l 347 725 l 522 997 m 156 17 q 24 233 24 76 q 35 329 24 274 q 177 585 71 499 q 478 672 283 672 q 546 668 513 672 l 585 733 l 706 733 l 650 642 q 788 422 788 583 q 778 329 788 376 q 635 72 742 157 q 332 -14 529 -14 q 258 -10 294 -14 l 221 -74 l 101 -74 l 156 17 m 443 497 l 442 497 q 323 458 365 497 q 263 329 281 418 q 253 260 253 290 q 267 201 253 224 l 443 497 m 369 161 q 489 200 447 161 q 550 329 531 239 q 558 397 558 369 q 542 461 558 436 l 361 161 l 369 161 z "},"õ":{"ha":829,"x_min":24,"x_max":789,"o":"m 622 756 q 565 763 593 756 q 500 786 536 771 q 444 806 468 799 q 397 813 421 813 q 256 760 319 813 l 288 908 q 349 940 313 928 q 424 953 386 953 q 478 946 454 953 q 540 924 503 939 q 599 903 576 910 q 649 896 622 896 q 781 950 731 896 l 749 800 q 696 768 731 781 q 622 756 661 756 m 332 -14 q 103 49 182 -14 q 24 233 24 113 q 35 329 24 274 q 177 585 71 499 q 478 672 283 672 q 710 608 631 672 q 789 424 789 544 q 778 329 789 382 q 635 72 742 157 q 332 -14 529 -14 m 369 161 q 489 200 447 161 q 550 329 531 239 q 558 397 558 369 q 531 474 558 450 q 442 497 503 497 q 323 458 365 497 q 263 329 281 418 q 254 260 254 290 q 282 185 254 208 q 369 161 310 161 z "},"œ":{"ha":1293,"x_min":24,"x_max":1258,"o":"m 332 -14 q 103 49 182 -14 q 24 233 24 113 q 35 329 24 274 q 177 585 71 499 q 478 672 283 672 q 612 653 557 672 q 708 597 667 633 q 828 652 757 632 q 985 672 899 672 q 1185 608 1113 672 q 1258 440 1258 543 q 1251 375 1258 413 l 1226 257 l 760 257 q 805 166 761 192 q 960 140 849 140 q 1072 150 1014 140 q 1171 175 1131 160 l 1140 29 q 875 -14 1038 -14 q 733 6 797 -14 q 628 67 669 26 q 332 -14 519 -14 m 1060 386 l 1065 415 q 1068 444 1068 426 q 960 521 1068 521 q 842 489 882 521 q 788 386 803 457 l 1060 386 m 369 161 q 489 200 447 161 q 550 329 531 239 q 558 397 558 369 q 531 474 558 450 q 442 497 503 497 q 323 458 365 497 q 263 329 281 418 q 254 260 254 290 q 282 185 254 208 q 369 161 310 161 z "},"p":{"ha":831,"x_min":-71,"x_max":790,"o":"m 132 658 l 326 658 l 326 601 q 547 672 426 672 q 728 613 667 672 q 790 439 790 554 q 779 329 790 383 q 649 69 746 153 q 390 -14 551 -14 q 222 29 288 -14 l 153 -300 l -71 -300 l 132 658 m 368 150 q 486 194 440 150 q 553 333 532 238 q 561 406 561 375 q 534 484 561 460 q 449 508 507 508 q 314 458 379 508 l 257 192 q 302 160 276 171 q 368 150 328 150 z "},"þ":{"ha":831,"x_min":-71,"x_max":792,"o":"m 199 972 l 422 972 l 350 628 q 540 672 431 672 q 724 613 657 672 q 792 435 792 553 q 779 329 792 388 q 649 69 742 151 q 390 -14 556 -14 q 222 29 288 -14 l 153 -300 l -71 -300 l 199 972 m 368 150 q 486 194 440 150 q 553 333 532 238 q 563 413 563 376 q 535 485 563 463 q 449 508 508 508 q 314 458 379 508 l 257 192 q 305 160 281 169 q 368 150 329 150 z "},"q":{"ha":890,"x_min":24,"x_max":821,"o":"m 593 -336 q 467 -299 511 -336 q 424 -190 424 -262 q 431 -131 424 -168 l 464 29 q 276 -14 382 -14 q 90 47 157 -14 q 24 226 24 107 q 35 329 24 279 q 164 589 71 506 q 414 672 257 672 q 522 655 478 672 q 604 601 567 638 l 628 658 l 821 658 l 658 -107 q 654 -136 654 -124 q 667 -165 654 -157 q 707 -172 679 -172 q 769 -161 739 -172 l 738 -312 q 670 -331 701 -325 q 593 -336 639 -336 m 367 150 q 437 160 406 150 q 499 192 468 171 l 556 458 q 506 496 533 483 q 443 508 479 508 q 326 467 369 508 q 264 333 283 426 q 256 260 256 292 q 283 176 256 203 q 367 150 311 150 z "},"r":{"ha":540,"x_min":-7,"x_max":589,"o":"m 132 658 l 344 658 l 339 597 q 457 645 389 624 q 589 672 525 667 l 554 504 q 424 481 494 497 q 310 443 354 464 l 217 0 l -7 0 l 132 658 z "},"ŕ":{"ha":540,"x_min":-7,"x_max":589,"o":"m 364 997 l 547 997 l 361 725 l 189 725 l 364 997 m 132 658 l 344 658 l 339 597 q 457 645 389 624 q 589 672 525 667 l 554 504 q 424 481 494 497 q 310 443 354 464 l 217 0 l -7 0 l 132 658 z "},"ř":{"ha":540,"x_min":-7,"x_max":607,"o":"m 67 983 l 228 983 l 297 839 l 432 983 l 607 983 l 350 724 l 211 724 l 67 983 m 132 658 l 344 658 l 339 597 q 457 645 389 624 q 589 672 525 667 l 554 504 q 424 481 494 497 q 310 443 354 464 l 217 0 l -7 0 l 132 658 z "},"ŗ":{"ha":540,"x_min":-110,"x_max":589,"o":"m 132 658 l 344 658 l 339 597 q 457 645 389 624 q 589 672 525 667 l 554 504 q 424 481 494 497 q 310 443 354 464 l 217 0 l -7 0 l 132 658 m -1 -51 l 178 -51 l 40 -347 l -110 -347 l -1 -51 z "},"ṛ":{"ha":540,"x_min":-24,"x_max":589,"o":"m 132 658 l 344 658 l 339 597 q 457 645 389 624 q 589 672 525 667 l 554 504 q 424 481 494 497 q 310 443 354 464 l 217 0 l -7 0 l 132 658 m 8 -97 l 172 -97 l 140 -249 l -24 -249 l 8 -97 z "},"ṝ":{"ha":540,"x_min":-24,"x_max":589,"o":"m 125 900 l 565 900 l 536 765 l 96 765 l 125 900 m 132 658 l 344 658 l 339 597 q 457 645 389 624 q 589 672 525 667 l 554 504 q 424 481 494 497 q 310 443 354 464 l 217 0 l -7 0 l 132 658 m 8 -97 l 172 -97 l 140 -249 l -24 -249 l 8 -97 z "},"ṟ":{"ha":540,"x_min":-157,"x_max":589,"o":"m 132 658 l 344 658 l 339 597 q 457 645 389 624 q 589 672 525 667 l 554 504 q 424 481 494 497 q 310 443 354 464 l 217 0 l -7 0 l 132 658 m -128 -94 l 313 -94 l 283 -231 l -157 -231 l -128 -94 z "},"s":{"ha":665,"x_min":-21,"x_max":629,"o":"m 233 -14 q 88 -3 156 -14 q -21 25 19 8 l 15 196 q 119 165 58 176 q 233 153 181 153 q 324 159 299 153 q 354 189 349 165 q 338 221 358 208 q 261 251 318 233 l 206 271 q 95 333 131 299 q 60 422 60 367 q 65 471 60 447 q 168 622 86 571 q 413 672 250 672 q 532 663 472 672 q 629 640 592 654 l 594 472 q 513 498 560 489 q 422 507 465 507 q 329 500 361 507 q 293 471 297 493 q 306 442 289 451 q 376 417 324 433 q 401 409 388 413 q 429 400 414 406 q 555 336 518 371 q 592 246 592 301 q 585 190 592 225 q 479 37 563 88 q 233 -14 396 -14 z "},"ś":{"ha":665,"x_min":-21,"x_max":660,"o":"m 476 997 l 660 997 l 474 725 l 301 725 l 476 997 m 233 -14 q 88 -3 156 -14 q -21 25 19 8 l 15 196 q 119 165 58 176 q 233 153 181 153 q 324 159 299 153 q 354 189 349 165 q 338 221 358 208 q 261 251 318 233 l 206 271 q 95 333 131 299 q 60 422 60 367 q 65 471 60 447 q 168 622 86 571 q 413 672 250 672 q 532 663 472 672 q 629 640 592 654 l 594 472 q 513 498 560 489 q 422 507 465 507 q 329 500 361 507 q 293 471 297 493 q 306 442 289 451 q 376 417 324 433 q 401 409 388 413 q 429 400 414 406 q 555 336 518 371 q 592 246 592 301 q 585 190 592 225 q 479 37 563 88 q 233 -14 396 -14 z "},"š":{"ha":665,"x_min":-21,"x_max":719,"o":"m 179 983 l 340 983 l 410 839 l 544 983 l 719 983 l 463 724 l 324 724 l 179 983 m 233 -14 q 88 -3 156 -14 q -21 25 19 8 l 15 196 q 119 165 58 176 q 233 153 181 153 q 324 159 299 153 q 354 189 349 165 q 338 221 358 208 q 261 251 318 233 l 206 271 q 95 333 131 299 q 60 422 60 367 q 65 471 60 447 q 168 622 86 571 q 413 672 250 672 q 532 663 472 672 q 629 640 592 654 l 594 472 q 513 498 560 489 q 422 507 465 507 q 329 500 361 507 q 293 471 297 493 q 306 442 289 451 q 376 417 324 433 q 401 409 388 413 q 429 400 414 406 q 555 336 518 371 q 592 246 592 301 q 585 190 592 225 q 479 37 563 88 q 233 -14 396 -14 z "},"ş":{"ha":665,"x_min":-21,"x_max":629,"o":"m 154 -333 q 96 -330 131 -333 q 47 -322 61 -326 l 68 -224 q 150 -235 106 -235 q 235 -225 210 -235 q 265 -186 260 -215 q 267 -174 267 -182 q 247 -145 267 -151 q 185 -139 228 -139 l 110 -139 l 172 -12 q -21 25 46 -4 l 15 196 q 119 165 58 176 q 233 153 181 153 q 324 159 299 153 q 354 189 349 165 q 338 221 358 208 q 261 251 318 233 l 206 271 q 95 333 131 299 q 60 422 60 367 q 65 471 60 447 q 168 622 86 571 q 413 672 250 672 q 532 663 472 672 q 629 640 592 654 l 594 472 q 513 498 560 489 q 422 507 465 507 q 329 500 361 507 q 293 471 297 493 q 306 442 289 451 q 376 417 324 433 q 401 409 388 413 q 429 400 414 406 q 555 336 518 371 q 592 246 592 301 q 585 190 592 225 q 497 49 564 100 q 306 -11 431 -1 l 278 -60 q 374 -85 343 -60 q 406 -157 406 -111 q 403 -189 406 -178 q 325 -296 388 -258 q 154 -333 263 -333 z "},"ŝ":{"ha":665,"x_min":-21,"x_max":663,"o":"m 378 985 l 517 985 l 663 725 l 504 725 l 431 869 l 300 725 l 122 725 l 378 985 m 233 -14 q 88 -3 156 -14 q -21 25 19 8 l 15 196 q 119 165 58 176 q 233 153 181 153 q 324 159 299 153 q 354 189 349 165 q 338 221 358 208 q 261 251 318 233 l 206 271 q 95 333 131 299 q 60 422 60 367 q 65 471 60 447 q 168 622 86 571 q 413 672 250 672 q 532 663 472 672 q 629 640 592 654 l 594 472 q 513 498 560 489 q 422 507 465 507 q 329 500 361 507 q 293 471 297 493 q 306 442 289 451 q 376 417 324 433 q 401 409 388 413 q 429 400 414 406 q 555 336 518 371 q 592 246 592 301 q 585 190 592 225 q 479 37 563 88 q 233 -14 396 -14 z "},"ș":{"ha":665,"x_min":-21,"x_max":629,"o":"m 233 -14 q 88 -3 156 -14 q -21 25 19 8 l 15 196 q 119 165 58 176 q 233 153 181 153 q 324 159 299 153 q 354 189 349 165 q 338 221 358 208 q 261 251 318 233 l 206 271 q 95 333 131 299 q 60 422 60 367 q 65 471 60 447 q 168 622 86 571 q 413 672 250 672 q 532 663 472 672 q 629 640 592 654 l 594 472 q 513 498 560 489 q 422 507 465 507 q 329 500 361 507 q 293 471 297 493 q 306 442 289 451 q 376 417 324 433 q 401 409 388 413 q 429 400 414 406 q 555 336 518 371 q 592 246 592 301 q 585 190 592 225 q 479 37 563 88 q 233 -14 396 -14 m 160 -62 l 343 -62 l 226 -321 l 63 -321 l 160 -62 z "},"ṡ":{"ha":665,"x_min":-21,"x_max":629,"o":"m 356 913 l 518 913 l 485 761 l 322 761 l 356 913 m 233 -14 q 88 -3 156 -14 q -21 25 19 8 l 15 196 q 119 165 58 176 q 233 153 181 153 q 324 159 299 153 q 354 189 349 165 q 338 221 358 208 q 261 251 318 233 l 206 271 q 95 333 131 299 q 60 422 60 367 q 65 471 60 447 q 168 622 86 571 q 413 672 250 672 q 532 663 472 672 q 629 640 592 654 l 594 472 q 513 498 560 489 q 422 507 465 507 q 329 500 361 507 q 293 471 297 493 q 306 442 289 451 q 376 417 324 433 q 401 409 388 413 q 429 400 414 406 q 555 336 518 371 q 592 246 592 301 q 585 190 592 225 q 479 37 563 88 q 233 -14 396 -14 z "},"ṣ":{"ha":665,"x_min":-21,"x_max":629,"o":"m 233 -14 q 88 -3 156 -14 q -21 25 19 8 l 15 196 q 119 165 58 176 q 233 153 181 153 q 324 159 299 153 q 354 189 349 165 q 338 221 358 208 q 261 251 318 233 l 206 271 q 95 333 131 299 q 60 422 60 367 q 65 471 60 447 q 168 622 86 571 q 413 672 250 672 q 532 663 472 672 q 629 640 592 654 l 594 472 q 513 498 560 489 q 422 507 465 507 q 329 500 361 507 q 293 471 297 493 q 306 442 289 451 q 376 417 324 433 q 401 409 388 413 q 429 400 414 406 q 555 336 518 371 q 592 246 592 301 q 585 190 592 225 q 479 37 563 88 q 233 -14 396 -14 m 163 -97 l 326 -97 l 294 -249 l 131 -249 l 163 -97 z "},"ß":{"ha":889,"x_min":-14,"x_max":883,"o":"m 468 -14 q 281 17 354 -14 l 318 196 q 456 169 375 169 q 549 197 511 169 q 599 275 588 224 q 603 310 603 294 q 575 368 603 350 q 489 386 547 386 l 394 386 l 428 549 l 513 549 q 605 578 572 549 q 650 667 638 607 q 654 700 654 683 q 531 781 654 781 q 405 741 451 781 q 339 614 358 701 l 210 0 l -14 0 l 118 622 q 263 890 157 807 q 567 972 369 972 q 738 939 667 972 q 847 849 810 906 q 883 725 883 793 q 878 671 883 694 q 824 547 863 600 q 735 469 786 494 q 806 412 781 450 q 831 321 831 374 q 824 263 831 297 q 706 58 794 131 q 468 -14 617 -14 z "},"ə":{"ha":760,"x_min":17,"x_max":718,"o":"m 290 -14 q 91 48 165 -14 q 17 215 17 110 q 25 283 17 249 l 50 400 l 517 400 q 497 471 514 446 q 438 507 481 496 q 317 518 396 518 q 203 508 263 518 q 104 483 144 499 l 136 628 q 400 672 240 672 q 631 606 544 672 q 718 414 718 539 q 708 329 718 372 q 571 76 674 165 q 290 -14 468 -14 m 315 136 q 434 169 394 136 q 489 272 474 201 l 217 272 l 210 242 q 206 207 206 224 q 231 154 206 172 q 315 136 256 136 z "},"t":{"ha":519,"x_min":40,"x_max":549,"o":"m 260 -14 q 115 31 165 -14 q 65 157 65 75 q 72 221 65 183 l 129 489 l 40 489 l 76 658 l 165 658 l 194 796 l 431 856 l 389 658 l 549 658 l 503 489 l 353 489 l 300 236 q 294 199 294 206 q 312 162 294 172 q 372 151 329 151 q 461 165 415 151 l 429 14 q 260 -14 358 -14 z "},"ŧ":{"ha":519,"x_min":-7,"x_max":549,"o":"m 260 -14 q 64 150 64 -14 q 72 221 64 183 l 82 265 l -7 265 l 22 403 l 111 403 l 129 489 l 40 489 l 76 658 l 165 658 l 194 796 l 432 856 l 390 658 l 549 658 l 503 489 l 354 489 l 336 403 l 496 403 l 467 265 l 307 265 l 301 236 q 297 206 297 219 q 317 164 297 176 q 376 151 336 151 q 461 165 415 151 l 429 14 q 260 -14 358 -14 z "},"ť":{"ha":701,"x_min":40,"x_max":829,"o":"m 650 1071 l 829 1071 l 692 775 l 542 775 l 650 1071 m 260 -14 q 115 31 165 -14 q 65 157 65 75 q 72 221 65 183 l 129 489 l 40 489 l 76 658 l 165 658 l 194 796 l 431 856 l 389 658 l 549 658 l 503 489 l 353 489 l 300 236 q 294 199 294 206 q 312 162 294 172 q 372 151 329 151 q 461 165 415 151 l 429 14 q 260 -14 358 -14 z "},"ţ":{"ha":519,"x_min":40,"x_max":549,"o":"m 169 -333 q 111 -330 146 -333 q 63 -322 76 -326 l 83 -224 q 165 -235 121 -235 q 250 -225 225 -235 q 281 -186 275 -215 q 282 -174 282 -182 q 263 -145 282 -151 q 200 -139 243 -139 l 125 -139 l 190 -6 q 97 50 129 8 q 65 156 65 92 q 72 221 65 192 l 129 489 l 40 489 l 76 658 l 165 658 l 194 796 l 431 856 l 389 658 l 549 658 l 503 489 l 353 489 l 300 236 q 294 199 294 206 q 312 162 294 172 q 372 151 329 151 q 461 165 415 151 l 429 14 q 321 -11 385 -4 l 293 -60 q 390 -85 358 -60 q 421 -157 421 -111 q 418 -189 421 -178 q 340 -296 403 -258 q 169 -333 278 -333 z "},"ț":{"ha":519,"x_min":35,"x_max":549,"o":"m 260 -14 q 115 31 165 -14 q 65 157 65 75 q 72 221 65 183 l 129 489 l 40 489 l 76 658 l 165 658 l 194 796 l 431 856 l 389 658 l 549 658 l 503 489 l 353 489 l 300 236 q 294 199 294 206 q 312 162 294 172 q 372 151 329 151 q 461 165 415 151 l 429 14 q 260 -14 358 -14 m 143 -62 l 322 -62 l 185 -358 l 35 -358 l 143 -62 z "},"ẗ":{"ha":519,"x_min":40,"x_max":617,"o":"m 168 1043 l 331 1043 l 297 892 l 135 892 l 168 1043 m 453 1043 l 617 1043 l 583 892 l 419 892 l 453 1043 m 260 -14 q 115 31 165 -14 q 65 157 65 75 q 72 221 65 183 l 129 489 l 40 489 l 76 658 l 165 658 l 194 796 l 431 856 l 389 658 l 549 658 l 503 489 l 353 489 l 300 236 q 294 199 294 206 q 312 162 294 172 q 372 151 329 151 q 461 165 415 151 l 429 14 q 260 -14 358 -14 z "},"ṭ":{"ha":519,"x_min":40,"x_max":549,"o":"m 260 -14 q 115 31 165 -14 q 65 157 65 75 q 72 221 65 183 l 129 489 l 40 489 l 76 658 l 165 658 l 194 796 l 431 856 l 389 658 l 549 658 l 503 489 l 353 489 l 300 236 q 294 199 294 206 q 312 162 294 172 q 372 151 329 151 q 461 165 415 151 l 429 14 q 260 -14 358 -14 m 119 -90 l 283 -90 l 251 -242 l 88 -242 l 119 -90 z "},"ṯ":{"ha":519,"x_min":-75,"x_max":549,"o":"m 260 -14 q 115 31 165 -14 q 65 157 65 75 q 72 221 65 183 l 129 489 l 40 489 l 76 658 l 165 658 l 194 796 l 431 856 l 389 658 l 549 658 l 503 489 l 353 489 l 300 236 q 294 199 294 206 q 312 162 294 172 q 372 151 329 151 q 461 165 415 151 l 429 14 q 260 -14 358 -14 m -46 -87 l 394 -87 l 365 -224 l -75 -224 l -46 -87 z "},"u":{"ha":826,"x_min":29,"x_max":817,"o":"m 229 -14 q 83 35 136 -14 q 29 174 29 85 q 38 244 29 207 l 125 658 l 349 658 l 264 257 q 258 217 258 226 q 280 166 258 182 q 349 150 301 150 q 427 166 388 150 q 497 208 467 182 l 593 658 l 817 658 l 678 0 l 469 0 l 474 56 q 229 -14 365 -14 z "},"ú":{"ha":826,"x_min":29,"x_max":817,"o":"m 550 997 l 733 997 l 547 725 l 375 725 l 550 997 m 229 -14 q 83 35 136 -14 q 29 174 29 85 q 38 244 29 207 l 125 658 l 349 658 l 264 257 q 258 217 258 226 q 280 166 258 182 q 349 150 301 150 q 427 166 388 150 q 497 208 467 182 l 593 658 l 817 658 l 678 0 l 469 0 l 474 56 q 229 -14 365 -14 z "},"ŭ":{"ha":826,"x_min":29,"x_max":817,"o":"m 490 725 q 347 771 399 725 q 294 900 294 817 q 301 964 294 926 l 439 964 q 433 918 433 942 q 508 850 433 850 q 588 881 557 850 q 628 964 618 913 l 783 964 q 684 787 760 849 q 490 725 608 725 m 229 -14 q 83 35 136 -14 q 29 174 29 85 q 38 244 29 207 l 125 658 l 349 658 l 264 257 q 258 217 258 226 q 280 166 258 182 q 349 150 301 150 q 427 166 388 150 q 497 208 467 182 l 593 658 l 817 658 l 678 0 l 469 0 l 474 56 q 229 -14 365 -14 z "},"ǔ":{"ha":826,"x_min":29,"x_max":817,"o":"m 272 983 l 433 983 l 503 839 l 638 983 l 813 983 l 556 724 l 417 724 l 272 983 m 229 -14 q 83 35 136 -14 q 29 174 29 85 q 38 244 29 207 l 125 658 l 349 658 l 264 257 q 258 217 258 226 q 280 166 258 182 q 349 150 301 150 q 427 166 388 150 q 497 208 467 182 l 593 658 l 817 658 l 678 0 l 469 0 l 474 56 q 229 -14 365 -14 z "},"û":{"ha":826,"x_min":29,"x_max":817,"o":"m 469 983 l 608 983 l 754 724 l 596 724 l 522 868 l 392 724 l 214 724 l 469 983 m 229 -14 q 83 35 136 -14 q 29 174 29 85 q 38 244 29 207 l 125 658 l 349 658 l 264 257 q 258 217 258 226 q 280 166 258 182 q 349 150 301 150 q 427 166 388 150 q 497 208 467 182 l 593 658 l 817 658 l 678 0 l 469 0 l 474 56 q 229 -14 365 -14 z "},"ü":{"ha":826,"x_min":29,"x_max":817,"o":"m 301 913 l 464 913 l 431 761 l 268 761 l 301 913 m 586 913 l 750 913 l 717 761 l 553 761 l 586 913 m 229 -14 q 83 35 136 -14 q 29 174 29 85 q 38 244 29 207 l 125 658 l 349 658 l 264 257 q 258 217 258 226 q 280 166 258 182 q 349 150 301 150 q 427 166 388 150 q 497 208 467 182 l 593 658 l 817 658 l 678 0 l 469 0 l 474 56 q 229 -14 365 -14 z "},"ǘ":{"ha":826,"x_min":29,"x_max":817,"o":"m 554 1096 l 722 1096 l 588 911 l 433 911 l 554 1096 m 285 879 l 443 879 l 413 736 l 254 736 l 285 879 m 574 879 l 732 879 l 701 736 l 543 736 l 574 879 m 229 -14 q 83 35 136 -14 q 29 174 29 85 q 38 244 29 207 l 125 658 l 349 658 l 264 257 q 258 217 258 226 q 280 166 258 182 q 349 150 301 150 q 427 166 388 150 q 497 208 467 182 l 593 658 l 817 658 l 678 0 l 469 0 l 474 56 q 229 -14 365 -14 z "},"ǚ":{"ha":826,"x_min":29,"x_max":817,"o":"m 319 1075 l 476 1075 l 535 974 l 635 1075 l 804 1075 l 603 899 l 449 899 l 319 1075 m 294 869 l 453 869 l 422 726 l 264 726 l 294 869 m 583 869 l 740 869 l 710 726 l 553 726 l 583 869 m 229 -14 q 83 35 136 -14 q 29 174 29 85 q 38 244 29 207 l 125 658 l 349 658 l 264 257 q 258 217 258 226 q 280 166 258 182 q 349 150 301 150 q 427 166 388 150 q 497 208 467 182 l 593 658 l 817 658 l 678 0 l 469 0 l 474 56 q 229 -14 365 -14 z "},"ǜ":{"ha":826,"x_min":29,"x_max":817,"o":"m 401 1096 l 569 1096 l 610 911 l 456 911 l 401 1096 m 300 879 l 458 879 l 428 736 l 269 736 l 300 879 m 589 879 l 747 879 l 717 736 l 558 736 l 589 879 m 229 -14 q 83 35 136 -14 q 29 174 29 85 q 38 244 29 207 l 125 658 l 349 658 l 264 257 q 258 217 258 226 q 280 166 258 182 q 349 150 301 150 q 427 166 388 150 q 497 208 467 182 l 593 658 l 817 658 l 678 0 l 469 0 l 474 56 q 229 -14 365 -14 z "},"ǖ":{"ha":826,"x_min":29,"x_max":817,"o":"m 350 1092 l 790 1092 l 761 957 l 321 957 l 350 1092 m 299 888 l 461 888 l 428 736 l 265 736 l 299 888 m 583 888 l 747 888 l 714 736 l 550 736 l 583 888 m 229 -14 q 83 35 136 -14 q 29 174 29 85 q 38 244 29 207 l 125 658 l 349 658 l 264 257 q 258 217 258 226 q 280 166 258 182 q 349 150 301 150 q 427 166 388 150 q 497 208 467 182 l 593 658 l 817 658 l 678 0 l 469 0 l 474 56 q 229 -14 365 -14 z "},"ụ":{"ha":826,"x_min":29,"x_max":817,"o":"m 229 -14 q 83 35 136 -14 q 29 174 29 85 q 38 244 29 207 l 125 658 l 349 658 l 264 257 q 258 217 258 226 q 280 166 258 182 q 349 150 301 150 q 427 166 388 150 q 497 208 467 182 l 593 658 l 817 658 l 678 0 l 469 0 l 474 56 q 229 -14 365 -14 m 225 -97 l 389 -97 l 357 -249 l 193 -249 l 225 -97 z "},"ù":{"ha":826,"x_min":29,"x_max":817,"o":"m 351 997 l 535 997 l 593 725 l 422 725 l 351 997 m 229 -14 q 83 35 136 -14 q 29 174 29 85 q 38 244 29 207 l 125 658 l 349 658 l 264 257 q 258 217 258 226 q 280 166 258 182 q 349 150 301 150 q 427 166 388 150 q 497 208 467 182 l 593 658 l 817 658 l 678 0 l 469 0 l 474 56 q 229 -14 365 -14 z "},"ủ":{"ha":826,"x_min":29,"x_max":817,"o":"m 425 836 q 526 856 497 840 q 563 900 556 871 q 482 950 572 950 q 396 938 439 950 l 418 1038 q 571 1057 479 1057 q 692 1028 650 1057 q 733 947 733 999 q 731 919 733 939 q 683 831 717 861 q 583 785 649 800 l 571 724 l 401 724 l 425 836 m 229 -14 q 83 35 136 -14 q 29 174 29 85 q 38 244 29 207 l 125 658 l 349 658 l 264 257 q 258 217 258 226 q 280 166 258 182 q 349 150 301 150 q 427 166 388 150 q 497 208 467 182 l 593 658 l 817 658 l 678 0 l 469 0 l 474 56 q 229 -14 365 -14 z "},"ư":{"ha":1035,"x_min":29,"x_max":1101,"o":"m 229 -14 q 83 35 136 -14 q 29 174 29 85 q 38 244 29 207 l 125 658 l 349 658 l 264 257 q 258 217 258 226 q 280 166 258 182 q 349 150 301 150 q 427 166 388 150 q 497 208 467 182 l 593 658 l 817 658 l 803 594 q 897 633 867 600 q 942 744 926 665 l 1101 744 q 992 521 1068 589 q 771 446 915 453 l 678 0 l 469 0 l 474 56 q 229 -14 365 -14 z "},"ứ":{"ha":1035,"x_min":29,"x_max":1101,"o":"m 565 997 l 749 997 l 563 725 l 390 725 l 565 997 m 229 -14 q 83 35 136 -14 q 29 174 29 85 q 38 244 29 207 l 125 658 l 349 658 l 264 257 q 258 217 258 226 q 280 166 258 182 q 349 150 301 150 q 427 166 388 150 q 497 208 467 182 l 593 658 l 817 658 l 803 594 q 897 633 867 600 q 942 744 926 665 l 1101 744 q 992 521 1068 589 q 771 446 915 453 l 678 0 l 469 0 l 474 56 q 229 -14 365 -14 z "},"ự":{"ha":1035,"x_min":29,"x_max":1101,"o":"m 229 -14 q 83 35 136 -14 q 29 174 29 85 q 38 244 29 207 l 125 658 l 349 658 l 264 257 q 258 217 258 226 q 280 166 258 182 q 349 150 301 150 q 427 166 388 150 q 497 208 467 182 l 593 658 l 817 658 l 803 594 q 897 633 867 600 q 942 744 926 665 l 1101 744 q 992 521 1068 589 q 771 446 915 453 l 678 0 l 469 0 l 474 56 q 229 -14 365 -14 m 231 -97 l 394 -97 l 363 -249 l 199 -249 l 231 -97 z "},"ừ":{"ha":1035,"x_min":29,"x_max":1101,"o":"m 318 997 l 501 997 l 560 725 l 389 725 l 318 997 m 229 -14 q 83 35 136 -14 q 29 174 29 85 q 38 244 29 207 l 125 658 l 349 658 l 264 257 q 258 217 258 226 q 280 166 258 182 q 349 150 301 150 q 427 166 388 150 q 497 208 467 182 l 593 658 l 817 658 l 803 594 q 897 633 867 600 q 942 744 926 665 l 1101 744 q 992 521 1068 589 q 771 446 915 453 l 678 0 l 469 0 l 474 56 q 229 -14 365 -14 z "},"ử":{"ha":1035,"x_min":29,"x_max":1101,"o":"m 407 836 q 508 856 479 840 q 544 900 538 871 q 464 950 554 950 q 378 938 421 950 l 400 1038 q 553 1057 461 1057 q 674 1028 632 1057 q 715 947 715 999 q 713 919 715 939 q 665 831 699 861 q 565 785 631 800 l 553 724 l 383 724 l 407 836 m 229 -14 q 83 35 136 -14 q 29 174 29 85 q 38 244 29 207 l 125 658 l 349 658 l 264 257 q 258 217 258 226 q 280 166 258 182 q 349 150 301 150 q 427 166 388 150 q 497 208 467 182 l 593 658 l 817 658 l 803 594 q 897 633 867 600 q 942 744 926 665 l 1101 744 q 992 521 1068 589 q 771 446 915 453 l 678 0 l 469 0 l 474 56 q 229 -14 365 -14 z "},"ữ":{"ha":1035,"x_min":29,"x_max":1101,"o":"m 619 733 q 562 741 590 733 q 497 764 533 749 q 442 783 465 776 q 394 790 418 790 q 253 738 317 790 l 285 886 q 347 918 310 906 q 421 931 383 931 q 476 924 451 931 q 538 901 500 917 q 597 881 574 888 q 646 874 619 874 q 778 928 728 874 l 746 778 q 693 746 728 758 q 619 733 658 733 m 229 -14 q 83 35 136 -14 q 29 174 29 85 q 38 244 29 207 l 125 658 l 349 658 l 264 257 q 258 217 258 226 q 280 166 258 182 q 349 150 301 150 q 427 166 388 150 q 497 208 467 182 l 593 658 l 817 658 l 803 594 q 897 633 867 600 q 942 744 926 665 l 1101 744 q 992 521 1068 589 q 771 446 915 453 l 678 0 l 469 0 l 474 56 q 229 -14 365 -14 z "},"ű":{"ha":826,"x_min":29,"x_max":871,"o":"m 358 974 l 550 974 l 364 724 l 192 724 l 358 974 m 678 974 l 871 974 l 683 724 l 511 724 l 678 974 m 229 -14 q 83 35 136 -14 q 29 174 29 85 q 38 244 29 207 l 125 658 l 349 658 l 264 257 q 258 217 258 226 q 280 166 258 182 q 349 150 301 150 q 427 166 388 150 q 497 208 467 182 l 593 658 l 817 658 l 678 0 l 469 0 l 474 56 q 229 -14 365 -14 z "},"ū":{"ha":826,"x_min":29,"x_max":817,"o":"m 307 908 l 747 908 l 718 774 l 278 774 l 307 908 m 229 -14 q 83 35 136 -14 q 29 174 29 85 q 38 244 29 207 l 125 658 l 349 658 l 264 257 q 258 217 258 226 q 280 166 258 182 q 349 150 301 150 q 427 166 388 150 q 497 208 467 182 l 593 658 l 817 658 l 678 0 l 469 0 l 474 56 q 229 -14 365 -14 z "},"ų":{"ha":826,"x_min":29,"x_max":817,"o":"m 503 -306 q 397 -280 438 -306 q 357 -204 357 -254 q 394 -90 357 -150 q 474 0 431 -29 l 478 56 q 365 5 428 24 q 229 -14 301 -14 q 83 35 136 -14 q 29 174 29 85 q 38 244 29 207 l 125 658 l 349 658 l 264 257 q 258 217 258 226 q 280 166 258 182 q 349 150 301 150 q 427 166 388 150 q 497 208 467 182 l 593 658 l 817 658 l 678 0 q 584 -60 621 -24 q 539 -135 547 -96 q 538 -150 538 -140 q 588 -187 538 -187 q 626 -183 606 -187 q 660 -172 647 -179 l 636 -285 q 576 -299 613 -293 q 503 -306 540 -306 z "},"ů":{"ha":826,"x_min":29,"x_max":817,"o":"m 485 724 q 375 760 414 724 q 336 857 336 797 q 340 897 336 876 q 415 1024 357 975 q 558 1072 472 1072 q 669 1035 631 1072 q 708 939 708 999 q 704 897 708 918 q 631 772 688 821 q 485 724 574 724 m 506 821 q 577 850 550 821 q 604 921 604 879 q 538 975 604 975 q 467 946 496 975 q 439 876 439 917 q 456 836 439 851 q 506 821 472 821 m 229 -14 q 83 35 136 -14 q 29 174 29 85 q 38 244 29 207 l 125 658 l 349 658 l 264 257 q 258 217 258 226 q 280 166 258 182 q 349 150 301 150 q 427 166 388 150 q 497 208 467 182 l 593 658 l 817 658 l 678 0 l 469 0 l 474 56 q 229 -14 365 -14 z "},"ũ":{"ha":826,"x_min":29,"x_max":817,"o":"m 618 739 q 560 747 588 739 q 496 769 532 754 q 440 789 464 782 q 393 796 417 796 q 251 743 315 796 l 283 892 q 345 924 308 911 q 419 936 382 936 q 474 929 450 936 q 536 907 499 922 q 595 886 572 893 q 644 879 618 879 q 776 933 726 879 l 744 783 q 692 751 726 764 q 618 739 657 739 m 229 -14 q 83 35 136 -14 q 29 174 29 85 q 38 244 29 207 l 125 658 l 349 658 l 264 257 q 258 217 258 226 q 280 166 258 182 q 349 150 301 150 q 427 166 388 150 q 497 208 467 182 l 593 658 l 817 658 l 678 0 l 469 0 l 474 56 q 229 -14 365 -14 z "},"v":{"ha":843,"x_min":104,"x_max":861,"o":"m 104 658 l 331 658 l 385 231 l 621 658 l 861 658 l 463 0 l 225 0 l 104 658 z "},"w":{"ha":1069,"x_min":104,"x_max":1088,"o":"m 104 658 l 324 658 l 332 281 l 486 568 l 506 658 l 674 658 l 701 281 l 868 658 l 1088 658 l 775 0 l 581 0 l 540 342 l 353 0 l 139 0 l 104 658 z "},"ẃ":{"ha":1069,"x_min":104,"x_max":1088,"o":"m 690 997 l 874 997 l 688 725 l 515 725 l 690 997 m 104 658 l 324 658 l 332 281 l 486 568 l 506 658 l 674 658 l 701 281 l 868 658 l 1088 658 l 775 0 l 581 0 l 540 342 l 353 0 l 139 0 l 104 658 z "},"ŵ":{"ha":1069,"x_min":104,"x_max":1088,"o":"m 599 983 l 738 983 l 883 724 l 725 724 l 651 868 l 521 724 l 343 724 l 599 983 m 104 658 l 324 658 l 332 281 l 486 568 l 506 658 l 674 658 l 701 281 l 868 658 l 1088 658 l 775 0 l 581 0 l 540 342 l 353 0 l 139 0 l 104 658 z "},"ẅ":{"ha":1069,"x_min":104,"x_max":1088,"o":"m 429 914 l 592 914 l 558 763 l 396 763 l 429 914 m 714 914 l 878 914 l 844 763 l 681 763 l 714 914 m 104 658 l 324 658 l 332 281 l 486 568 l 506 658 l 674 658 l 701 281 l 868 658 l 1088 658 l 775 0 l 581 0 l 540 342 l 353 0 l 139 0 l 104 658 z "},"ẁ":{"ha":1069,"x_min":104,"x_max":1088,"o":"m 444 997 l 628 997 l 686 725 l 515 725 l 444 997 m 104 658 l 324 658 l 332 281 l 486 568 l 506 658 l 674 658 l 701 281 l 868 658 l 1088 658 l 775 0 l 581 0 l 540 342 l 353 0 l 139 0 l 104 658 z "},"x":{"ha":838,"x_min":-35,"x_max":844,"o":"m 289 335 l 114 658 l 357 658 l 444 493 l 601 658 l 844 658 l 533 335 l 715 0 l 471 0 l 376 174 l 210 0 l -35 0 l 289 335 z "},"y":{"ha":835,"x_min":29,"x_max":825,"o":"m 210 -244 q 110 -240 164 -244 q 29 -231 56 -236 l 65 -65 q 133 -78 90 -74 q 208 -83 175 -83 q 400 -57 338 -83 q 475 28 463 -31 l 481 56 q 238 -14 372 -14 q 94 40 149 -14 q 39 182 39 93 q 46 244 39 207 l 133 658 l 357 658 l 272 257 q 265 207 265 225 q 285 163 265 175 q 357 150 306 150 q 435 166 396 150 q 506 208 475 182 l 601 658 l 825 658 l 699 60 q 551 -169 667 -93 q 210 -244 435 -244 z "},"ý":{"ha":835,"x_min":29,"x_max":825,"o":"m 572 997 l 756 997 l 569 725 l 397 725 l 572 997 m 210 -244 q 110 -240 164 -244 q 29 -231 56 -236 l 65 -65 q 133 -78 90 -74 q 208 -83 175 -83 q 400 -57 338 -83 q 475 28 463 -31 l 481 56 q 238 -14 372 -14 q 94 40 149 -14 q 39 182 39 93 q 46 244 39 207 l 133 658 l 357 658 l 272 257 q 265 207 265 225 q 285 163 265 175 q 357 150 306 150 q 435 166 396 150 q 506 208 475 182 l 601 658 l 825 658 l 699 60 q 551 -169 667 -93 q 210 -244 435 -244 z "},"ŷ":{"ha":835,"x_min":29,"x_max":825,"o":"m 493 983 l 632 983 l 778 724 l 619 724 l 546 868 l 415 724 l 238 724 l 493 983 m 210 -244 q 110 -240 164 -244 q 29 -231 56 -236 l 65 -65 q 133 -78 90 -74 q 208 -83 175 -83 q 400 -57 338 -83 q 475 28 463 -31 l 481 56 q 238 -14 372 -14 q 94 40 149 -14 q 39 182 39 93 q 46 244 39 207 l 133 658 l 357 658 l 272 257 q 265 207 265 225 q 285 163 265 175 q 357 150 306 150 q 435 166 396 150 q 506 208 475 182 l 601 658 l 825 658 l 699 60 q 551 -169 667 -93 q 210 -244 435 -244 z "},"ÿ":{"ha":835,"x_min":29,"x_max":825,"o":"m 317 936 l 479 936 l 446 785 l 283 785 l 317 936 m 601 936 l 765 936 l 732 785 l 568 785 l 601 936 m 210 -244 q 110 -240 164 -244 q 29 -231 56 -236 l 65 -65 q 133 -78 90 -74 q 208 -83 175 -83 q 400 -57 338 -83 q 475 28 463 -31 l 481 56 q 238 -14 372 -14 q 94 40 149 -14 q 39 182 39 93 q 46 244 39 207 l 133 658 l 357 658 l 272 257 q 265 207 265 225 q 285 163 265 175 q 357 150 306 150 q 435 166 396 150 q 506 208 475 182 l 601 658 l 825 658 l 699 60 q 551 -169 667 -93 q 210 -244 435 -244 z "},"ẏ":{"ha":835,"x_min":29,"x_max":825,"o":"m 451 914 l 614 914 l 581 763 l 418 763 l 451 914 m 210 -244 q 110 -240 164 -244 q 29 -231 56 -236 l 65 -65 q 133 -78 90 -74 q 208 -83 175 -83 q 400 -57 338 -83 q 475 28 463 -31 l 481 56 q 238 -14 372 -14 q 94 40 149 -14 q 39 182 39 93 q 46 244 39 207 l 133 658 l 357 658 l 272 257 q 265 207 265 225 q 285 163 265 175 q 357 150 306 150 q 435 166 396 150 q 506 208 475 182 l 601 658 l 825 658 l 699 60 q 551 -169 667 -93 q 210 -244 435 -244 z "},"ỵ":{"ha":843,"x_min":29,"x_max":833,"o":"m 210 -244 q 110 -240 164 -244 q 29 -231 56 -236 l 65 -65 q 133 -78 90 -74 q 208 -83 175 -83 q 400 -57 338 -83 q 475 28 463 -31 l 481 56 q 238 -14 372 -14 q 94 40 149 -14 q 39 182 39 93 q 46 244 39 207 l 133 658 l 357 658 l 272 257 q 265 207 265 225 q 285 163 265 175 q 357 150 306 150 q 435 166 396 150 q 506 208 475 182 l 601 658 l 825 658 l 699 60 q 551 -169 667 -93 q 210 -244 435 -244 m 669 -90 l 833 -90 l 801 -242 l 638 -242 l 669 -90 z "},"ỳ":{"ha":835,"x_min":29,"x_max":825,"o":"m 336 997 l 519 997 l 578 725 l 407 725 l 336 997 m 210 -244 q 110 -240 164 -244 q 29 -231 56 -236 l 65 -65 q 133 -78 90 -74 q 208 -83 175 -83 q 400 -57 338 -83 q 475 28 463 -31 l 481 56 q 238 -14 372 -14 q 94 40 149 -14 q 39 182 39 93 q 46 244 39 207 l 133 658 l 357 658 l 272 257 q 265 207 265 225 q 285 163 265 175 q 357 150 306 150 q 435 166 396 150 q 506 208 475 182 l 601 658 l 825 658 l 699 60 q 551 -169 667 -93 q 210 -244 435 -244 z "},"ỷ":{"ha":835,"x_min":29,"x_max":825,"o":"m 419 836 q 521 856 492 840 q 557 900 550 871 q 476 950 567 950 q 390 938 433 950 l 413 1038 q 565 1057 474 1057 q 686 1028 644 1057 q 728 947 728 999 q 725 919 728 939 q 677 831 711 861 q 578 785 643 800 l 565 724 l 396 724 l 419 836 m 210 -244 q 110 -240 164 -244 q 29 -231 56 -236 l 65 -65 q 133 -78 90 -74 q 208 -83 175 -83 q 400 -57 338 -83 q 475 28 463 -31 l 481 56 q 238 -14 372 -14 q 94 40 149 -14 q 39 182 39 93 q 46 244 39 207 l 133 658 l 357 658 l 272 257 q 265 207 265 225 q 285 163 265 175 q 357 150 306 150 q 435 166 396 150 q 506 208 475 182 l 601 658 l 825 658 l 699 60 q 551 -169 667 -93 q 210 -244 435 -244 z "},"ỹ":{"ha":835,"x_min":29,"x_max":825,"o":"m 622 739 q 565 747 593 739 q 500 769 536 754 q 444 789 468 782 q 397 796 421 796 q 256 743 319 796 l 288 892 q 349 924 313 911 q 424 936 386 936 q 478 929 454 936 q 540 907 503 922 q 599 886 576 893 q 649 879 622 879 q 781 933 731 879 l 749 783 q 696 751 731 764 q 622 739 661 739 m 210 -244 q 110 -240 164 -244 q 29 -231 56 -236 l 65 -65 q 133 -78 90 -74 q 208 -83 175 -83 q 400 -57 338 -83 q 475 28 463 -31 l 481 56 q 238 -14 372 -14 q 94 40 149 -14 q 39 182 39 93 q 46 244 39 207 l 133 658 l 357 658 l 272 257 q 265 207 265 225 q 285 163 265 175 q 357 150 306 150 q 435 166 396 150 q 506 208 475 182 l 601 658 l 825 658 l 699 60 q 551 -169 667 -93 q 210 -244 435 -244 z "},"z":{"ha":683,"x_min":-35,"x_max":692,"o":"m -10 119 l 371 481 l 78 481 l 115 658 l 692 658 l 664 528 l 292 172 l 599 172 l 563 0 l -35 0 l -10 119 z "},"ź":{"ha":683,"x_min":-35,"x_max":692,"o":"m 500 997 l 683 997 l 497 725 l 325 725 l 500 997 m -10 119 l 371 481 l 78 481 l 115 658 l 692 658 l 664 528 l 292 172 l 599 172 l 563 0 l -35 0 l -10 119 z "},"ž":{"ha":683,"x_min":-35,"x_max":738,"o":"m 197 983 l 358 983 l 428 839 l 563 983 l 738 983 l 481 724 l 342 724 l 197 983 m -10 119 l 371 481 l 78 481 l 115 658 l 692 658 l 664 528 l 292 172 l 599 172 l 563 0 l -35 0 l -10 119 z "},"ż":{"ha":683,"x_min":-35,"x_max":692,"o":"m 381 913 l 543 913 l 510 761 l 347 761 l 381 913 m -10 119 l 371 481 l 78 481 l 115 658 l 692 658 l 664 528 l 292 172 l 599 172 l 563 0 l -35 0 l -10 119 z "},"ẓ":{"ha":683,"x_min":-35,"x_max":692,"o":"m -10 119 l 371 481 l 78 481 l 115 658 l 692 658 l 664 528 l 292 172 l 599 172 l 563 0 l -35 0 l -10 119 m 154 -97 l 318 -97 l 286 -249 l 122 -249 l 154 -97 z "},"ﬁ":{"ha":783,"x_min":25,"x_max":774,"o":"m 128 489 l 40 489 l 76 658 l 164 658 l 175 710 q 285 892 200 824 q 521 960 369 960 q 700 932 633 960 l 665 774 q 620 787 651 782 q 561 792 589 792 q 443 772 478 792 q 397 704 408 751 l 388 658 l 774 658 l 635 0 l 411 0 l 514 489 l 351 489 l 249 0 l 25 0 l 128 489 z "},"ﬂ":{"ha":783,"x_min":25,"x_max":833,"o":"m 128 489 l 40 489 l 76 658 l 164 658 l 175 710 q 276 889 199 819 q 479 958 353 958 q 653 935 581 958 l 833 935 l 635 0 l 411 0 l 514 489 l 351 489 l 249 0 l 25 0 l 128 489 m 550 658 l 578 786 q 506 793 539 796 q 397 704 415 790 l 388 658 l 550 658 z "},"ª":{"ha":467,"x_min":99,"x_max":511,"o":"m 206 528 q 128 549 158 528 q 99 613 99 569 q 101 642 99 631 q 155 735 114 704 q 279 765 196 765 l 381 765 l 382 771 q 385 786 385 782 q 367 810 385 803 q 306 817 350 817 q 181 797 243 817 l 199 883 q 272 901 229 894 q 354 908 315 908 q 469 880 428 908 q 511 797 511 851 q 507 763 511 782 l 460 536 l 344 536 l 343 565 q 282 537 314 546 q 206 528 250 528 m 268 608 q 354 646 321 608 l 364 689 l 293 689 q 244 680 260 689 q 224 647 229 671 q 222 635 222 643 q 233 615 222 621 q 268 608 244 608 z "},"º":{"ha":500,"x_min":111,"x_max":538,"o":"m 282 528 q 156 563 200 528 q 111 667 111 599 q 117 718 111 694 q 195 862 138 815 q 364 908 253 908 q 492 873 447 908 q 538 771 538 838 q 531 718 538 750 q 451 574 510 621 q 282 528 392 528 m 303 624 q 365 646 343 624 q 397 718 386 668 q 403 763 403 742 q 390 799 403 788 q 343 811 376 811 q 282 789 304 811 q 249 718 260 767 q 243 674 243 694 q 256 635 243 647 q 303 624 269 624 z "},"ⁿ":{"ha":486,"x_min":86,"x_max":533,"o":"m 163 900 l 283 900 l 281 869 q 428 907 344 907 q 505 880 476 907 q 533 807 533 853 q 529 774 533 793 l 479 536 l 350 536 l 396 753 q 399 774 399 769 q 388 800 399 792 q 351 808 376 808 q 308 799 333 808 q 267 778 282 790 l 215 536 l 86 536 l 163 900 z "},"Δ":{"ha":889,"x_min":-35,"x_max":793,"o":"m -10 119 l 460 894 l 649 894 l 793 118 l 768 0 l -35 0 l -10 119 m 596 171 l 510 640 l 224 171 l 596 171 z "},"Ω":{"ha":1044,"x_min":-25,"x_max":1044,"o":"m 10 169 l 168 169 q 92 279 119 215 q 64 419 64 343 q 74 510 64 454 q 259 844 117 724 q 649 965 401 965 q 859 923 769 965 q 997 802 949 881 q 1044 618 1044 724 q 1032 510 1044 567 q 790 169 985 285 l 949 169 l 914 0 l 501 0 l 538 175 q 714 312 650 233 q 800 496 778 390 q 813 599 813 553 q 764 729 813 685 q 608 774 715 774 q 406 699 486 774 q 297 496 325 625 q 288 411 288 444 q 424 175 288 264 l 388 0 l -25 0 l 10 169 z "},"μ":{"ha":833,"x_min":-50,"x_max":824,"o":"m 132 658 l 356 658 l 271 257 q 265 215 265 236 q 287 165 265 181 q 356 150 308 150 q 434 166 394 150 q 504 208 474 182 l 600 658 l 824 658 l 685 0 l 476 0 l 481 56 q 268 -14 385 -14 q 215 -4 238 -14 l 174 -199 l -50 -199 l 132 658 z "},"π":{"ha":949,"x_min":39,"x_max":896,"o":"m 683 -14 q 540 32 590 -14 q 489 164 489 78 q 497 239 489 200 l 550 486 l 365 486 l 263 0 l 39 0 l 142 486 l 54 486 l 90 658 l 896 658 l 860 486 l 774 486 l 724 253 q 719 217 719 232 q 736 178 719 190 q 790 167 753 167 q 883 181 840 167 l 849 14 q 683 -14 776 -14 z "},"ก":{"ha":871,"x_min":-6,"x_max":822,"o":"m 44 238 q 185 411 74 376 l 60 449 l 100 638 q 285 728 181 692 q 506 764 390 764 q 740 704 658 764 q 822 531 822 644 q 814 451 822 493 l 718 0 l 494 0 l 589 450 q 597 510 597 486 q 565 576 597 556 q 458 596 533 596 q 356 581 406 596 q 271 542 306 565 l 268 526 l 408 483 l 383 365 q 306 322 332 351 q 267 235 279 293 l 218 0 l -6 0 l 44 238 z "},"ถ":{"ha":871,"x_min":21,"x_max":824,"o":"m 139 0 q 52 30 83 0 q 21 110 21 60 q 25 146 21 128 l 44 238 q 185 411 74 376 l 60 449 l 100 638 q 285 728 181 692 q 506 764 390 764 q 741 705 658 764 q 824 532 824 646 q 814 451 824 503 l 718 0 l 494 0 l 589 450 q 597 510 597 486 q 565 576 597 557 q 458 596 533 596 q 356 581 406 596 q 271 542 306 565 l 268 526 l 408 483 l 383 365 q 306 324 332 351 q 269 243 281 297 l 261 204 q 258 183 258 188 q 267 163 258 169 q 296 157 275 157 l 364 157 l 331 0 l 139 0 z "},"ภ":{"ha":917,"x_min":-28,"x_max":869,"o":"m 6 157 l 46 157 q 83 168 71 157 q 100 204 94 179 l 108 243 q 151 349 122 308 q 239 411 179 390 l 113 449 l 153 638 q 339 728 235 692 q 558 764 443 764 q 789 703 708 764 q 869 531 869 643 q 860 451 869 500 l 764 0 l 539 0 l 633 450 q 642 513 642 486 q 612 576 642 557 q 511 596 582 596 q 410 581 460 596 q 324 542 360 565 l 321 526 l 461 483 l 436 365 q 368 324 388 350 q 336 239 349 299 l 322 175 q 111 0 286 0 l -28 0 l 6 157 z "},"ฤ":{"ha":871,"x_min":21,"x_max":822,"o":"m 589 450 q 596 507 596 478 q 564 575 596 554 q 458 596 532 596 q 356 581 406 596 q 271 542 306 565 l 268 526 l 408 483 l 383 365 q 306 324 332 351 q 269 243 281 297 l 261 204 q 258 183 258 188 q 267 163 258 169 q 296 157 275 157 l 364 157 l 331 0 l 139 0 q 52 30 83 0 q 21 110 21 60 q 25 146 21 128 l 44 238 q 185 411 74 376 l 60 449 l 100 638 q 285 728 181 692 q 506 764 390 764 q 742 703 663 764 q 822 531 822 643 q 814 451 822 493 l 669 -222 l 446 -222 l 589 450 z "},"ฦ":{"ha":917,"x_min":-28,"x_max":868,"o":"m 633 450 q 642 513 642 486 q 612 576 642 557 q 511 596 582 596 q 410 581 460 596 q 324 542 360 565 l 321 526 l 461 483 l 436 365 q 368 324 388 350 q 336 239 349 299 l 322 175 q 111 0 286 0 l -28 0 l 6 157 l 46 157 q 83 168 71 157 q 100 204 94 179 l 108 243 q 151 349 122 308 q 239 411 179 390 l 113 449 l 153 638 q 339 728 235 692 q 558 764 443 764 q 788 703 707 764 q 868 531 868 643 q 860 451 868 493 l 715 -222 l 490 -222 l 633 450 z "},"ฎ":{"ha":917,"x_min":-28,"x_max":869,"o":"m 115 -107 q 360 -61 231 -61 q 451 -69 407 -61 q 519 -90 494 -78 l 633 450 q 642 510 642 486 q 612 576 642 556 q 511 596 582 596 q 410 581 460 596 q 324 542 360 565 l 321 526 l 461 483 l 436 365 q 368 324 388 350 q 336 239 349 299 l 322 175 q 111 0 286 0 l -28 0 l 6 157 l 46 157 q 83 168 71 157 q 100 204 94 179 l 108 243 q 151 349 122 308 q 239 411 179 390 l 113 449 l 153 638 q 339 728 235 692 q 558 764 443 764 q 789 704 708 764 q 869 532 869 644 q 860 451 869 503 l 706 -269 l 492 -269 q 304 -229 425 -229 q 189 -242 251 -229 q 79 -275 126 -254 l 115 -107 z "},"ฏ":{"ha":917,"x_min":-28,"x_max":868,"o":"m 472 -274 q 372 -256 415 -274 q 307 -208 328 -237 q 157 -269 253 -269 l 21 -269 l 67 -106 l 157 -106 q 217 -92 194 -106 q 258 -49 240 -79 l 396 -49 q 410 -94 397 -79 q 453 -110 424 -110 q 528 -46 514 -110 l 633 450 q 642 510 642 483 q 611 576 642 556 q 511 596 581 596 q 410 581 460 596 q 324 542 360 565 l 321 526 l 461 483 l 436 365 q 368 324 388 350 q 336 239 349 299 l 322 175 q 111 0 286 0 l -28 0 l 6 157 l 46 157 q 83 168 71 157 q 100 204 94 179 l 108 243 q 151 349 122 308 q 239 411 179 390 l 113 449 l 153 638 q 339 728 235 692 q 558 764 443 764 q 788 704 708 764 q 868 531 868 644 q 860 451 868 493 l 753 -50 q 656 -213 731 -153 q 472 -274 582 -274 z "},"ญ":{"ha":1349,"x_min":21,"x_max":1357,"o":"m 828 -112 q 686 -95 764 -112 q 553 -53 608 -78 l 588 106 q 715 61 638 76 q 856 46 792 46 q 993 63 950 46 q 1044 114 1036 81 l 1046 124 q 1042 143 1046 133 q 1033 157 1039 153 q 863 125 960 125 q 640 183 718 125 q 561 360 561 242 q 568 435 561 401 l 571 450 q 579 513 579 486 q 550 576 579 557 q 453 596 521 596 q 353 581 401 596 q 271 542 306 567 l 268 526 l 408 483 l 383 365 q 306 324 332 351 q 269 243 281 297 l 261 204 q 258 185 258 190 q 294 157 258 157 l 364 157 l 331 0 l 139 0 q 52 30 83 0 q 21 110 21 60 q 25 146 21 128 l 44 238 q 185 411 74 376 l 60 449 l 100 638 q 283 728 181 692 q 500 764 385 764 q 724 702 644 764 q 803 531 803 640 q 793 451 803 490 l 788 428 q 781 371 781 390 q 807 310 781 328 q 897 293 833 293 q 1010 328 969 293 q 1068 442 1051 364 l 1133 750 l 1357 750 l 1293 449 q 1181 236 1263 308 q 1219 133 1219 194 q 1215 99 1219 118 q 1098 -60 1192 -8 q 828 -112 1004 -112 z "},"ข":{"ha":839,"x_min":32,"x_max":846,"o":"m 328 -14 q 108 48 185 -14 q 32 214 32 110 q 38 275 32 247 l 46 317 q 81 400 56 364 q 150 481 107 436 q 190 524 178 510 q 204 554 201 539 q 206 567 206 560 q 197 584 206 579 q 169 589 189 589 l 88 589 l 139 750 l 356 750 q 433 731 408 750 q 457 672 457 711 q 453 633 457 654 q 421 556 443 590 q 360 476 399 522 q 300 401 321 432 q 272 331 279 369 l 260 269 q 256 231 256 249 q 281 173 256 192 q 364 154 306 154 q 472 184 436 154 q 522 276 508 214 l 622 750 l 846 750 l 746 279 q 612 62 715 138 q 328 -14 508 -14 z "},"ฃ":{"ha":839,"x_min":28,"x_max":846,"o":"m 328 -14 q 106 47 185 -14 q 28 204 28 107 q 33 258 28 235 l 38 278 q 85 372 47 328 q 186 476 122 417 q 243 533 226 515 q 263 567 260 551 q 264 576 264 571 q 246 593 264 593 q 211 578 226 593 l 199 522 l 71 522 l 119 750 l 257 750 l 249 711 q 378 750 311 750 q 481 665 481 750 q 476 629 481 649 q 437 535 465 575 q 358 442 408 494 q 296 370 318 400 q 267 306 274 340 l 260 272 q 256 233 256 251 q 281 174 256 193 q 364 154 306 154 q 472 184 436 154 q 522 276 508 214 l 622 750 l 846 750 l 746 279 q 612 62 715 138 q 328 -14 508 -14 z "},"ช":{"ha":842,"x_min":32,"x_max":850,"o":"m 329 -14 q 110 45 188 -14 q 32 211 32 104 q 39 275 32 238 l 47 317 q 83 400 57 364 q 151 481 108 436 q 191 524 179 510 q 206 554 203 539 q 207 567 207 560 q 199 584 207 579 q 171 589 190 589 l 89 589 l 140 750 l 356 750 q 433 731 408 750 q 457 672 457 711 q 453 633 457 654 q 421 556 443 590 q 360 475 399 521 q 301 399 321 429 q 274 331 281 368 l 261 269 q 256 226 256 236 q 281 171 256 188 q 365 154 306 154 q 524 276 499 154 l 540 354 q 543 383 543 364 q 485 440 543 440 l 453 440 l 499 596 l 515 596 q 578 617 556 596 q 610 689 600 638 l 625 764 l 850 764 l 835 689 q 791 579 821 621 q 704 513 761 538 q 753 464 738 492 q 768 399 768 436 q 761 340 768 375 l 747 279 q 615 61 717 136 q 329 -14 514 -14 z "},"ซ":{"ha":842,"x_min":29,"x_max":850,"o":"m 329 -14 q 108 47 188 -14 q 29 206 29 107 q 35 254 29 221 l 40 282 q 87 375 50 332 q 188 478 124 418 q 243 532 225 513 q 264 567 261 551 q 265 576 265 571 q 247 593 265 593 q 213 578 228 593 l 200 522 l 72 522 l 121 750 l 258 750 l 250 711 q 379 750 313 750 q 454 728 429 750 q 479 664 479 706 q 475 629 479 649 q 437 537 464 576 q 358 440 410 497 q 297 368 319 399 q 268 303 275 338 l 261 269 q 256 226 256 236 q 281 171 256 188 q 365 154 306 154 q 524 276 499 154 l 540 354 q 543 383 543 364 q 485 440 543 440 l 453 440 l 499 596 l 515 596 q 578 617 556 596 q 610 689 600 638 l 625 764 l 850 764 l 835 689 q 791 579 821 621 q 704 513 761 538 q 753 464 738 492 q 768 399 768 436 q 761 340 768 375 l 747 279 q 615 61 717 136 q 329 -14 514 -14 z "},"ค":{"ha":882,"x_min":-7,"x_max":833,"o":"m 89 454 q 226 687 122 610 q 522 764 331 764 q 755 702 676 764 q 833 531 833 640 q 825 454 833 494 l 729 0 l 506 0 l 603 463 q 608 508 608 485 q 580 575 608 554 q 488 596 551 596 q 366 564 404 596 q 314 463 328 532 l 292 356 q 351 382 318 372 q 415 392 383 392 l 497 392 l 465 215 l 375 215 q 256 183 308 215 l 217 0 l -7 0 l 89 454 z "},"ฅ":{"ha":882,"x_min":-7,"x_max":851,"o":"m 107 538 q 192 703 129 643 q 354 764 254 764 q 500 693 454 764 q 696 764 572 764 q 812 723 772 764 q 851 610 851 682 q 843 538 851 578 l 729 0 l 506 0 l 617 526 q 621 560 621 546 q 612 587 621 578 q 582 596 603 596 q 513 551 544 596 l 443 551 q 431 585 439 574 q 401 596 422 596 q 353 580 371 596 q 328 526 336 564 l 292 356 q 349 382 317 372 q 415 392 382 392 l 497 392 l 465 215 l 374 215 q 256 183 308 215 l 217 0 l -7 0 l 107 538 z "},"ศ":{"ha":907,"x_min":-6,"x_max":960,"o":"m 90 454 q 228 687 124 610 q 524 764 332 764 q 650 750 590 764 l 960 750 l 914 583 l 815 583 q 832 507 832 554 q 826 454 832 478 l 731 0 l 507 0 l 604 463 q 610 508 610 485 q 581 575 610 554 q 489 596 553 596 q 367 564 406 596 q 315 463 329 532 l 293 356 q 352 382 319 372 q 417 392 385 392 l 499 392 l 467 215 l 376 215 q 257 183 310 215 l 218 0 l -6 0 l 90 454 z "},"ด":{"ha":913,"x_min":26,"x_max":863,"o":"m 281 -14 q 97 49 167 -14 q 26 238 26 111 q 40 354 26 293 q 201 661 83 558 q 533 764 318 764 q 716 730 642 764 q 826 639 790 696 q 863 513 863 582 q 856 454 863 486 l 760 0 l 535 0 l 626 436 q 635 500 635 474 q 603 573 635 550 q 494 596 571 596 q 347 535 407 596 q 263 354 288 475 q 250 257 250 296 q 277 178 250 201 q 364 154 304 154 q 457 165 424 154 l 424 8 q 281 -14 364 -14 z "},"ต":{"ha":917,"x_min":26,"x_max":886,"o":"m 281 -14 q 96 48 165 -14 q 26 238 26 110 q 40 354 26 293 q 169 661 83 558 q 392 764 256 764 q 479 746 446 764 q 532 693 513 728 q 726 764 613 764 q 844 722 803 764 q 886 610 886 681 q 879 549 886 586 l 764 0 l 539 0 l 646 508 q 651 554 651 532 q 642 585 651 575 q 611 596 632 596 q 569 582 589 596 q 536 542 550 568 l 453 542 q 436 583 446 571 q 403 596 426 596 q 320 531 354 596 q 263 354 286 467 q 249 251 249 285 q 276 176 249 199 q 364 154 303 154 q 457 165 424 154 l 424 8 q 281 -14 364 -14 z "},"ท":{"ha":868,"x_min":-7,"x_max":826,"o":"m 151 750 l 358 750 l 353 683 q 478 742 408 719 q 624 764 549 764 q 769 711 713 764 q 826 564 826 658 q 819 496 826 528 l 715 0 l 490 0 l 583 476 q 589 526 589 503 q 569 579 589 564 q 501 594 549 594 q 406 576 453 594 q 328 529 360 558 l 217 0 l -7 0 l 151 750 z "},"ฑ":{"ha":861,"x_min":19,"x_max":824,"o":"m 74 256 q 115 354 85 308 q 194 461 144 400 q 244 524 228 501 q 264 567 260 547 q 265 576 265 571 q 247 593 265 593 q 213 578 228 593 l 200 522 l 72 522 l 121 750 l 258 750 l 250 711 q 308 740 281 731 q 371 750 335 750 q 420 740 399 750 q 454 711 442 729 q 539 749 492 735 q 633 764 586 764 q 776 717 729 764 q 824 586 824 671 q 815 507 824 549 l 708 0 l 485 0 l 590 503 q 596 544 596 525 q 582 583 596 571 q 536 594 568 594 q 497 587 519 594 q 458 567 475 579 q 431 494 449 526 q 381 417 413 461 q 326 334 346 369 q 296 251 306 299 l 243 0 l 19 0 l 74 256 z "},"น":{"ha":868,"x_min":40,"x_max":874,"o":"m 249 -14 q 97 40 153 -14 q 40 189 40 94 q 47 257 40 228 l 151 750 l 375 750 l 275 276 q 269 226 269 250 q 292 171 269 188 q 367 154 315 154 q 458 173 411 154 q 536 219 504 192 l 649 750 l 874 750 l 715 0 l 508 0 l 511 65 q 249 -14 393 -14 z "},"ม":{"ha":868,"x_min":-7,"x_max":874,"o":"m 449 -14 q 221 65 307 -14 l 200 0 l -7 0 l 151 750 l 375 750 l 263 219 q 322 173 283 192 q 406 154 361 154 q 503 180 474 154 q 549 276 533 206 l 649 750 l 874 750 l 769 257 q 664 55 740 124 q 449 -14 588 -14 z "},"ฌ":{"ha":1331,"x_min":21,"x_max":1336,"o":"m 919 -14 q 795 6 847 -14 q 701 65 743 26 l 679 0 l 476 0 l 571 450 q 579 514 579 488 q 551 577 579 558 q 453 596 522 596 q 353 581 401 596 q 271 542 306 567 l 268 526 l 408 483 l 383 365 q 306 324 332 351 q 269 243 281 297 l 261 204 q 258 185 258 190 q 267 163 258 169 q 293 157 275 157 l 364 157 l 331 0 l 139 0 q 52 30 83 0 q 21 110 21 60 q 25 146 21 128 l 44 238 q 185 411 74 376 l 60 449 l 100 638 q 283 728 181 692 q 500 764 385 764 q 724 705 644 764 q 803 533 803 646 q 793 451 803 492 l 743 219 q 799 172 764 190 q 876 154 835 154 q 969 182 940 154 q 1013 276 999 210 l 1113 750 l 1336 750 l 1232 257 q 1120 58 1204 129 q 919 -14 1036 -14 z "},"ณ":{"ha":1336,"x_min":21,"x_max":1342,"o":"m 728 -14 q 581 40 636 -14 q 525 188 525 94 q 532 257 525 226 l 572 450 q 581 511 581 486 q 551 576 581 556 q 453 596 521 596 q 353 581 401 596 q 271 542 306 567 l 268 526 l 408 483 l 383 365 q 306 324 332 351 q 269 243 281 297 l 261 204 q 258 185 258 190 q 267 163 258 169 q 296 157 276 157 l 364 157 l 331 0 l 139 0 q 52 30 83 0 q 21 110 21 60 q 25 146 21 128 l 44 238 q 185 411 74 376 l 60 449 l 100 638 q 283 728 181 692 q 500 764 385 764 q 724 704 646 764 q 803 533 803 644 q 793 451 803 503 l 756 276 q 749 221 749 239 q 770 169 749 183 q 842 154 792 154 q 928 173 885 154 q 1004 219 972 192 l 1117 750 l 1342 750 l 1183 0 l 976 0 l 979 65 q 728 -14 867 -14 z "},"ฒ":{"ha":1376,"x_min":26,"x_max":1382,"o":"m 281 -14 q 97 49 167 -14 q 26 239 26 111 q 40 354 26 293 q 167 662 83 560 q 383 764 250 764 q 468 746 438 764 q 519 693 499 728 q 711 764 600 764 q 828 726 790 764 q 867 618 867 688 q 858 549 867 586 l 789 219 q 842 172 806 190 q 922 154 879 154 q 1015 182 986 154 q 1058 276 1044 210 l 1158 750 l 1382 750 l 1278 257 q 1169 58 1250 129 q 974 -14 1088 -14 q 747 65 833 -14 l 725 0 l 524 0 l 631 508 q 638 558 638 540 q 629 587 638 578 q 600 596 621 596 q 559 582 578 596 q 526 542 540 568 l 443 542 q 427 583 436 571 q 394 596 418 596 q 317 534 347 596 q 263 354 288 472 q 250 257 250 296 q 277 178 250 201 q 364 154 304 154 q 457 165 424 154 l 424 8 q 281 -14 364 -14 z "},"ฆ":{"ha":865,"x_min":-10,"x_max":871,"o":"m 446 -14 q 218 65 304 -14 l 197 0 l -10 0 l 47 269 q 99 377 60 328 q 200 483 139 426 q 251 534 235 515 q 271 567 268 553 q 272 576 272 571 q 254 593 272 593 q 219 578 235 593 l 207 522 l 79 522 l 128 750 l 265 750 l 257 711 q 386 750 319 750 q 489 665 489 750 q 485 629 489 649 q 444 529 472 572 q 368 429 417 486 q 303 344 325 378 q 271 268 281 310 l 260 219 q 319 173 281 192 q 403 154 358 154 q 501 183 468 154 q 547 276 533 211 l 647 750 l 871 750 l 767 257 q 653 58 739 129 q 446 -14 567 -14 z "},"ธ":{"ha":756,"x_min":-12,"x_max":749,"o":"m 303 -14 q 126 3 210 -14 q -12 46 43 19 l 44 317 l 244 317 l 213 168 q 263 155 232 160 q 325 150 294 150 q 430 169 393 150 q 476 235 467 189 q 478 250 478 240 q 441 302 478 285 q 313 342 404 319 q 271 351 285 347 q 128 414 179 375 q 78 515 78 453 q 82 550 78 532 q 196 710 103 656 q 474 764 289 764 q 630 753 550 764 q 749 729 710 743 l 713 560 q 606 588 672 578 q 475 599 539 599 q 347 588 394 599 q 299 544 299 578 q 329 510 299 522 q 426 482 360 497 q 507 463 479 471 q 646 397 601 436 q 690 292 690 358 q 683 233 690 268 q 563 48 656 110 q 303 -14 471 -14 z "},"ร":{"ha":699,"x_min":-17,"x_max":688,"o":"m 249 -14 q 95 -3 167 -14 q -17 28 24 8 l 21 203 q 126 167 65 181 q 242 154 188 154 q 358 166 324 154 q 400 210 393 178 q 401 222 401 214 q 376 263 401 247 q 283 301 351 278 l 236 319 q 113 390 153 351 q 74 488 74 428 q 79 536 74 514 q 449 764 126 764 q 579 754 513 764 q 688 731 646 744 l 651 557 q 557 585 613 575 q 454 596 501 596 q 341 581 382 596 q 300 526 300 565 q 320 494 300 506 q 396 461 340 482 q 461 438 456 440 q 592 365 554 401 q 629 269 629 328 q 621 207 629 243 q 507 42 597 97 q 249 -14 417 -14 z "},"จ":{"ha":789,"x_min":13,"x_max":763,"o":"m 303 -14 q 223 -7 264 -14 q 158 10 182 0 l 118 261 l 13 261 l 57 431 l 285 431 l 331 153 q 453 213 404 157 q 526 381 501 268 q 540 479 540 436 q 496 570 540 544 q 340 596 451 596 q 90 560 225 596 l 124 718 q 274 751 193 739 q 432 764 356 764 q 681 697 599 764 q 763 499 763 629 q 749 381 763 442 q 588 88 708 190 q 303 -14 467 -14 z "},"ว":{"ha":714,"x_min":-39,"x_max":692,"o":"m 206 -14 q -39 33 54 -14 l -4 200 q 88 167 38 179 q 188 154 138 154 q 369 206 306 154 q 457 375 432 257 q 469 472 469 432 q 428 567 469 539 q 283 596 386 596 q 176 584 232 596 q 71 553 121 572 l 106 717 q 372 764 231 764 q 608 692 525 764 q 692 486 692 621 q 679 375 692 436 q 524 81 636 175 q 206 -14 413 -14 z "},"ง":{"ha":793,"x_min":46,"x_max":786,"o":"m 308 -14 q 219 -8 265 -14 q 144 10 174 -1 l 46 515 l 264 515 l 336 147 q 472 213 419 151 q 551 397 525 275 q 563 485 563 453 q 533 560 563 539 q 438 581 504 581 l 382 581 l 418 750 l 513 750 q 716 689 646 750 q 786 507 786 628 q 774 397 786 458 q 308 -14 686 -14 z "},"ฐ":{"ha":847,"x_min":-81,"x_max":896,"o":"m 303 -14 q 223 -7 264 -14 q 158 10 182 0 l 118 261 l 13 261 l 57 431 l 285 431 l 331 153 q 453 213 404 157 q 526 381 501 268 q 540 479 540 436 q 496 570 540 544 q 340 596 451 596 q 90 560 225 596 l 124 718 q 274 751 193 739 q 432 764 356 764 q 564 750 499 764 l 896 750 l 850 583 l 736 583 q 758 472 758 539 q 749 381 758 425 q 588 88 708 190 q 303 -14 467 -14 m 351 -296 q 249 -278 292 -296 q 186 -229 207 -260 q 39 -293 132 -293 l -81 -293 l -37 -133 l 43 -133 q 104 -119 81 -133 q 144 -74 128 -106 l 286 -74 q 303 -122 288 -106 q 353 -137 318 -137 q 412 -121 389 -137 q 442 -74 435 -104 l 449 -43 l 628 -43 l 621 -74 q 531 -236 600 -176 q 351 -296 461 -296 z "},"ฉ":{"ha":835,"x_min":15,"x_max":783,"o":"m 214 -14 q 69 34 122 -14 q 15 171 15 82 q 24 244 15 206 l 60 417 l 283 417 l 254 278 q 249 229 249 254 q 271 172 249 190 q 342 154 293 154 q 504 221 433 154 l 549 426 q 557 494 557 467 q 515 574 557 553 q 368 596 474 596 q 228 584 311 596 q 83 556 144 572 l 117 714 q 281 751 189 738 q 460 764 374 764 q 703 704 624 764 q 783 525 783 644 q 772 425 783 483 l 682 0 l 475 0 l 481 67 q 214 -14 360 -14 z "},"ล":{"ha":835,"x_min":3,"x_max":788,"o":"m 217 -14 q 65 33 126 -14 q 3 167 3 79 q 10 225 3 190 q 354 464 60 464 l 554 464 l 561 492 q 565 526 565 511 q 533 580 565 564 q 418 596 501 596 q 157 557 290 596 l 190 718 q 337 751 254 739 q 494 764 419 764 q 711 706 635 764 q 788 539 788 649 q 779 464 788 504 l 682 0 l 457 0 l 521 306 l 356 306 q 267 288 297 306 q 228 224 238 269 q 224 194 224 207 q 244 157 224 168 q 318 146 265 146 q 403 156 369 146 l 371 6 q 217 -14 310 -14 z "},"ส":{"ha":868,"x_min":3,"x_max":906,"o":"m 217 -14 q 65 33 126 -14 q 3 167 3 79 q 10 225 3 190 q 354 464 60 464 l 554 464 l 561 492 q 565 526 565 511 q 533 580 565 564 q 418 596 501 596 q 157 557 290 596 l 190 718 q 337 751 254 739 q 494 764 419 764 q 615 750 556 764 l 906 750 l 860 583 l 771 583 q 785 510 785 551 q 779 464 785 494 l 682 0 l 457 0 l 521 306 l 356 306 q 267 288 297 306 q 228 224 238 269 q 224 194 224 207 q 244 157 224 168 q 318 146 265 146 q 403 156 369 146 l 371 6 q 217 -14 310 -14 z "},"บ":{"ha":888,"x_min":50,"x_max":893,"o":"m 360 -14 q 134 53 218 -14 q 50 236 50 119 q 58 310 50 271 l 151 750 l 375 750 l 281 303 q 272 242 272 268 q 301 174 272 194 q 396 154 329 154 q 514 190 471 154 q 574 303 557 226 l 668 750 l 893 750 l 800 310 q 658 63 764 140 q 360 -14 553 -14 z "},"ป":{"ha":888,"x_min":50,"x_max":940,"o":"m 360 -14 q 134 53 218 -14 q 50 236 50 119 q 58 310 50 271 l 151 750 l 375 750 l 281 303 q 272 242 272 268 q 301 174 272 194 q 396 154 329 154 q 514 190 471 154 q 574 303 557 226 l 715 972 l 940 972 l 800 310 q 658 63 764 140 q 360 -14 553 -14 z "}}}
